<?xml version="1.0" standalone="no"?>
<!DOCTYPE svg PUBLIC "-//W3C//DTD SVG 1.1//EN" "http://www.w3.org/Graphics/SVG/1.1/DTD/svg11.dtd">
<svg width="100px" height="100px" version="1.1" xmlns="http://www.w3.org/2000/svg" xmlns:xlink="http://www.w3.org/1999/xlink" xml:space="preserve" style="fill-rule:evenodd;clip-rule:evenodd;stroke-linecap:round;stroke-linejoin:round;stroke-miterlimit:1.41421;">
    <g>
        <g id="Layer2">
            <g>
                <path d="M44.682,32.7344C44.682,32.7344 29.5146,28.4701 18.8278,33.7268C8.14097,38.9835 2.33654,53.3207 2.33654,53.3207C2.33654,53.3207 -0.671703,59.9373 3.16672,60.9281C7.00515,61.9188 7.51854,56.5857 7.51854,56.5857C7.51854,56.5857 13.6981,68.6513 14.0175,70.4627C14.3369,72.2742 12.8053,89.2445 12.8053,89.2445C12.8053,89.2445 12.297,93.4092 21.8485,93.3104C31.3999,93.2117 32.5331,90.6576 32.5331,90.6576C32.5331,90.6576 24.4296,74.0153 30.0812,75.8551C35.7328,77.6949 36.7716,76.7625 36.7716,76.7625L43.3195,76.3041L44.5893,91.5187C44.5893,91.5187 43.5986,92.9954 52.9736,92.8318C62.3486,92.6683 60.4427,90.6508 60.4427,90.6508L58.0852,72.6786L67.3803,69.2522L70.0711,78.3848C70.0711,78.3848 74.8881,88.7739 80.5586,91.1288C82.685,92.0119 80.162,88.057 82.7426,89.1574C85.3231,90.2578 79.5853,81.6276 79.5853,81.6276L77.3585,74.266C77.3585,74.266 86.5982,64.9219 84.3283,55.1674C82.0584,45.4129 85.3765,42.7773 74.9559,33.301C64.5352,23.8247 47.6902,31.8415 47.6902,31.8415C47.6902,31.8415 41.4488,37.0699 43.6252,45.1073C45.8015,53.1447 46.3733,58.9835 55.3731,59.3844C64.3729,59.7854 63.4569,52.1317 63.4569,52.1317" style="fill:none;stroke-width:2px;stroke:black;"/>
            </g>
            <g>
                <path d="M54.6814,92.5709C54.6814,92.5709 53.0078,90.2522 56.0246,88.6345C59.0413,87.0167 60.3331,87.8744 60.3331,87.8744" style="fill:none;stroke-width:2px;stroke:black;"/>
            </g>
            <g>
                <path d="M27.2729,92.0112C27.2729,92.0112 25.6722,90.4718 27.5391,88.6049C29.406,86.738 31.1992,87.3644 31.1992,87.3644" style="fill:none;stroke-width:2px;stroke:black;"/>
            </g>
            <path d="M76.4219,43.8733C76.4219,44.1738 76.7021,44.756 77.111,44.3638C77.4454,44.0433 76.3593,43.709 76.1306,43.9291C75.7922,44.2548 77.1378,45.1215 77.5078,44.7667C77.9939,44.3007 76.3795,44.2251 76.1306,44.4749C75.5031,45.1048 77.3866,45.9754 77.6629,45.5608C78.6738,44.0445 76.2299,44.6479 76.2299,44.7171" style="fill:none;stroke-width:2px;stroke:black;"/>
            <g>
                <path d="M81.7622,89.4788C81.7622,89.4788 83.1077,80.9806 85.9509,78.5522C88.7942,76.1238 91.7052,76.9177 91.9891,73.3089C92.2731,69.7001 88.5797,69.9014 88.816,66.8985C89.0523,63.8955 92.6818,60.7872 92.6818,60.7872C92.6818,60.7872 87.9047,62.1824 88.5912,53.4583C89.2777,44.7341 93.7789,41.2612 97.1837,45.2477C100.588,49.2341 98.8481,50.5939 98.4465,55.697C98.0449,60.8001 93.7842,60.7693 93.7842,60.7693" style="fill:none;stroke-width:2px;stroke:black;"/>
            </g>
        </g>
    </g>
</svg>
