<?xml version="1.0" encoding="utf-8"?>
<!-- Generator: Adobe Illustrator 19.0.0, SVG Export Plug-In . SVG Version: 6.00 Build 0)  -->
<svg version="1.1" id="Layer_1" xmlns="http://www.w3.org/2000/svg" xmlns:xlink="http://www.w3.org/1999/xlink" x="0px" y="0px"
	 viewBox="0 0 612 176.9" enable-background="new 0 0 612 176.9" xml:space="preserve">
<g id="XMLID_493_">
	<path id="XMLID_494_" fill="#010101" stroke="#FFFFFF" stroke-width="3" stroke-miterlimit="10" d="M5.1,57.6
		c0,0,178.3-47.8,297.6-47.8s308.8,47.8,308.8,47.8v112.2c0,0-200.8-47.8-308.8-47.8S5.5,169.8,5.5,169.8L5.1,57.6z"/>
	<g id="XMLID_495_">
		<path id="XMLID_496_" fill="#FFFFFF" stroke="#010101" stroke-miterlimit="10" d="M22.9,131.8l-10-37.6l38-10.1l1.7,6.5l-29.3,7.8
			l2.6,9.9l15.8-4.2l1.8,6.8l-15.8,4.2l3.8,14.3L22.9,131.8z"/>
		<path id="XMLID_498_" fill="#FFFFFF" stroke="#010101" stroke-miterlimit="10" d="M64,121l10.9-35.4l7.2-1.7l26.1,26.5l-8.5,2
			l-5.5-5.9l-20.5,4.9l-2.2,7.7L64,121z M75.7,105l14.2-3.4L79.5,90.4L75.7,105z"/>
		<path id="XMLID_501_" fill="#FFFFFF" stroke="#010101" stroke-miterlimit="10" d="M115.7,108.7l-6.6-31.2l21-4.5
			c6.1-1.3,11-0.9,14.8,1.1c3.8,2,6.2,5.5,7.2,10.4c2.2,10.5-3.5,17.1-17.3,20.1L115.7,108.7z M122.2,101.2l9.8-2.1
			c5.1-1.1,8.5-2.5,10.4-4.4c2.1-2.1,2.7-5.1,1.9-8.9c-1.3-6.3-5.6-8.7-12.8-7.2L118,81.5L122.2,101.2z"/>
		<path id="XMLID_504_" fill="#FFFFFF" stroke="#010101" stroke-miterlimit="10" d="M166.5,98.1L161,66.8l33.7-6l1,5.6l-25.9,4.6
			l1.2,6.8l15.1-2.7l1,5.4l-15.1,2.7l1.4,7.7l26.3-4.7l1,5.9L166.5,98.1z"/>
		<path id="XMLID_506_" fill="#FFFFFF" stroke="#010101" stroke-miterlimit="10" d="M257.4,52.7l3.1,31.8l-9,0.9l-3.1-31.8
			l-17.8,1.7l-0.7-6.9l44.6-4.3l0.7,6.9L257.4,52.7z"/>
		<path id="XMLID_508_" fill="#FFFFFF" stroke="#010101" stroke-miterlimit="10" d="M284.8,57.9c0-3,0.6-5,1.8-6
			c1.2-1,3.4-1.5,6.6-1.4l24.7,0.2c3.2,0,5.4,0.6,6.5,1.6c1.1,1,1.7,3,1.7,6l-0.2,16.8c0,3-0.6,5-1.8,6c-1.2,1-3.4,1.5-6.5,1.5
			l-24.7-0.2c-3.2,0-5.4-0.6-6.5-1.6c-1.1-1-1.7-3-1.7-6L284.8,57.9z M292.4,76.2l25.6,0.2l0.2-19.9l-25.6-0.2L292.4,76.2z"/>
		<path id="XMLID_511_" fill="#FFFFFF" stroke="#010101" stroke-miterlimit="10" d="M369.4,87l5.7-38.4l32.9,4.9
			c5.8,0.9,8.3,3.8,7.5,8.7l-0.7,4.7c-0.6,3.8-3.1,5.6-7.6,5.5c4.5,1.3,6.5,4.1,5.8,8.4l-0.7,4.9c-0.7,5-4.9,7-12.4,5.8L369.4,87z
			 M401.1,74.7l-20.4-3l-1.4,9.8l20.4,3c1.5,0.2,2.6,0.2,3.2-0.1c0.9-0.4,1.4-1.3,1.6-2.7l0.4-2.9c0.2-1.4,0-2.5-0.8-3.1
			C403.6,75.2,402.5,74.9,401.1,74.7z M403.4,59.2l-20.4-3l-1.4,9.2l20.4,3c2.7,0.4,4.2-0.3,4.5-2.1l0.5-3.6
			C407.3,60.7,406.1,59.6,403.4,59.2z"/>
		<path id="XMLID_515_" fill="#FFFFFF" stroke="#010101" stroke-miterlimit="10" d="M425.1,95.9l6-31.3l7.7,1.5l-4.9,25.4l24.6,4.7
			l-1.1,5.8L425.1,95.9z"/>
		<path id="XMLID_517_" fill="#FFFFFF" stroke="#010101" stroke-miterlimit="10" d="M460.9,102.7l25.3-27l7.3,1.6l11.9,35.2
			l-8.5-1.9l-2.4-7.7l-20.6-4.5l-5.4,6L460.9,102.7z M478.4,93.5l14.3,3.1l-4.4-14.5L478.4,93.5z"/>
		<path id="XMLID_520_" fill="#FFFFFF" stroke="#010101" stroke-miterlimit="10" d="M546.1,95.9l-20.2-5l-4.8,19.3l20.2,5l1.6-6.6
			l7.2,3.4l-0.9,3.7c-0.7,2.9-1.8,4.7-3.2,5.4c-1.4,0.7-3.6,0.7-6.8-0.1l-19.3-4.8c-3.1-0.8-5.1-1.8-6-3.1c-0.9-1.3-1-3.4-0.3-6.2
			l4-16.3c0.7-2.9,1.7-4.7,3.1-5.4c1.4-0.7,3.6-0.7,6.7,0.1L547,90c3.1,0.8,5.1,1.8,6,3.1c0.9,1.3,1,3.4,0.3,6.2l-0.7,3l-7.9-0.8
			L546.1,95.9z"/>
		<path id="XMLID_522_" fill="#FFFFFF" stroke="#010101" stroke-miterlimit="10" d="M559.6,126.1l8.3-30.7l7.6,2.1l-3.4,12.4
			l21.3-7.6l10.8,2.9l-25.1,8.5l19.1,22.9l-11.8-3.2l-15.6-19.1l-3.8,13.9L559.6,126.1z"/>
	</g>
</g>
</svg>
