<?xml version="1.0" encoding="utf-8"?>
<!-- Generator: Adobe Illustrator 19.0.0, SVG Export Plug-In . SVG Version: 6.00 Build 0)  -->
<svg version="1.1" id="Layer_1" xmlns="http://www.w3.org/2000/svg" xmlns:xlink="http://www.w3.org/1999/xlink" x="0px" y="0px"
	 viewBox="0 0 800 800" enable-background="new 0 0 800 800" xml:space="preserve">
<rect x="2" y="4" stroke="#000000" stroke-miterlimit="10" width="802" height="801"/>
<path fill="#FFFFFF" stroke="#000000" stroke-miterlimit="10" d="M363.2,365.5C363.4,365.1,2,4,2,4h105L363.2,365.5z"/>
<path fill="#FFFFFF" stroke="#000000" stroke-miterlimit="10" d="M435.2,395.1C435.6,395.3,802,43.3,802,43.3v102.5L435.2,395.1z"/>
<path fill="#FFFFFF" stroke="#000000" stroke-miterlimit="10" d="M415.2,356.9C415.5,357,500-3.9,500-3.9l62.1,10L415.2,356.9z"/>
<path fill="#FFFFFF" stroke="#000000" stroke-miterlimit="10" d="M396.9,355.8C397.2,355.7,376,3.3,376,3.3l60,1.7L396.9,355.8z"/>
<path fill="#FFFFFF" stroke="#000000" stroke-miterlimit="10" d="M380.9,364.8c0.3-0.3-160.5-358.3-160.5-358.3l67.2-0.4
	L380.9,364.8z"/>
<circle fill="#FFFFFF" stroke="#000000" stroke-width="10" stroke-miterlimit="10" cx="402" cy="372.8" r="70.5"/>
<path stroke="#FFFFFF" stroke-miterlimit="10" d="M374,369.5c-0.3-1.5-0.6-3.1-1-4.6c-3.1-9.8-6.3-19.6-9.3-29.5
	c-0.7-2.3-1-4.9-0.8-7.4c0.1-1.5,1.4-3.9,2.6-4.1c1.6-0.3,4.1,0.5,5,1.8c1.8,2.3,2.8,5.2,4,8c3.1,7.5,6,15.2,9.3,22.6
	c0.7,1.6,2.6,2.6,4,3.9c0.8-1.8,2.2-3.6,2.3-5.4c0.8-12.1,1.3-24.3,1.9-36.4c0.1-1.2,0.2-2.3,0.5-3.4c0.8-2.7,1-6,4.9-5.8
	c3.9,0.2,4.9,3.3,5.2,6.3c0.5,6.8,0.8,13.6,0.8,20.4c0,6.7-0.5,13.3-0.4,20c0,1.7,1.5,3.3,2.3,5c1.4-1.3,3.4-2.3,4-3.9
	c2.4-6.5,4.3-13.3,6.6-19.9c1.7-5,3.4-10.1,5.7-14.8c0.8-1.6,3.5-2.4,5.3-3.5c1,1.9,3.1,4,2.8,5.7c-1.5,11.5-3.8,22.9-5.3,34.4
	c-1,7.7-2.2,15.5-1.5,23.2c0.7,8.3,6.3,9.8,12.4,4.1c3.8-3.5,7-7.7,10.9-10.9c2.3-1.9,5.5-3.3,8.4-3.8c3.9-0.6,5.9,2.7,4,6.1
	c-4.1,7.2-8.3,14.2-14.4,20.2c-6.4,6.4-11.1,14.5-16.5,21.8c-5.8,8-12.6,14.7-22.9,16.5c-14.7,2.5-28.1-5.5-33.5-20
	c-1.3-3.6-2.8-7.3-3-11c-1-16.2-8.7-29.4-17.7-42.2c-2.4-3.3-4.2-7.2-5.5-11.1c-0.6-1.6,0.7-3.9,1.2-5.8c2,0.7,4.7,0.8,5.9,2.2
	c4.8,5.3,8.9,11.2,13.6,16.6c1.9,2.3,4.5,4,6.8,6C372.9,370.3,373.4,369.9,374,369.5z"/>
<rect x="4" y="564.7" fill="#FFFFFF" stroke="#000000" stroke-miterlimit="10" width="800" height="240.3"/>
<g>
	<line fill="#FFFFFF" x1="-1.4" y1="556.6" x2="805" y2="556.6"/>
	<g>
		<g>
			<g>
				<g>
					<path fill="#FFFFFF" d="M234.5,527.2C234.2,527.1,234,527.4,234.5,527.2L234.5,527.2z"/>
					<path fill="#FFFFFF" d="M499.1,521.4c0.1,0,0.2,0,0.3,0c0.2-0.8,0.4-1.5,0.5-2L499.1,521.4z"/>
					<path fill="#FFFFFF" d="M541.6,526.4c0.1,0.1,0.2,0.1,0.3,0.2C541.9,526.1,541.9,525.6,541.6,526.4z"/>
					<path fill="#FFFFFF" d="M401,528.8c-0.4,0-0.6,0.1-0.7,0.4C400.5,529.1,400.7,528.9,401,528.8z"/>
					<path fill="#FFFFFF" d="M156.5,531.5c0,0,0.1,0,0.2-0.1c-0.1-0.2-0.3-0.3-0.5-0.5L156.5,531.5z"/>
					<path fill="#FFFFFF" d="M157.4,530.1c0.9,0.6-0.3,1.1-0.7,1.3c1,1.1,2.1,1.2,3.1,0.7C159.8,530.9,157.9,531.1,157.4,530.1z"/>
					<path fill="#FFFFFF" d="M15.1,534.9l0.4-0.5C15.3,534.6,15.2,534.7,15.1,534.9z"/>
					<path fill="#FFFFFF" d="M405.2,589.5c-0.2,0.1-0.4,0.2-0.6,0.3C404.9,589.8,405.1,589.7,405.2,589.5z"/>
					<path fill="#FFFFFF" d="M37.4,536.2l0.2-2C37.4,535,37.4,535.6,37.4,536.2z"/>
					<path fill="#FFFFFF" d="M499.9,519.3l0.3-0.8C500.1,518.8,500,519,499.9,519.3z"/>
					<path fill="#FFFFFF" d="M581,527.6c0,0.6,0.1,1.1,0.2,1.5c0,0,0.1,0,0.1,0L581,527.6z"/>
					<path fill="#FFFFFF" d="M779.2,558.8c0-0.2,0-0.5-0.1-0.8l-0.8,1.4C778.7,559.3,779,559.1,779.2,558.8z"/>
					<path fill="#FFFFFF" d="M634.9,536.1c0-0.2,0.2-0.4,0.2-0.7c-0.9-0.7-3.4-0.8-6.5-0.7l-0.2,2.4L634.9,536.1z"/>
					<path fill="#FFFFFF" d="M693.9,592.2l-5.7-4.8c18.5-2.2,27.1,2.6,42.9-1.3l-0.9,1c2.3,1.1,3.6-9.7,29,3.5v0.5
						c0.9-0.1,0.9-1,2.6,0.2l-4.4-3c2.6-1.2,4.9-3.5,8.4-3.9c0.7,0.5,1,1.5,1.1,2.3l8.6-0.8l2.6,3.1c2.6-1.7,1.4-8.3,8.5-4.6
						c-2.7-4.6,3.5-2.7,2.6-5.1c0.4,0.6,1.2,1.4,1.8,2.2c4.2-0.5,12.1-1.8,14-4.2c0,0-16.4-9.6-20.8-14.5c5.9,1.2,1.6-0.6,0.4-2.1
						l-0.4,1.1c-3.5-1.1-3.5-4-5.3-4.8c0,0.2,0.1,0.5,0.1,0.8l0.2-0.4c0.2,0.5,0.1,0.9-0.1,1.2c0,0.6-0.1,1.1-1.1,0.9l0.2-0.3
						c-1.5,0.4-4,0-5.1-0.2l0-2.4c-2.6,4.6-17.6-7-21.1-7.2c-3.5-3-7.9,0.8-12.3-0.8c-7-0.8-3.5-3.5-7-5.6c-4.4-1.5,0.9,2.8-0.9,3
						l-5.3-3.4c3.1-0.3,1.4-1.7,0.8-2.7c-4.6-0.4-11.7-4.8-13.1,0c-6.1-2.3-6.2-4.2-8.8-4.5c0.9,0.9,2.6,1.7,2.7,2.6
						c-2.5-2.1-1.2,0.5-0.2,1c-3.8,2.1-19.5-8.8-20.3-3.5v-1c-0.9,3.9,0.5,7.8-2.1,9.9l-1.8-1.8l-2.6,1.7c-1.8-1.3-0.9-2.3-0.9-2.8
						c-4.3,1.8-10.3-0.4-15.5-0.9l5.5,10.7c-4.4-2.5-12.3-7.5-13.2-4.1l-2.6-3.6c-8.8-6.9-6.1,3-9.7,0.9l-4.4-3.9l4.4,0.1
						c-4.4-2-6.2-3.3-9.7-5.8c0,0,0,0.1,0,0.1c0.2,0.2,0.4,0.4,0.4,0.6l-0.6,0.1c-0.5,2-2.8,3.3-5.9,3.2c-4.4-0.6-7.8,2.3-14.9-1.8
						l-1.8,4l-5.3-2.4v-3.2c5.2,0.2,14.9-1,21.5-1.2l0.1-1.5c-3.9,0-8.4,1.4-11,1.1c-1.3-0.6-4.5-4-2.2-6.1l-2.4,3.1
						c-13.1,0.4-13.2,0.5-26.9-3.1l1.2,1.6c-2.7,0.9-5.4,1.9-6.2-0.7c-8.2-0.5-16.8-2.5-22.1-6.6l-1.2,3.8c-1.7-0.2-4.3-5.9-5.2-0.6
						l-3.7,1.7c-2.4-0.3-3.8,1.9-6.5-0.3c0,0,0,0,0,0c0,0,0,0,0,0c-0.2-0.1-0.3-0.3-0.5-0.4c0,0.1,0,0.2,0,0.3
						c-5.4-1.7,0.1,3.4-6.1,1.2c-2-2.7-2.2,4.8-5.2,3.9l-3-5.4c-5.4-3.1-6.4,2.3-14.3,2.3c-3.8-1.9-5.6-6.5-3.1-10.6
						c-3.4,5-1.6,3.2-6.1,5.6c-0.7-2-0.2-2.5,0.8-4.3c-4.1-2.4-2.5,1.8-5.6,1.7c-0.9,3.8-1.9,10-2.9,10.2l1.2,1.2
						c-3.2,2.1-6.8,3-10.6,1.1l0.1-1.9l-4,1l-0.3-2.5l-5.7,0.8l0.8,0.7c-1.3,0.3-5.8,1.2-8.3-0.1l0.1-1.4c-7.1-4.3-13,1.3-21.3,1.8
						l1.1-2.8c-2.8-2.8-0.8,4.3-4.2,2.9l-0.2-3.4c-3,4.5-3.9-1-5.9-2.7l1,4.5l-3.9-1c-4.3-1.5-2.6-5.7-2-8.1l-2.9,3.6l-0.6-4
						c-2.1,4.6-2.1-0.7-5.8,1.7c-0.3-1.5,0.6-2.4-0.6-3l-6.1,5.6l3.7-2.5l-0.4,5.8c-3.8,4.4-5.2-0.6-8,1l1.9-1.7
						c-4.5,1.4-4.7-1.1-7.3-2.3c0.8,1.1,2,2.7,0.2,3.4c-1.3,0.3-0.7-2-2-2.7c-0.3,3.9-3.5,5.9-6.4,4.1c0-0.6,0.1-1.1,0.3-1.4
						c-0.7,0.6-1.1,1.6-2.4,0.7l0.8-4.3l-2.5,4.1c-1.7-1.2-4.1,1.9-3.9-1l0.9-0.9l-12.6-1l-0.2-3.4c-1.2,4.7-6.9-1.8-6.4,4.1
						c-2.4-3.2-9.4,2.3-8-4.4c-8.3-0.5-12.7,5.9-22.8,2.7c-3.6-5.7-13.4-3.8-19.9-4.4c-12.6,2.4-20.8,4.5-33.7,6.3
						c-7.8-7.9-19.4,2.7-27.7-1.7l-2.3,3.1c-5.5-5-14,1.1-21.8-3.8c-1.9,1.4-2.9,1.8-3.4,1.9c0.4,0.2,0.9,0.7,1.1,2.7
						c-2.2-1.4-6.7,0.4-6.4-3.6l0.6-0.4c0.3-4-6.7,1.9-9.2-1.6l1.4,4.3l-4.2-0.7l1.1-0.8c-18.3,9.5-26.6-4.1-43.7,4.6
						c2.3-4.7-3.4,2.4-3.6-2.6c-4.3-6.4-8,1.4-11.6,3.1c0,0.2,0,0.5-0.2,0.9l-6.2-0.6c3.7-6.4-4.5,5.3-1.1-0.1
						c-16.2-4.8-37.3,0.1-56.1-2.1l0.8,1.7c-4.8-0.3-10.7,1.7-14.3-1c-3.6-2.6-7.9,4.2-9.3,4.5c-4,2.8-7.6-2.8-5.9-2.5
						c-4.2,0.8-8.2,6.7-14.1,4.1c-2-5.5-16,5.4-16.2-0.8l-0.1,0.5c-7.5-4.3-14.6,3-22.7-0.9c0,0,0.2-0.5,0.4-0.9l-16.5,18.6
						l4.7,20.5l14.3,16.7l38.7-3.6l30.9,6.5l75.1-2.2l5.4-4.6c14.8,8.1,33.7-1.2,49.6,4.6l0.3-4c4.5-0.2,4.2,2.2,5.3,2.9
						c41.7-0.9,84.7-6.2,122.2-1.2c3.6,2.6,14.6,1.1,17.5,3.9c12.2-4.9,25.1-4.8,37.3-4.3l-0.5,0.4l5.7-0.8c0.2,0.3,0.3,0.8,0.1,1.1
						c6.5-3.5,16.7,0,24.6,1.4l-0.5,0.4c46.3,0.7,89.3-6.7,135.3-1.2c21.4,6.5,46.2-2.5,70.7,2.9
						C639.9,597.1,689.5,594.1,693.9,592.2z"/>
					<path fill="#FFFFFF" d="M766.9,586.9l-0.2,0C766.7,588.6,767,587.9,766.9,586.9z"/>
					<path fill="#FFFFFF" d="M664.4,541c0.1,0,0.2,0,0.3,0l-1.2-2.4L664.4,541z"/>
					<path fill="#FFFFFF" d="M730,539.6c-2.9-0.5-3.1-0.1-2.7,0.6C728.4,540.3,729.4,540.1,730,539.6z"/>
					<path fill="#FFFFFF" d="M790.9,583.7c1.5,0.1,1-0.9,0-2c-1.6,0.2-2.7,0.3-2.7,0.3C789.2,582.4,790.1,583.3,790.9,583.7z"/>
					<path fill="#FFFFFF" d="M784.6,560.9l0.5-1.4C784.2,559.9,784.2,560.4,784.6,560.9z"/>
				</g>
			</g>
		</g>
	</g>
</g>
<text transform="matrix(1 0 0 1 145.6034 505.5862)" fill="#FFFFFF" stroke="#000000" stroke-miterlimit="10" font-family="'CapitalsRegular'" font-size="72px">Fade to Black</text>
</svg>
