<?xml version="1.0" encoding="utf-8"?>
<!-- Generator: Adobe Illustrator 19.0.0, SVG Export Plug-In . SVG Version: 6.00 Build 0)  -->
<svg version="1.1" id="Layer_1" xmlns="http://www.w3.org/2000/svg" xmlns:xlink="http://www.w3.org/1999/xlink" x="0px" y="0px"
	 viewBox="0 0 612 792" enable-background="new 0 0 612 792" xml:space="preserve">
<g id="XMLID_291_">
	
		<circle id="XMLID_292_" fill="#010101" stroke="#FFFFFF" stroke-width="10" stroke-miterlimit="10" cx="306.8" cy="396.3" r="202.8"/>
	<path id="XMLID_293_" fill="#FFFFFF" stroke="#010101" stroke-miterlimit="10" d="M226.2,386.9c-0.9-4.3-1.7-8.9-2.9-13.2
		c-8.9-28.2-18.1-56.4-26.8-84.9c-2-6.6-2.9-14.1-2.3-21.3c0.3-4.3,4-11.2,7.5-11.8c4.6-0.9,11.8,1.4,14.4,5.2
		c5.2,6.6,8.1,15,11.5,23c8.9,21.6,17.3,43.7,26.8,65c2,4.6,7.5,7.5,11.5,11.2c2.3-5.2,6.3-10.4,6.6-15.5
		c2.3-34.8,3.7-69.9,5.5-104.7c0.3-3.5,0.6-6.6,1.4-9.8c2.3-7.8,2.9-17.3,14.1-16.7c11.2,0.6,14.1,9.5,15,18.1
		c1.4,19.6,2.3,39.1,2.3,58.7c0,19.3-1.4,38.3-1.2,57.5c0,4.9,4.3,9.5,6.6,14.4c4-3.7,9.8-6.6,11.5-11.2c6.9-18.7,12.4-38.3,19-57.3
		c4.9-14.4,9.8-29.1,16.4-42.6c2.3-4.6,10.1-6.9,15.2-10.1c2.9,5.5,8.9,11.5,8.1,16.4c-4.3,33.1-10.9,65.9-15.2,99
		c-2.9,22.2-6.3,44.6-4.3,66.8c2,23.9,18.1,28.2,35.7,11.8c10.9-10.1,20.1-22.2,31.4-31.4c6.6-5.5,15.8-9.5,24.2-10.9
		c11.2-1.7,17,7.8,11.5,17.6c-11.8,20.7-23.9,40.9-41.4,58.1c-18.4,18.4-31.9,41.7-47.5,62.7c-16.7,23-36.3,42.3-65.9,47.5
		c-42.3,7.2-80.9-15.8-96.4-57.5c-3.7-10.4-8.1-21-8.6-31.6c-2.9-46.6-25-84.6-50.9-121.4c-6.9-9.5-12.1-20.7-15.8-31.9
		c-1.7-4.6,2-11.2,3.5-16.7c5.8,2,13.5,2.3,17,6.3c13.8,15.2,25.6,32.2,39.1,47.8c5.5,6.6,12.9,11.5,19.6,17.3
		C223,389.2,224.5,388,226.2,386.9z"/>
</g>
</svg>
