<?xml version="1.0" encoding="utf-8"?>
<!-- Generator: Adobe Illustrator 19.0.0, SVG Export Plug-In . SVG Version: 6.00 Build 0)  -->
<svg version="1.1" id="Layer_1" xmlns="http://www.w3.org/2000/svg" xmlns:xlink="http://www.w3.org/1999/xlink" x="0px" y="0px"
	 viewBox="0 0 612 792" enable-background="new 0 0 612 792" xml:space="preserve">
<g id="XMLID_315_">
	<g id="XMLID_316_">
		<path id="XMLID_317_" fill="#010101" stroke="#FFFFFF" stroke-width="3" stroke-miterlimit="10" d="M254,778.5
			c0-44,22.9-78.6,51.1-78.6c28.2,0,51.1,34.6,51.1,78.6H254z"/>
		<path id="XMLID_318_" fill="#010101" stroke="#FFFFFF" stroke-width="3" stroke-miterlimit="10" d="M305.2,741.3"/>
		<polygon id="XMLID_319_" fill="#010101" stroke="#FFFFFF" stroke-width="3" stroke-miterlimit="10" points="356.3,778.5 
			551.1,778.5 551.3,699.9 		"/>
		<polygon id="XMLID_320_" fill="#010101" stroke="#FFFFFF" stroke-width="3" stroke-miterlimit="10" points="335.8,715.5 
			550.5,158.5 550.5,30.8 		"/>
		<polygon id="XMLID_321_" fill="#010101" stroke="#FFFFFF" stroke-width="3" stroke-miterlimit="10" points="349.9,741.4 
			550.5,455.9 550.5,373.3 		"/>
		<polygon id="XMLID_322_" fill="#010101" stroke="#FFFFFF" stroke-width="3" stroke-miterlimit="10" points="354.1,758 
			550.5,541.1 550.5,628.9 		"/>
		<path id="XMLID_323_" fill="#010101" stroke="#FFFFFF" stroke-width="3" stroke-miterlimit="10" d="M342.6,724l208.5-395.6
			c0,0,2.5-117.1,0.8-120.7C550.2,204.2,342.6,724,342.6,724z"/>
		<polygon id="XMLID_324_" fill="#010101" stroke="#FFFFFF" stroke-width="3" stroke-miterlimit="10" points="272.3,715.5 
			57.5,30.8 57.5,158.6 		"/>
		<polygon id="XMLID_325_" fill="#010101" stroke="#FFFFFF" stroke-width="3" stroke-miterlimit="10" points="254,778.5 58.5,778.5 
			58.5,701.7 		"/>
		<polygon id="XMLID_326_" fill="#010101" stroke="#FFFFFF" stroke-width="3" stroke-miterlimit="10" points="254,758 58.8,630.7 
			59,541.1 		"/>
		<polygon id="XMLID_327_" fill="#010101" stroke="#FFFFFF" stroke-width="3" stroke-miterlimit="10" points="259.5,742.2 59,458.5 
			58.8,373.1 		"/>
		<polygon id="XMLID_328_" fill="#010101" stroke="#FFFFFF" stroke-width="3" stroke-miterlimit="10" points="267.7,724 59,329 
			58.8,213.6 		"/>
		<polygon id="XMLID_329_" fill="#010101" stroke="#FFFFFF" stroke-width="3" stroke-miterlimit="10" points="87.1,9.5 169.4,9.5 
			285.2,706.7 		"/>
		<polygon id="XMLID_330_" fill="#010101" stroke="#FFFFFF" stroke-width="3" stroke-miterlimit="10" points="197.9,9.5 281.7,9.5 
			300.5,700.5 		"/>
		<polygon id="XMLID_331_" fill="#010101" stroke="#FFFFFF" stroke-width="3" stroke-miterlimit="10" points="313.5,8.3 390.8,8.6 
			313.5,699.7 		"/>
		<polygon id="XMLID_332_" fill="#010101" stroke="#FFFFFF" stroke-width="3" stroke-miterlimit="10" points="418.6,9.5 500.9,9.5 
			326.7,706.7 		"/>
	</g>
	<g id="XMLID_333_">
		<path id="XMLID_334_" fill="#FFFFFF" d="M83.9,477.4l-18.5-82.3l14.3-36.4c0,0,10.4-131.1,43.1-192.1s174-101.4,174-101.4
			s66.9,7.2,125.8,42.1s97.6,128.2,97.6,128.2l22.7,158.7l-15.1,79.7l-44.3,15.7l6.7,134.1c0,0-43.9,88.9-105.9,112.4
			c-62.1,23.5-85.9,19-149.7-2.2c-63.7-21.2-104-103-104-103l12.4-111.7L83.9,477.4z"/>
		<path id="XMLID_335_" d="M391.7,645.2c-12.2,14.4-20.1,15.9-37.7,7.5c-11.5,10.1-24,11.8-38,5.4c-2.2-1-5.7-0.2-8.2,0.9
			c-12.1,5.4-23.7,7.1-35.4-1.1c-1.7-1.2-5.1-0.8-7.4,0c-14.5,5-23.2,2.6-33.1-10c-10.7,4.3-19.7,3.2-27.5-7.2
			c-4.6-6.1-14.9-8.8-17.6-15.2c-5-11.7-7.6-24.9-8.5-37.7c-0.9-12.6,1.3-25.5,2.7-38.2c0.3-3.2,1.7-7,3.9-9.1
			c7.5-7.4,15.7-14.2,22.9-20.7c7.4,0.9,16.1,0.9,24.2,3c11.1,2.9,22.6,0.6,33.2,3.3c7.1,1.8,12.8,2.5,20,0.7
			c9.7-2.4,19.3-0.5,27.1,7.2c9.1-5.7,18.3-9.5,28.8-3.8c1.2,0.6,3.7,0,4.9-0.9c7.1-5.3,14.6-4.7,23.1-4.1c8.8,0.6,18-1.7,26.8-3.6
			c7-1.6,12.9-0.9,18,4.4c6.9,7.2,13.9,14.3,20.7,21.6c1.6,1.8,3.5,4.2,3.6,6.4c1,19.2,3,38.5,1.9,57.6
			c-0.6,11.4-5.8,22.7-20.7,23.7c-1.2,0.1-2.5,1.7-3.5,2.8C409.1,645.8,401.3,648.8,391.7,645.2z M273.5,620.5c-0.2,0-0.3,0-0.5,0
			c0.3,5.2,0.2,10.5,0.9,15.7c1,7.2,4.2,12.7,12,14.8c8.1,2.1,14.8,0.2,20.2-5.9c5.5-6.2,7.1-34.5,2.5-41.4c-0.7-1-1.7-2.3-2.7-2.4
			c-9.4-0.7-18.9-2.3-28-0.9c-2.3,0.4-3.1,10.6-4.4,16.3C273.3,617.9,273.5,619.2,273.5,620.5z M315,619c0,0-0.5,0-0.7,0.1
			c0.7,6.4,0.8,13,2.2,19.3c2.2,9.7,8.6,13.4,18.7,12c11-1.5,15.7-6,15.6-15.9c-0.1-8-1.2-16-1.7-24.1c-0.5-8.9-5.3-12.2-13.8-12.5
			c-18.2-0.5-20.2,1.3-20.2,19.2C315,617.8,315,618.4,315,619z M275.7,567.2c0.1,0,0.2,0,0.3,0c0,2.5,0,5,0,7.4
			c0.3,14.9,3.3,17.9,18.1,17.9c2.5,0,5.5,0.5,7.3-0.7c3-2,7.3-5.1,7.3-7.7c0.1-11.1-0.6-22.2-2.2-33.2c-1.2-8.1-7-12-15.5-11.6
			c-8.4,0.4-13.2,4.7-14.3,13C276.3,557.3,276.1,562.3,275.7,567.2z M327.6,593.4c4.9-0.9,9.9-1.3,14.5-3c2.4-0.9,5.9-4.3,5.6-6.2
			c-1.4-11.7-2.6-23.6-6.2-34.7c-1.3-4-9-7.9-13.9-8c-3.7-0.1-9.9,5.1-11,9c-2.6,9.4-4,19.5-3.9,29.3
			C312.9,592.1,315,593.2,327.6,593.4z M270.1,618.1c0,0.1,0-1.4,0-3c0.4-14.2-13.3-24.4-26.8-19.6c-1.9,0.7-4.2,3.4-4.3,5.2
			c-0.6,11.7-1.4,23.5-0.6,35.2c0.6,7.9,8.8,12.7,17.3,11.9c7.9-0.8,12.5-5,13.1-13.2C269.1,629.7,269.6,624.8,270.1,618.1z
			 M386.3,623.8c-1.2-7.8-1.9-15.6-3.7-23.1c-0.6-2.7-3.8-6.8-5.9-6.8c-6.7-0.3-13.5,0.6-20,2.1c-2,0.5-4.6,4.5-4.4,6.8
			c0.9,10.8,2.3,21.6,4.2,32.2c1.2,6.7,5.2,11.5,12.8,10.9c7.3-0.5,13.3-3.5,15.3-11.2C385.6,631.2,385.8,627.5,386.3,623.8z
			 M273.5,563.4c-0.4-3.7-0.6-9.4-1.6-14.9c-1.2-6.8-6-9.8-12.5-10.6c-6.8-0.8-12.2,1.6-13.7,8.3c-2.4,10.3-4.2,20.7-5.2,31.2
			c-0.3,2.8,2.6,7.2,5.3,8.7c14.5,8.1,25.8,2,27.2-14.3C273.2,569.6,273.3,567.5,273.5,563.4z M349,556.6c-0.2,0-0.4,0-0.6,0.1
			c1,7.7,1.6,15.5,3,23.1c1,5.3,4,9.8,10.2,8.2c6.7-1.8,16.9-0.8,16.6-11.3c-0.3-10.5-2.1-21.2-5.3-31.1c-1.3-3.9-7.9-8-12.5-8.5
			c-6.3-0.7-10.9,4.1-11.4,11.1C348.9,550.9,349,553.8,349,556.6z M209.8,616.5c0.5,3.9-0.1,10.1,2.4,14.6c2.1,3.8,7.8,7.2,12.1,7.5
			c2.5,0.2,7.3-5.6,8-9.3c1.8-9.4,2.3-19.2,2.5-28.8c0.2-9.5-8-10-14.5-11.4c-7-1.6-8.3,3.5-8.9,8.9
			C211,603.6,210.5,609.2,209.8,616.5z M411.9,613.8c-1.1-7.5-1.9-14.3-3.3-20.9c-1.2-5.9-5.7-7.1-10.8-5.8
			c-5.1,1.3-12.5,1.1-11.6,9.2c1.2,10.8,3,21.5,5.6,32c0.7,2.9,5.6,7.2,7.8,6.8c3.9-0.7,8.7-3.8,10.5-7.3
			C412.2,623.7,411.5,618.2,411.9,613.8z M403.6,575.3c-3.7-13.2-6.3-24.7-10.3-35.8c-1-2.7-6.1-5.1-9.5-5.5
			c-1.9-0.2-6.3,4.4-6.1,6.4c1.5,12.6,3.5,25.1,6.6,37.4c0.5,2,7.1,3.7,10.7,3.4C398.1,580.9,400.8,577.4,403.6,575.3z M240.8,550.8
			c-0.3,0-0.5-0.1-0.8-0.1c0-1.9,0.6-4-0.1-5.5c-1.8-3.7-4.1-7-6.2-10.5c-3,2.8-7.4,5.1-8.6,8.5c-3.2,9-5.1,18.5-7.1,27.8
			c-1.2,5.8,1.5,9.6,7.6,10.6c5.7,0.9,9.8-0.8,11-7C238,566.6,239.3,558.7,240.8,550.8z M196.4,567.6c2.2,2.8,4.6,7,8.1,9.6
			c1.3,0.9,7.4-1.4,7.9-3.2c2.9-11.4,5.4-22.9,6.6-34.5c0.3-2.7-4.4-7.4-7.6-8.5c-2-0.6-7.3,3.4-8.2,6.3
			C200.3,546.4,198.9,556,196.4,567.6z M398.6,538.4c2.2,10.9,3.6,20.5,6.2,29.6c1,3.4,4.9,5.9,7.6,8.8c2.9-3.9,8.4-7.9,8.3-11.6
			c-0.4-9.5-2.5-19.1-5.6-28.1c-1-3.1-6.5-5.9-10.3-6.5C403.1,530.4,400.5,535.9,398.6,538.4z M208.6,601c0-3.8,1-7.3-0.2-9.2
			c-2-3-5.3-5.3-8.6-7.1c-0.8-0.4-4.7,2.2-4.8,3.6c-1,10.4-1.9,20.8-1.7,31.2c0,2.4,4.6,4.6,7,6.9c2.2-2.6,5.5-5,6.2-8
			C208,612.5,208.1,606.2,208.6,601z M429.5,608.2c0.3-0.1,0.6-0.1,0.8-0.2c-1.5-6.9-2.5-14.1-4.9-20.7c-0.8-2.3-6.2-5.3-7.8-4.5
			c-2.8,1.3-6,5.4-6,8.3c0.1,7.1,1.3,14.3,3.3,21.1c1.2,4.2,4.7,7.7,7.2,11.5c2.5-4.3,5-8.5,7.3-12.8
			C429.8,610.2,429.5,609.1,429.5,608.2z"/>
		<path id="XMLID_353_" d="M103.1,198.2c5.2,5.7,5,11.2,1.9,18.4c-21.2,49-23.7,100.2-15.5,152.3c0.8,5.4,1.8,10.8,1.1,16.8
			c-1.8-3.5-3.7-6.9-5.3-10.5c-1.6-3.6-2.9-7.4-4.8-12.5C69,379.4,66,396.2,74.5,413c5.9,11.8,7.8,23.6,6.6,36.1
			c-2.6,25.7,19.7,40.6,41.6,35.9c13.9-3,27.4-8.2,40.8-13.2c16-6,32-10.5,49.2-6.6c1.2,0.3,2.7,0.1,3.6,0.7
			c6.7,4.8,16.1,8.5,18.8,15c1.5,3.6-8,11.9-13.6,17.6c-2.7-9.3,1.4-20.7-9.2-25.4c-6-2.6-13.3-2.1-20.9-3.1
			c6,12.5,11,22.6,15.7,32.9c2.9,6.2,1.1,11.2-4,15.8c-6.8,6.1-13.1,12.8-19.7,19.4c-1.6-9.9-2.5-19.1-4.7-28c-1.2-5-4.1-9.7-7-14.1
			c-7.7-11.7-8.2-11.7-20.8-6c-5.6,2.5-11.4,4.8-17.9,7.6c13,25.9,13.8,52.9,8.4,80.3c-1.1,5.7-5.5,10.8-8.4,16.2
			c-0.8-0.4-1.5-0.8-2.3-1.2c1.7-13.9,3.8-27.7,5.1-41.6c1.4-15.9-2-30.9-8.7-45.4c-2.8-6-6.5-8-13.2-9.3
			c-10.4-2.1-21.2-5.5-29.9-11.3c-11.4-7.5-12.3-20.4-11.9-33.5c0.3-9.3-0.2-19.8-4.2-27.9c-11.7-23.5-7.3-44.5,5.5-65.5
			c2.4-4,3.5-9.9,2.9-14.6c-6.6-48.6-1.7-95.8,17.6-141.1c1.7-4.1,3-8.9,9.1-4.9C102.9,197.9,103,198,103.1,198.2z"/>
		<path id="XMLID_354_" d="M103.1,198.2c-0.1-0.2-0.2-0.3-0.3-0.5c-4.5-4-3.3-8.1-0.6-12.5C142.9,118,201,74.9,279.7,66.5
			c93.5-10,165.9,28.6,218.2,106.1c2.6,3.9,4.6,8.1,6.7,12.3c6,11.7,5.9,11.8-5.3,19.9C456.9,129,396.1,79.7,305.8,79.3
			c-90.5-0.5-151.2,49.2-196.3,124.2C107.6,201.9,105.3,200,103.1,198.2z"/>
		<path id="XMLID_355_" d="M444,407.7c0-8.2,0-14.4,0-22c3,2.3,6.7,4.4,9.9,6.2c6.2-5.4,12.4-11.9,19.7-16.9c-20.5,0-40,0-59.1,0
			c1.4,3,1.4,3.7,23.1,11.4c-7.5,2.6-21-1.2-26-6.4c-3.6-3.7-7.8-7-12.3-11c0.3-0.4,1.5-2.4,2.8-4.4c-5.6-1.4-10.8-2.5-15.8-4
			c-1.7-0.5-3.3-2-5.4-2.3C390,384.7,412,390,437,392c0,5,0,9.4,0,14.8c-4-0.8-9.8-1.4-14.3-2c-0.1-0.4,0-0.8-0.1-1.2
			c2.5-0.5,5.1-1,7.7-1.4c0.1-0.9,0.1-1.9,0.2-2.8c-4.1,0-8.2,0.2-12.2,0c-4.6-0.2-10.5,0.9-13.7-1.5c-12.8-9.3-25.5-18.8-36.7-29.9
			c-10.5-10.4-9.6-11.3,2.6-22.2c0.4,1.2,0.9,3,1.1,3c12.7-2.5,18.7,15.7,34.5,8.7c-2.6-8.2-4.8-17.5-8.5-26.1
			c-4.1-9.3,2.3-14.3,8-20.2c-0.5,2.4-0.3,5.5-1.7,7.2c-4.7,5.5-2.5,9.7,1.6,13.7c5.5,5.3,11.3,10.4,17.2,15.8
			c7.7-3.4,7.9-6.2,3.9-13.4c-3.8-6.7-6-14.5-8-22c-1.4-5.4-1.1-11.2-1.5-16.8c0.9-0.1,1.9-0.3,2.8-0.4c1.5,11.2,2.9,22.4,4.4,33.5
			c1-0.1,1.9-0.1,2.9-0.2c-0.6-8.9-5.9-19.6,9.9-22.7c-2.3-7.7-4.4-14.9-6.7-23c5-5.6,10.9-12.7,17.5-19.1c1.9-1.9,6.4-3.2,8.7-2.2
			c24.2,10.5,45.4,24.5,51.4,52.5c6.4,29.7-0.5,56-23.6,76.4c-7.2,6.4-16.5,10.3-25.7,15.8c-0.6-3.9-0.5-5.4-0.8-7.9
			C453.1,401.5,449,404,444,407.7z M411.3,368.9c6.3-2.4,11.6-5.5,17.2-6.2c5.9-0.7,12,1,18,1.6c0.3,0,0.7,0,0.9-0.2
			c8.9-5.5,16.6-2.6,26.2,6.3c1-7.7,2-12.7,2.3-17.7c0.2-4.9-1.1-9.9-0.4-14.7c1.5-10.2-1.6-16.5-11.3-19.1
			c-2.5-0.7-5.6,0.8-8.4,1.2c1.1,2.2,2.4,4.4,3.3,6.7c1.4,3.4,4.5,7.7,3.5,10.3c-1.3,3.3-5.8,7.5-9.1,7.6
			C435.7,345.7,421.5,352,411.3,368.9z M499.3,333c-2.9-8.2-5.9-15.4-7.8-22.8c-2.4-9.3-6.2-12.8-15-9.6c-4.6,1.7-7.9,6.9-11.8,10.5
			c2.5,2.3,5.4,4.4,7.4,7.1c3.2,4.3,7.9,9,8.1,13.7c0.7,12.4-0.8,24.9-1.3,37.4C494,361.6,492.4,344.5,499.3,333z M465,304.2
			c8-6.9,10.2-19.2,2.3-25.1c-6-4.5-17.6-5.8-24.7-3.2c-8.6,3.2-3.7,12.5-1.6,19.7C451.1,293,459.3,294.7,465,304.2z M437.2,343.3
			c6.2-0.4,16.9-10.8,14.7-15.7c-5.1-11,3.8-12.3,9.7-16c-1.8-8.8-6.9-13-15.2-12.7c-2.1,0.1-5,1.8-5.8,3.6c-0.6,1.4,1,4.8,2.6,5.9
			c6.1,4.4,6.1,9.9,3.5,15.8C444,330.7,440.5,336.9,437.2,343.3z M421.9,367.8c14.3,9.5,27.4,0.5,41-0.4c-2.7-1.7-5.8-2.7-8-1.8
			c-7.1,3-13.6,4.4-21.2,0.7C430.7,364.8,425.9,367.2,421.9,367.8z M410.1,359.7c9.3-8.5,9.2-10.1-2.1-19.6
			C408.7,347,409.4,353,410.1,359.7z M433.1,338.6c0.6,0.1,1.2,0.2,1.8,0.3c2.3-4.5,4.6-9,7.2-14.1c-4.3-0.6-7.5-1.1-11.4-1.7
			C431.6,328.9,432.4,333.8,433.1,338.6z M437.4,321.4c3-2.6,4.8-4.1,6.5-5.6c-2.2-1.7-4.3-4.3-6.7-4.7c-2-0.3-4.4,1.9-6.6,3
			C432.6,316.3,434.6,318.5,437.4,321.4z"/>
		<path id="XMLID_365_" d="M484.4,599.7c-12.7-36.4-14.2-73-1-110.2c-7.1-2.9-14-6.3-21.4-8.4c-2.6-0.7-7.1,1.3-9,3.6
			c-10.8,12.5-15.7,27.4-16.2,43.8c-0.2,5.3,0,10.5,0,15.9c-21.8-9.9-30.2-28.2-22.1-49.5c3.3-8.6,8.2-16.5,12.9-25.9
			c-5.3-0.6-10.5-1.9-15.5-1.5c-7.6,0.6-12.5,4.7-13.2,13.1c-0.5,6.7-1.8,13.2-2.8,19.9c-0.9,0.4-1.9,0.7-2.8,1.1
			c-4.6-4.8-9.5-9.2-13.6-14.4c-1.2-1.5-0.4-5.4,0.6-7.6c5.6-11.8,15.7-18.8,28.3-17.8c14.7,1.1,29.4,4.5,43.7,8.2
			c13.2,3.4,25.8,9,39,12.7c20.7,5.8,46.5-8,45.3-36.5c-0.6-14.6,3.9-29.4,6-44.2c2.4-17.2-2.2-32.4-13.1-47.3
			c-2.5,9.1-4.6,16.7-6.6,24.3c-0.5-0.1-1-0.2-1.5-0.3c0.7-11.3,1.4-22.5,2-33.8c2.3-45.1-3.7-88.9-21.3-130.8
			c-3.8-9.1,4-10.9,8.4-16.4c10,22,17.3,43.8,19.5,66.7c2.2,23.4,1.4,47.2,2.3,70.8c0.2,5,0.9,10.7,3.5,14.8
			c14.3,22,18.3,45,10.2,70.4c-2.8,8.9-2.6,19.1-2.5,28.6c0.3,23.9-15.9,42.2-39.9,42c-9.5-0.1-13.1,3.5-15.4,11.7
			c-7.1,24.8-7.8,49.7-2.1,74.9c1.8,7.9,3.2,15.8,5,24.9c-3.1-1.3-5.2-2.1-7.3-3C484,599.5,484.4,599.7,484.4,599.7z"/>
		<path id="XMLID_366_" d="M251.1,353.6c0.2,2.6,1.6,6,0.4,7.6c-13.9,20.3-32.5,34.5-57.3,42.5c2-9,3.5-15.3,12.8-18.4
			c13.5-4.6,24.1-13.5,27.7-27.9c-7.3,2.4-14.1,4.6-21.8,7.1c0.9,1.5,2,3.2,2.3,3.8c-11.8,11.1-23.9,20.8-41.3,19.4
			c0.2,1,0.4,2,0.6,3c3.1,0,6.2,0.1,9.3,0c3.4-0.1,6.8-0.4,11.2-0.6c-1.8,6.5-0.3,13.8-9.3,15.2c-12,2-12,2-18.7-18.5
			c6.3-1.3,12.6-1.7,18.8-3.2c6.1-1.5,13-3.5,15.1-8.5c-19.6,0-38.9,0-58.3,0c6.9,11,25.6,13.4,27.4,30.9
			c-11.9,0.7-22.2-2.9-31.3-9.2c-27.2-18.7-37.2-45.3-33-77.3c4-29.7,24.6-45.8,49.7-57.2c9.3-4.3,9.9,7.1,15.9,9.6
			c-11.3,2.7-25.6-1.6-28,15.9c-0.8,6.2-1.3,11.8,5.9,15.2c6.3-7.3,13.7-11.9,24.7-7.5c1.5-6.7,2.8-12.9,4.2-19.1
			c8.7,9.2,0,19,0.6,29.1c14.3,2.2,9.9,12.9,9.1,21.9c1,0,2,0.1,3.1,0.1c1.2-9.7,2.4-19.5,3.7-30.7c1.4,2.2,2.3,3,2.3,3.7
			c-0.6,12.2,1.6,25-9.1,34.9c-1.6,1.5-0.9,7.9,1,10.3c3.6,4.4,5.9,0.2,8.4-2.8c2.9-3.5,6.4-6.7,9.9-9.7c5.5-4.8,11.1-9.3,2.7-16.4
			c-0.1,0,1.6-2.1,2.5-3.3l-0.3-0.2c3.7,5.5,8.6,10.1,4.9,18.3c-3.7,8.2-5.6,17.3-8.6,27.2c11-0.9,19.5,0.3,23.8-9.1
			c0.5-1.1,3.8-1.5,5.6-1.1c4.4,1,8.7,2.8,13,4.2C250.9,353.3,251.1,353.5,251.1,353.6z M204.1,368.4c-8.1-11.5-16.6-19.8-29.2-22.3
			c-4.6-0.9-9.4-0.6-13.9-1.6c-9.5-2.1-12.4-10.7-6.5-17.4c2-2.2,3-5.2,4.5-7.9c-3.7,0-8.1-1.3-10.9,0.3c-3.7,2.1-8.5,6.1-8.9,9.8
			c-1.2,10.3-0.7,20.9,0,31.3c0.1,1.9,5.8,5.5,6.1,5.2c7.4-6.6,15.1-6,23.4-1.9c1.3,0.6,3.5-0.9,5.3-1c5.1-0.2,10.2-0.7,15.2,0.1
			C193.8,363.8,198.2,366.2,204.1,368.4z M136.3,369c0-9.2,1.7-18.8-0.4-27.4c-3.1-12.7-0.8-21.2,11.4-26.8c1.2-0.5,1.4-5.2,0.6-7.5
			c-0.7-2.1-3.4-3.4-5.2-5.2c-6.4-6.1-16.4-3.3-18.8,5.1c-2.4,8.3-5.3,16.4-8.2,25.2C122.4,343.8,120.9,361.3,136.3,369z M178,342.8
			c-2.7-4.7-5.6-9.2-7.7-13.9c-3.5-7.7-7.4-15.3,2.8-22c4-2.6,2.2-6.6-2.5-8.1c-8.4-2.7-15.9,3.5-16.1,13.3c9.8,3.9,10,4.2,8.6,13.7
			C162.1,332.2,171,342.6,178,342.8z M193.1,369.7c0.2-1,0.3-2,0.5-3c-5-0.2-10-0.5-14.9-0.7c-5.3-0.2-10.6-0.1-15.9-0.3
			c-3.7-0.1-7.3-0.5-11-0.7c-0.1,1.3-0.1,2.6-0.2,3.9C165.5,367.6,178.9,376.4,193.1,369.7z M172.1,324.4c3.3,5.4,5.9,9.7,9.6,15.7
			c0.9-7.5,1.5-12.5,2.2-17.9C180,322.9,177,323.5,172.1,324.4z M207.2,339.3c-11.8,9.6-12,11.6-2.6,19.4
			C205.4,352.6,206.2,346.9,207.2,339.3z M172.6,322.8c1.5-0.9,3-1.7,4.5-2.6c2.3-2,4.7-4,7-6c-2-1.4-4.4-4.3-6-3.9
			c-2.7,0.7-5.7,3-7.1,5.5C170.3,317.3,172.1,320.4,172.6,322.8z"/>
		<path id="XMLID_375_" d="M484.4,599.7c0,0-0.4-0.3-0.4-0.3c10.7,9,8.3,20.8,6.1,32c-5.7,29.5-23.2,52.1-44.7,71.8
			c-30.3,27.7-65.5,46.6-105.7,55c-36.9,7.7-72,0-105.2-16.6c-32-16-61.8-35.3-83.2-65c-15-20.7-25.4-43.1-22.7-69.4
			c0.6-5.8,4.5-11.3,6.8-16.9c1.1,0.3,2.3,0.6,3.4,0.9c0,2.6,0.4,5.2-0.1,7.6c-5.6,34.7,8.3,62.7,32,85.8
			c43.1,42.1,94.5,68,155.7,61.1c63.9-7.2,115.6-37.5,147.5-96c7.3-13.4,10.3-28,8.4-43.4C482.2,604.3,483.7,602,484.4,599.7z"/>
		<path id="XMLID_376_" d="M137.5,235.2c-2.2-3.3-4.4-6.5-7-10.3c21.7,5.3,42.8,10.4,63.8,15.6c0.2-0.9,0.4-1.8,0.7-2.6
			c-9.9-6.2-20-12.1-29.5-18.8c-5.1-3.6-13-9-7.8-15.4c4.9-6.1,11.2,1.3,15.8,4.8c11.1,8.5,21.8,17.5,34,25.5
			c-1.1-2.9-2.2-5.8-3.3-8.7c-9.8-26.4,7.2-50,35.2-49.1c3.7,0.1,7.4,0.7,11.2,1l-0.3-0.2c5.6,6.1,12.8,11.3,16.3,18.4
			c8.2,16.3-4.4,34-22.1,31.5c-4.1-0.6-8.9-5.3-10.8-9.3c-0.9-2,4-6.7,6.3-10.2c3.2,2.6,7,4.8,9.4,8.1c1.2,1.7-0.1,5.2-0.3,8.4
			c7.8-1.5,11.4-6.5,12.7-13.4c1.8-9.7-5.4-20.3-16.3-24.5c-9.5-3.6-18.4-0.5-24.2,8.5c-9.7,15.1-7,35.6,7.1,47.4
			c7.3,6.1,15.6,11.1,25.1,17.8c0-5-0.2-8.2,0-11.4c0.8-9.1,4.8-16.7,14.2-18.7c4.5-0.9,11.8,0,14.1,3c2.8,3.6,2.5,10.4,1.7,15.5
			c-0.3,2.1-5.3,3.9-8.5,4.7c-0.7,0.2-4.2-5.3-3.7-5.9c2.1-2.4,5.1-4,7.9-5.7c0.6-0.4,1.5-0.2,3.6-2.3c-2.6-2-5.2-5.6-7.6-5.4
			c-2.5,0.1-6.1,3.4-7,6.1c-3.8,10.8-2.4,21.6,2.8,31.7c3.4,6.6,8.5,12.5,11.4,19.3c2.6,6.1,3.5,12.9,4.5,19.5
			c0.2,1.4-2.1,4.2-3.7,4.6c-1.5,0.3-4-1.3-5.2-2.8c-1.7-2.1-2.8-4.8-3.7-7.5c-17.9-53.9-67.3-66.4-110.4-54.1
			c-3.1,0.9-6.5,0.9-9.8,1.3c-0.3-1-0.6-2.1-0.9-3.1c3.3-1.6,6.7-3.2,9-4.3c-7.8-3.1-16.3-6.4-24.7-9.7
			C137.2,234.4,137.5,235.2,137.5,235.2z"/>
		<path id="XMLID_377_" d="M457.2,252c-11-1.6-21.9-3.7-32.9-4.7c-36.6-3.3-67.8,15.5-82.3,49.1c-2,4.6-3.7,9.3-6.2,13.5
			c-1,1.7-4.2,3.6-5.9,3.2c-1.6-0.4-3.9-4-3.5-5.5c2.1-7.6,4.6-15.2,7.6-22.5c4.4-10.8,9.9-21.2,13.9-32.1c1.4-3.7,0.5-8.9-0.9-12.8
			c-1-3-4.1-6.6-7-7.3c-2.3-0.5-5.5,2.9-8.3,4.6c0.3,0.8,0.6,1.6,0.9,2.5c1.3,0.1,2.8-0.2,3.8,0.4c2.5,1.7,5.2,3.4,6.7,5.9
			c0.5,0.8-3,5.6-4.1,5.4c-2.9-0.5-7.7-2.6-7.8-4.3c-0.3-5.5-0.6-12.7,2.6-16.2c2.5-2.9,10.7-3.4,15-1.7c12.4,4.9,13,16.1,11.7,27.6
			c27.7-6.6,44.5-31.4,37.2-54.9c-2.7-8.8-7.7-16-17.5-17.5c-10-1.5-17.5,3.5-23.1,11.3c-7.6,10.7-4.4,21.4,8.7,27.7
			c0-3.2-1.1-6.8,0.2-8.8c2-3.1,5.7-5.1,8.7-7.6c2.4,3.4,7.6,8,6.7,9.8c-1.9,4.1-6.4,8.9-10.6,9.6c-14.4,2.6-26.8-10.9-24.4-25.4
			c2.4-14.2,14.7-24.8,29.4-25.3c18.2-0.6,33.9,9.4,36.2,25.7c1.5,10.5-1.3,21.6-2.2,32.6c4.5-3.5,10.3-8.3,16.3-12.7
			c7.5-5.6,14.9-11.4,22.8-16.3c2.2-1.4,6.1-0.3,9.2-0.3c-0.6,3.1,0,7.7-1.9,9.1c-8.5,6.7-17.6,12.7-26.6,18.7
			c-3.5,2.3-7.4,3.9-11.2,5.9c0.3,0.9,0.6,1.8,0.9,2.6c18.7-3.9,37.3-7.7,56.7-11.7c-6.1,9.4-13,16-23.9,14c1.8,3.2,3.3,5.9,4.8,8.7
			L457.2,252z"/>
		<path id="XMLID_378_" d="M174.5,556.6c-5.6,20.5-11.3,40.9-16.9,61.3c15.9,0.7,22.9,5.1,25,17.3c0.6,3.4-2.4,7.4-3.7,11.1
			c-3-2.1-7.5-3.6-8.8-6.5c-2.2-4.9-2.4-10.7-3.5-16.2c-8.9,0-14.2,7.6-9.6,16.2c3.3,6.3,8.7,13.3,14.9,15.8
			c11.6,4.7,24.3,7.3,36.8,8.9c14.8,2,30.1,0.3,44.6,3.3c20.2,4.3,36.3,15.5,40.6,37.7c3.9,19.7-6.8,32.7-25.1,31.2
			c-11.4-0.9-21.7-12.7-20.2-23.9c0.4-2.7,3.4-6.7,5.6-6.9c2.3-0.3,6.1,2.6,7.4,5.1c1.7,3.1,0.6,7.8,2.4,10.8
			c2.1,3.4,5.7,7.6,9.2,8.1c5.7,0.9,11.3-3.3,10.2-9.3c-1.3-7.2-3.8-15.7-8.7-20.4c-14.9-14.1-33.7-15.5-53-12.9
			c-0.7,0.9-1.4,1.7-2.1,2.6c3.4,3.3,6.9,6.5,10.1,10.1c2.3,2.6,4.6,5.6,5.9,8.8c0.3,0.8-3.3,4.7-4.7,4.5c-3.7-0.5-9-1.5-10.5-4.2
			c-3.5-5.9-5.2-12.9-7-17.9c-11.7-2.2-23.3-4.2-34.8-7c-1.9-0.5-2.8-4.7-4.1-7.3c0.5-0.9,0.9-1.7,1.4-2.6c4.9,0.8,9.9,1.4,14.7,2.4
			c6.1,1.2,12,3.7,18.1,3.9c4.4,0.1,8.9-2.6,13.3-4c-0.2-1.1-0.5-2.2-0.7-3.3c-9-1.2-18.1-2.2-27.1-3.8c-5.5-1-11-2.5-16.2-4.3
			c-23.3-8.1-32.4-25.1-26.4-49.2c4.3-17.2,8.8-34.3,13.6-51.3c1-3.5,3.6-6.4,5.5-9.7C171.8,555.6,173.1,556.1,174.5,556.6z
			 M283.7,697.7c-7.7-15.2-22.5-23.9-40-24.7c-6.7-0.3-13.4-0.3-17.9,6.9C257.2,680,263.7,682,283.7,697.7z"/>
		<path id="XMLID_381_" d="M395.4,673.6c2.8,7.5,8.1,9.2,14.5,7.9c7.6-1.6,15-4.1,22.6-5.3c2.9-0.5,6.2,1.3,9.3,2.1
			c-1.8,3-3,7.9-5.4,8.6c-6.7,2-13.9,2.5-20.9,3.2c-4,0.4-8,0.1-12.3,0.1c-1.1,4.6-1.6,9.7-3.6,14.1c-1.6,3.4-4.7,7-8,8.4
			c-2.6,1.1-6.6-0.8-10-1.4c1.1-3.2,1.3-7.1,3.3-9.4c3.6-4.1,8.3-7.3,13.4-11.6c-19.6-8.2-48.8-1.7-59.8,12.5
			c-3.4,4.4-5.6,10.5-6.1,16.1c-0.5,6.2,3.9,10.3,10.5,10.7c6.3,0.4,8.8-3.5,9.8-9.1c0.7-3.7,0.8-7.7,2.5-10.8
			c1.2-2.2,4.9-4.5,7.1-4.1c2.1,0.3,4.8,3.8,5.2,6.3c1.7,11.1-8,22.9-19.6,24.6c-12.6,1.9-23.2-5.6-25.2-17.9
			c-2.8-18,4.3-31.7,19-41.6c15.4-10.4,32.8-12.9,50.9-11.8c16.6,1,33.4,2.2,48.6-5.6c7.2-3.6,14.1-9.4,18.7-16
			c6.1-8.7,1.1-17.8-9.1-18.7c-0.4,4.2-0.3,8.6-1.5,12.6c-1.6,5.2-3.4,12.3-10.8,9.6c-6.8-2.4-4.3-8.8-2.4-13.7
			c4.4-11.4,11.2-14.9,25.1-12.8c-5-18.4-9.9-36.4-14.8-54.5c1.1-0.5,2.1-1.1,3.2-1.6c1.8,2.7,4.3,5.1,5.1,8
			c3.1,10.7,5.2,21.8,8.6,32.4c12.5,39.2-0.6,60.3-41.6,66.1C413.3,672.2,404.6,672.7,395.4,673.6z M393.3,680.8
			c-18-14.4-52.5-4.5-58.6,15.1C351.1,680.8,370.4,678.4,393.3,680.8z"/>
		<path id="XMLID_384_" d="M251.1,353.6c0,0-0.1-0.3-0.4-0.7c-6.8-5.6-7.6-12.1-3.7-19.8c1.3-2.4,1.9-5.3,2.4-8
			c2.1-11.8-5.2-20.8-17.3-21.5c-8.6-0.5-16,1.2-20.1,9.8c0,0,0.3,0.2,0.3,0.2c-1-3.6-1.7-7.3-3.1-10.7c-1-2.4-2.4-5.6-4.5-6.5
			c-10-4.5-13.1-6.5-17.9-15.8c9.8,6.6,19.6,13.3,29.8,20.2c5.3-0.5,12.1-2.1,18.8-1.7c9.3,0.5,12.8-3.5,9.1-12.3
			c-3.2-7.4-9-11.3-17-12.9c-5.4-1.1-11.1-3.1-15.6-6.2c-8.8-6.1-26.8-5.5-33.7,2.5c-1.1,1.3-0.2,4.3-0.2,6.6
			c-4.8-5.5-9.7-11-15.6-17.6c28-7.9,54.4-11,79.2,5.1c26.3,17,35.9,54.6,15.7,87.8C256.6,353.3,253.3,353.1,251.1,353.6z"/>
		<path id="XMLID_385_" d="M350.3,460.3c1.5,1.3,2.3,1.8,3,2.4c10,9.9,9,15.9-3.6,22.7c-8.2,4.4-21.1,3.7-27.5-1.5
			c-7.4-6-10.7-18.2-7.5-28.2c1-3.2,2.6-6.3,4.1-9.6c-3.2-4.4-6.5-8.8-9.9-13.5c-1.8,3-3,6-5.1,8.1c-4,4.1-3.5,7.5-1,12.3
			c6,11.7,3.3,24.6-5.6,31.3c-8,6.1-23.5,5.1-32.4-2c-12.4-9.9-11.5-17.7,3.2-27.8c6.2,15.4,11.5,20.3,18.5,17.3
			c8.1-3.6,8.6-13.4,1.3-27.1c5.8-6.9,11.7-13.8,17.5-20.7c0.4,0.8,0.8,1.7,1.8,3.8c0.5-5,0.8-8.8,1.3-13.2
			c7.5,9.5,14.6,18.6,20.9,26.6c-0.7,8.1-1.8,15.8-1.6,23.5c0,2.3,3.4,5.5,5.9,6.5C342.8,474.6,346.6,467.9,350.3,460.3z"/>
		<path id="XMLID_386_" d="M448,259.2c-4.8,8.1-9.2,13.1-19.4,7.5c-9.6-5.2-19.5-4.7-28.4,3.8c-2.9,2.8-8.3,3.6-12.7,4.2
			c-10,1.4-18.6,9.3-18.3,17.9c0.1,5.3,1.7,8.4,8.5,7.7c7.2-0.8,14.7,0.5,23.3,0.9c2.5-4.3,5.4-11.5,13.8-8.6
			c-5,5.8-9.5,11.1-13.6,15.9c-4.4-1.5-8.6-3.6-13-4.3c-17.2-2.6-26.6,9.5-21.3,26.9c3.8,12.5,3.2,14-8.5,21.6
			c-15.6-20.4-15.6-52.9,0.1-74.2C376.4,254.3,413.4,246.1,448,259.2z"/>
		<path id="XMLID_387_" fill="#FFFFFF" d="M178.1,276.7c0-2.2-0.9-5.3,0.2-6.6c6.9-8.1,24.9-8.7,33.7-2.5c4.5,3.1,10.2,5.1,15.6,6.2
			c8,1.6,13.8,5.5,17,12.9c3.7,8.8,0.3,12.7-9.1,12.3c-6.7-0.3-13.5,1.2-18.8,1.7c-10.2-6.9-20-13.5-29.8-20.2
			c4.8,9.3,7.9,11.3,17.9,15.8c2.1,0.9,3.5,4.1,4.5,6.5c1.4,3.4,2.1,7.1,3.1,10.7c-0.9,1.1-2.5,3.2-2.5,3.3
			c8.3,7.1,2.8,11.6-2.7,16.4c-3.5,3-7,6.1-9.9,9.7c-2.5,3-4.8,7.2-8.4,2.8c-1.9-2.3-2.6-8.8-1-10.3c10.7-9.9,8.5-22.7,9.1-34.9
			c0-0.7-0.8-1.4-2.3-3.7c-1.4,11.2-2.5,20.9-3.7,30.7c-1,0-2-0.1-3.1-0.1c0.7-9.1,5.2-19.7-9.1-21.9c-0.6-10.1,8.2-19.9-0.6-29.1
			C178.2,276.3,178.1,276.7,178.1,276.7z"/>
		<path id="XMLID_388_" d="M316.7,124.6c0.2,14,1.2,28.2,0.4,42.2c-0.6,9.9-7.9,16.6-14.8,16.7c-7.7,0.1-14.7-6.3-17.2-15.8
			c-3.3-12.4-1.4-29.6,4.8-44.6C297.8,123.6,305.7,124.1,316.7,124.6z"/>
		<path id="XMLID_389_" d="M277.8,401.2c-6.7,4.4-7.5,10.6-6.2,18c3,16.4-2.8,36.2-18.2,43.5c0.7-13-2.9-26,8.8-36.3
			c1.9-1.7-0.5-7.5,1.1-10.3c6.9-12.1,13.6-24.5,22-35.6c7.8-10.2,11.1-9.4,19.3,0.6c1,1.2,1.7,2.6,2.2,3.4
			c6.9-4.3,12.3-9.5,18.6-10.9c2.6-0.6,7,6.7,11.9,11.7c-15.2,3.2-22.8,26.1-40,11.6c-4.9,0.3-8.7,0.6-12.4,0.8
			C282.6,399,280.2,400.1,277.8,401.2z"/>
		<path id="XMLID_390_" d="M285.6,120.7c-1.7,7.4-4.6,14.9-4.8,22.4c-0.4,11.3-0.3,23,1.8,34.1c1.9,10,10.9,15.8,19.7,15.6
			c9.9-0.3,16.6-6.9,17.8-15.2c2.1-13.3,1.5-27.1,1.5-40.7c0-5.3-1.6-10.5-0.7-16.4c0.7,0.8,1.8,1.5,2.1,2.4
			c6,19.5,10.4,39.4,7,59.7c-1.2,7.3-5.9,15.6-11.6,20.4c-14.4,12.2-33.9,6.1-41-12c-6.7-17-4.5-34.3-0.5-51.5
			c1.5-6.5,4-12.8,6-19.3C283.8,120.3,284.7,120.5,285.6,120.7z"/>
		<path id="XMLID_391_" d="M268.8,89.9c16.5-5.8,45.7-6.9,66.3-2.4c-1.9,16.6-14.9,28.3-32.1,28.9C286,117.1,271.8,106,268.8,89.9z"
			/>
		<path id="XMLID_392_" d="M267.7,107.3c4.2,3.7,7.9,6.9,11,9.7c-3.4,14.1-6.6,27.6-9.9,41.3c-11.3,1.3-17.9-3.9-17.8-15.6
			C251.1,128.6,257.4,117.3,267.7,107.3z"/>
		<path id="XMLID_393_" d="M227.7,418.4c9.1,11.7,9.2,20.2,0.8,28c-2.2,2-5.3,4.4-7.9,4.3c-3.4-0.1-7-2.2-9.9-4.4
			c-0.5-0.4,2-7.1,3-7.1c3.2,0.1,6.3,2,10.8,3.8c0.7-2.4,2-6.5,3.8-12.6c-18.2,7.7-34.1,14.5-50.1,21.3c-0.4-0.8-0.9-1.6-1.3-2.4
			c2.4-2.2,4.9-4.3,7.1-6.7c4.7-5,7.7-10.3,4.4-17.7c-1.2-2.6-0.2-6.1-0.2-9.2c1.1-0.4,2.2-0.8,3.2-1.2c4,5.2,8,10.4,12.4,16.1
			c4.3-0.5,10-0.1,14.6-2.2C222.2,426.7,224.6,422,227.7,418.4z"/>
		<path id="XMLID_394_" d="M309.8,365.1c-9.9-13.5-15.9-26.9-12.5-42.3c0.9-4.3,6.2-9.9,10.4-10.8c7-1.6,10,5,11.1,11
			C321.3,337.7,317.1,350.9,309.8,365.1z"/>
		<path id="XMLID_395_" d="M122,480c-2.9-0.4-8.3-1.1-15.1-2c6.7-8.6,8.5-16.9,6.4-26.9c-0.5-2.2,7-7.6,11.5-9
			c3.9-1.2,12.1,0.1,12.8,2.3c1.6,4.5,0.9,11-1.3,15.4C133.1,466.4,127.8,472.1,122,480z"/>
		<path id="XMLID_396_" d="M128.9,432.1c-2.4,1.9-4.9,3.6-7.2,5.6c-6.9,6-13.8,10.4-21.2-0.2c0.4-7.1,0.5-15.3,1.6-23.2
			c0.5-3.2,3.4-6,5.3-8.9c1.9,2.1,3.8,4.2,5.9,6.1c2.2,2,4.4,4.8,7,5.2C133.7,419.1,134,419.4,128.9,432.1
			C128.8,432.1,128.9,432.1,128.9,432.1z"/>
		<path id="XMLID_397_" d="M516.9,439.4c-3.8,1.2-10,5.2-12.1,3.6c-7.2-5.3-14-11.8-18.8-19.3c-2.8-4.3,1.8-6.9,7.2-7.5
			c3.9-0.4,7.5-3.5,11-5.7c2.1-1.3,3.7-3.5,5.5-5.2c1.9,2.6,4.9,4.9,5.3,7.7C516.2,420.9,516.3,429,516.9,439.4z"/>
		<path id="XMLID_398_" d="M507.9,477.9c-4.6,0.6-9.9,1.3-13.3,1.7c-4.7-7.1-8.6-12.5-12-18.1c-2.1-3.6-4.5-7.5-4.9-11.5
			c-0.7-7.4,3.5-10.7,11-9.6c11.1,1.6,14.7,6.8,14.7,17.5C503.3,464,506.1,470.2,507.9,477.9z"/>
		<path id="XMLID_399_" d="M342.5,118.2c2.6,6,6,11.7,7.5,18c2.9,11.7-3.3,19.9-15.3,21.5c-2.9-12-6.3-24-8.2-36.2
			c-0.5-3.3,3.8-7.3,6.4-12c4.1,3.6,7,6.2,9.9,8.8L342.5,118.2z"/>
		<path id="XMLID_400_" d="M342.7,118.3c1.2-0.5,3.3-1.7,3.5-1.5c7.3,9.5,16.7,18.2,21,28.9c7.2,18-7.8,33.2-26.9,28.9
			c-1.9-0.4-3.3-2.8-4.9-4.2c1.4-1.3,2.6-3.5,4.2-3.9c9.8-2.6,16.3-8.5,16.5-18.9c0.3-11.8-3.1-22.5-13.7-29.6
			C342.5,118.2,342.7,118.3,342.7,118.3z"/>
		<path id="XMLID_401_" d="M354.5,415c10.2,16.9,16.4,33.9,9.2,53.6c-11.6-5.4-12.2-15.5-14.8-25.5
			C345.9,432.3,349.1,424.1,354.5,415z"/>
		<path id="XMLID_107_" fill="none" d="M250.5,177.1c-20.7-13.2-21.5-36.4-1.7-52.2c-6.3,33.9-4.2,38.6,19.1,43.5
			c2.8,6.5-0.1,9.1-6.6,9c-3.7,0-7.5-0.3-11.2-0.5C250.2,176.9,250.5,177.1,250.5,177.1z"/>
		<path id="XMLID_404_" d="M233,424.7c-0.7-7.1-1.2-12.2-1.7-18.1c11.4,4,11.9-4.7,14.4-9.6c2.9-5.4,3.7-11.9,6.4-17.4
			c1.3-2.7,5.2-4.1,7.9-6c1.2,3.4,4.3,7.3,3.4,10C258.2,399.5,249.9,413.4,233,424.7z"/>
		<path id="XMLID_405_" d="M337.3,105.7c2.3-5.8,4.4-11.2,6.8-17.4c8.6,3.1,19.9,1.2,22.3,13.1c0.8,4-2.3,11.2-5.7,13.1
			C350.5,120.1,344.6,110.9,337.3,105.7z"/>
		<path id="XMLID_406_" d="M259.3,90.6c2.4,4.9,4.1,8.5,6.6,13.5c-5,4.1-9.9,8.8-15.5,12.4c-5.2,3.3-11.2,4.8-15.5-1.9
			c-4.5-7.1-0.7-12.3,5-15.7C245.8,95.5,252.7,93.4,259.3,90.6z"/>
		<path id="XMLID_407_" d="M514.9,473.9c-11.6-7.1-6.4-26.9,3.5-29.8c7.6-2.2,12.2,0.6,12.3,8.4C530.8,463,526.3,469.1,514.9,473.9z
			"/>
		<path id="XMLID_408_" d="M86.6,453.6c-0.1-8.2,3.7-11.3,11.6-9c2.2,0.7,4.7,2,6.1,3.8c5.4,6.6,6.5,14.1,2.2,21.5
			c-1.1,1.9-5,3.7-7.1,3.2C92,471.3,86.7,462.5,86.6,453.6z"/>
		<path id="XMLID_409_" d="M456.9,252.3c3.7,0.2,8.3-0.9,10.8,0.9c11,8,21.4,16.8,33.2,26.2c1.1-0.3,4.4-2.5,6.8-1.8
			c3.4,0.9,7.1,3.4,9,6.3c1.1,1.7-0.2,7.5-1.6,8c-3.3,1.1-7.5,0.6-11-0.3c-1.8-0.4-3.2-2.8-4.5-4.5c-10.3-13.8-23.3-24.1-38.8-31.4
			c-1.5-0.7-2.4-2.4-3.6-3.7C457.2,252,456.9,252.3,456.9,252.3z"/>
		<path id="XMLID_410_" d="M113.8,277.7c26.4-25.5,31.1-28.7,39.9-24.7c-3.7,2-6.7,3.2-9.1,5.1c-10,8.2-19.9,16.6-29.8,25
			c-1.4,1.2-2.1,3.7-3.6,4.1c-4.1,1.2-8.4,1.6-12.6,2.4c-0.6-3.4-2.5-7.3-1.4-10c2.1-5.1,6.7-7.1,12.3-4.4
			C110.9,276,112.2,276.8,113.8,277.7z"/>
		<path id="XMLID_411_" d="M453.9,564.6c-9.1-8-8.4-32.8,0.7-39.7c4.2-3.1,8.8-1.1,8.9,4.5c0.1,4.2-1.1,8.6-2.3,12.7
			C459.1,549.4,456.5,556.7,453.9,564.6z"/>
		<path id="XMLID_412_" d="M400.6,437.5c-2.8-2.3-5.7-4.5-9.1-7.3c2.4-1.1,4.2-2.7,6-2.7c6.3-0.2,12.6-0.3,18.8,0.4
			c2.6,0.3,5.6,2.3,7.4,4.4c2.3,2.7,3.3,6.6,5.4,9.5c1.9,2.7,4.7,4.8,6.2,9.1c-10.9-4-21.7-8.1-32.6-12.1
			C402.1,438.3,401.4,437.9,400.6,437.5z"/>
		<path id="XMLID_413_" d="M164.3,557.4c-2.7-8.6-5.9-17-7.6-25.6c-0.6-3,2.6-6.7,4.1-10.1c2.7,2.1,6.5,3.6,8,6.3
			C175.7,540.9,174.1,550.7,164.3,557.4z"/>
		<path id="XMLID_414_" d="M483.9,432.3c-2.5-2.6-5.4-5-7.3-8c-5.3-8.4-2.1-15.9,7.7-16.7c8.4-0.6,15.3-1.7,17.1-11.7
			c0.3-1.6,4.8-4.1,5.3-3.6c3,2.4,5.4,5.5,7.5,9.7c-7.3-3.8-10.2-0.9-12.6,5.1c-1,2.4-4.5,5.1-7.1,5.4
			C480,414.5,478.5,417.1,483.9,432.3z"/>
		<path id="XMLID_415_" d="M128.8,432.1c2.2-4.6,4.4-9.1,6.6-13.7c-3.9-1.7-7.9-3.1-11.6-5.1c-3-1.5-7.2-3.1-8.2-5.6
			c-2.3-6.3-5.5-8.6-12.6-4.2c-0.2-1-0.4-2-0.6-3c2.8-2.7,5.5-5.5,8.3-8.2c2.2,2.7,5.4,5,6.4,8c2.1,6.7,7.2,6.7,12.6,7.2
			c6.3,0.6,13,1.2,13.2,9.9C143.1,424.9,136.5,431.6,128.8,432.1C128.9,432.1,128.8,432.1,128.8,432.1z"/>
		<path id="XMLID_416_" d="M470,240.6c6.1-7,11.3-15.6,22.1-16c3.1-0.1,6.2,2.4,9.3,3.6c-1.9,2.8-3.1,7.1-5.7,8.1
			c-7.9,3-16.4,4.8-24.6,7C470.8,242.4,470.4,241.5,470,240.6z"/>
		<path id="XMLID_417_" d="M317.4,260.9c-0.3,10-3.8,13.7-10.5,13.7c-6.1,0-9.9-3.6-10.3-9.7c-0.3-6.6,3.8-11.4,9.9-10.7
			C310.9,254.6,314.8,259.1,317.4,260.9z"/>
		<path id="XMLID_418_" d="M446.4,419.7c-0.9,4.1-0.8,8.7-2.9,12c-1.2,1.9-7.7,3.3-8.6,2.2c-2.6-3.1-3.5-7.6-5-11.1
			c-3.3,0.5-7.8,1.1-12.3,1.7c-0.3-1.1-0.5-2.1-0.8-3.2c4.5-6.8,10.9-9.4,20.2-8.1c0.8,4.9,1.5,9.8,2.3,14.7c0.6,0,1.2,0,1.8,0.1
			c0.7-3,1.4-6,2-9C444.3,419.3,445.4,419.5,446.4,419.7z"/>
		<path id="XMLID_419_" d="M159.8,170.9c2.5-5.8,5-11.5,8.5-19.5c3.2,2.2,8.9,4.1,10.2,7.6c1.3,3.5-0.7,9.8-3.4,12.9
			c-4.8,5.5-10.6,2.3-15.6-1.2L159.8,170.9z"/>
		<path id="XMLID_420_" d="M87.5,438.9c-1.4-5.6-3.6-10.4-3.4-15.2c0.1-3.4,2.8-8.4,5.6-9.5c5.1-2.1,7.6,2,8.2,7.1
			C99.4,434.7,97.6,437.9,87.5,438.9z"/>
		<path id="XMLID_421_" d="M430.9,154.1c3.3-1.4,6.5-2.8,9.9-4.2c2.2,7,4.1,12.9,6.2,19.7c-3.4,4.9-8.7,5-13.7,1.2
			c-6.1-4.6-6.6-10.7-2.1-17C431.1,153.8,430.9,154.1,430.9,154.1z"/>
		<path id="XMLID_422_" d="M131,435.9c16.2-2,24.1,7.3,18.6,18.7c-4,8.3-9.6,15.7-14.8,23.4c-0.6,0.9-2.7,0.8-7.1,1.9
			c3.7-6.2,6.1-10.2,8.4-14.2c2.5-4.2,5.8-8.2,7.3-12.7C146,444.4,140.6,439.7,131,435.9z"/>
		<path id="XMLID_423_" d="M485.3,436c-13.3,6.2-15.3,13.8-7.6,24.8c3.6,5.2,7.2,10.4,10.8,15.6c-0.6,0.7-1.2,1.4-1.8,2.1
			c-1.7-0.6-4.2-0.6-5-1.8c-4.6-6.6-9.8-13.1-12.6-20.5c-1.9-4.8-1.9-11.8,0.3-16.3C471.8,434.4,478,432.2,485.3,436z"/>
		<path id="XMLID_424_" d="M529.2,440.6c-3.6-2.8-8.5-4.7-8.8-7.2c-0.8-5.8,0.3-12,1.6-17.9c0.2-1,6.2-2.1,7.9-0.9
			c2.2,1.6,3.9,5.5,3.7,8.3C533.1,427.9,531.2,432.9,529.2,440.6z"/>
		<path id="XMLID_425_" d="M371.6,98.4c8.9,6.6,11.3,14.7,6.2,21.4c-4.8,6.4-12.9,6.8-20.6,1.3c3.8-2.8,8.9-5,11.4-8.8
			C371,108.6,370.7,103.3,371.6,98.4z"/>
		<path id="XMLID_426_" d="M367.1,399.1c-1.9-2.1-3.9-4.2-6-6.5c-1.3,1.1-2.5,2.3-4.6,4.2c-2-6.1-4.3-11.5-5.3-17.2
			c-0.4-2.2,2.5-5,3.9-7.5c2.4,1.4,6,2.2,6.9,4.3c3.1,6.7,5.2,13.8,7.6,20.8C368.8,397.8,368,398.5,367.1,399.1z"/>
		<path id="XMLID_427_" d="M400.6,437.5c0.7,0.4,1.4,0.8,2.2,1.3c-0.9,3.6-1.5,10.3-2.7,10.4c-4.5,0.4-10.9,0.2-13.5-2.6
			c-4.4-4.8-6.5-11.7-10.6-19.6c5.9,1.3,7.5,3.6,13.8,15.8C393.5,440.9,397.1,439.2,400.6,437.5z"/>
		<path id="XMLID_428_" d="M467.8,172.9c-2.5,5.1-3.8,10.1-7,13.1c-1.8,1.7-8.9,1.6-9.6,0.2c-2.3-4.3-2.7-9.6-4.1-15.5
			C454.9,171.5,459.9,172,467.8,172.9z"/>
		<path id="XMLID_429_" d="M159.5,170.5c0.2,2.1,0.4,4.3,0.6,6.4c0.6,5.6,0.4,11.3-6.7,12.1c-6.8,0.7-10.2-3.6-11-10
			c-0.2-1.5,0.2-3,0.3-4.5c5.9-1.3,11.5-2.5,17.1-3.7C159.8,170.9,159.5,170.5,159.5,170.5z"/>
		<path id="XMLID_430_" d="M137.5,235.2c0,0-0.3-0.8-0.3-0.8c-0.9,1.5-2.1,4.3-2.6,4.2c-5.7-1.4-11.6-2.7-16.7-5.4
			c-2.3-1.3-3-5.7-4.4-8.8c3.6-0.4,8.2-2.4,10.7-0.9C129.3,226.4,133.2,231.2,137.5,235.2z"/>
		<path id="XMLID_431_" d="M156.6,146.6c4.9,7.1,5.3,13.2,0.3,18.6c-4.5,4.9-10.1,5-17,0.8C145.6,159.5,150.9,153.3,156.6,146.6z"/>
		<path id="XMLID_432_" d="M450.9,144.6c6.5,7.6,11.7,13.5,16.8,19.4c-0.4,1.1-0.8,2.3-1.3,3.4c-4.8-0.9-10.6-0.4-14.3-3
			C445.9,160.1,447.3,153.3,450.9,144.6z"/>
		<path id="XMLID_433_" d="M221.6,501.7c5.3-5.6,10.1-10.7,16.4-17.3c3.4,7,4,12.9-0.4,18.1C233.1,507.9,227.6,507.9,221.6,501.7z"
			/>
		<path id="XMLID_434_" d="M351,407.9c-6.6-2-11.8-3.1-16.5-5.2c-2.4-1.1-4.4-3.9-5.8-6.4c-0.4-0.7,2.4-4.2,3.8-4.3
			c3-0.2,7.2,0,9,1.8C345.1,397.4,347.3,402.2,351,407.9z"/>
		<path id="XMLID_435_" d="M387.3,418.5c1.2,1,3.2,2.8,6.1,5.4c-6.7,2.6-11.5,0-12.1-5c-0.6-4.8,2-10.1,3.7-14.9
			c0.2-0.5,5.1-0.3,6.3,1c1.3,1.4,1.5,4.7,0.8,6.7C391.4,414.1,389.1,416.1,387.3,418.5z"/>
		<path id="XMLID_436_" d="M230.3,100.9c-1.9,15,0.2,18.4,13.1,22.7c-7.1,3.9-13.8,4.5-18.1-2.9C221.4,114,222.1,107.1,230.3,100.9z
			"/>
		<path id="XMLID_437_" d="M318.1,234.4c-5.3,3.7-8.5,7.5-11.1,7.2c-2.7-0.3-6.2-4.5-6.8-7.5c-0.4-1.8,4.2-6.4,6.6-6.4
			C309.7,227.6,312.7,231,318.1,234.4z"/>
		<path id="XMLID_438_" d="M306.5,282.7c3.8,5.2,7.8,8.3,7.5,11c-0.3,2.8-4.7,5.2-7.3,7.8c-2.4-2.4-6.5-4.7-6.7-7.3
			C299.9,291.3,303.3,288.2,306.5,282.7z"/>
		<path id="XMLID_439_" d="M367.9,493.2c2.3,4.9,5,9.7,6.5,14.9c0.6,2.1-1.5,5-2.4,7.6c-2.3-1.7-6-3-6.5-5.2
			c-1.3-5.4-1.1-11.1-1.6-16.6C365.2,493.7,366.6,493.5,367.9,493.2z"/>
		<path id="XMLID_440_" d="M277.8,401.2c2.4-1.1,4.8-2.3,7.2-3.4c0.8,2.3,2.9,5.3,2.1,6.7c-3,5.8-7,11.1-11.1,17.5
			C271.3,413.6,274.3,407.4,277.8,401.2z"/>
		<path id="XMLID_441_" d="M182.6,431.8c-5.1,4.1-9.7,3.7-13-1.2c-3.9-5.8-1.7-11,3.8-16.2C176.6,420.4,179.4,425.8,182.6,431.8z"/>
		<path id="XMLID_442_" d="M256.9,493.9c-0.9,6.2-1.4,12.4-2.9,18.4c-0.4,1.5-3.9,2.2-5.9,3.3c-0.9-2-2.9-4.4-2.4-6
			c1.8-5.7,4.4-11.2,6.8-16.8C254,493.2,255.5,493.6,256.9,493.9z"/>
		<path id="XMLID_443_" d="M433.2,129.9c4.1,3.2,8.1,6,11.4,9.4c1.1,1.1,1,4.4,0.2,6c-0.6,1.1-3.5,1.9-5.1,1.5
			C432.8,145.1,430.4,139.2,433.2,129.9z"/>
		<path id="XMLID_444_" d="M175.4,130.8c3,8.8,0.4,14-6.1,17c-1.6,0.7-5-0.2-6-1.5c-0.9-1.2-0.4-4.8,0.7-6
			C167.2,137,171,134.4,175.4,130.8z"/>
		<path id="XMLID_445_" d="M345.5,499.4c1.7,4.8,3.8,9.4,4.9,14.4c0.3,1.5-2.1,3.7-3.3,5.5c-1.8-1.4-4.9-2.6-5.1-4.2
			c-0.7-5-0.2-10.1-0.2-15.1C343,499.8,344.3,499.6,345.5,499.4z"/>
		<path id="XMLID_446_" d="M278.3,500.6c0,5,0.4,10.1-0.2,15.1c-0.2,1.6-3.3,2.7-5.1,4.1c-1.1-1.9-3.4-4-3-5.5
			c1.1-4.9,3.2-9.5,4.9-14.2C276,500.2,277.2,500.4,278.3,500.6z"/>
		<path id="XMLID_447_" d="M442.8,182.2c9.1,11.3,12.4,11.9,24.2,4.6c-1.4,7.3-5.6,10.4-11.6,10.2
			C447,196.7,444.3,190.8,442.8,182.2z"/>
		<path id="XMLID_448_" d="M141,187.5c11.3,8.1,15.2,7.5,23.1-2.8c-0.3,8-3.9,13.2-10,13.6C147.6,198.7,142.7,196,141,187.5z"/>
		<path id="XMLID_449_" d="M430.9,154.1c0,0,0.2-0.3,0.3-0.3c-7.7,3.5-8.9,12.4-2.2,18.3c2.2,1.9,5.1,3.2,7.7,4.7
			c-0.5,0.9-1,1.7-1.5,2.6c-3.9-2.6-9.6-4.4-11.4-8c-2-4.1-1-10-0.3-15C423.6,155.3,428.3,154.9,430.9,154.1z"/>
		<path id="XMLID_450_" d="M372.6,417.5c-3.2-3.9-6.4-7.9-9.6-11.8c0.4-0.8,0.7-1.6,1.1-2.4c3,0.2,8-0.6,8.6,0.7
			c1.9,3.8,2,8.5,2.7,12.8C374.5,417,373.5,417.2,372.6,417.5z"/>
		<path id="XMLID_451_" d="M79.7,411.5c2.8-2.4,5.3-6.3,8.4-6.8c3.1-0.6,6.8,2.2,9.3,5.3c-5.2,0.9-10.5,1.8-15.7,2.7
			C81,412.3,80.3,411.9,79.7,411.5z"/>
		<path id="XMLID_452_" d="M170.8,178.7c13-7.1,14.7-11,10.8-24.3c6.6,5,6.5,10.9,4.1,16.8C183.2,177.2,178.5,179.9,170.8,178.7z"/>
		<path id="XMLID_453_" d="M519.1,407.6c3.3-1.3,6.9-4,9.8-3.4c3.3,0.6,5.9,4.3,7.5,8.3c-5.3-0.9-10.7-1.9-16-2.8
			C519.9,409,519.5,408.3,519.1,407.6z"/>
		<path id="XMLID_454_" d="M377.8,491.6c3.8,3,8.3,6.5,13.2,10.4C379.8,505.1,376,501.2,377.8,491.6z"/>
		<path id="XMLID_455_" d="M316.7,518.5c1.1-5.4,2.1-10.7,3.2-16.1c4,6.3,6.3,12.2,1.4,17.1C319.8,519.1,318.2,518.8,316.7,518.5z"
			/>
		<path id="XMLID_456_" d="M297,519.3c0-5.5,0-10.9,0-16.4c2-0.1,2.2-0.2,3-0.3c0.7,5.4,1.2,10.8,1.9,16.2
			C300.4,519,301,519.2,297,519.3z"/>
		<path id="XMLID_457_" fill="#FFFFFF" d="M273.5,620.5c0-1.2-0.2-2.5,0-3.7c1.4-5.7,2.2-16,4.4-16.3c9.1-1.4,18.6,0.2,28,0.9
			c1,0.1,2.1,1.4,2.7,2.4c4.6,6.9,3,35.3-2.5,41.4c-5.4,6.1-12.1,8-20.2,5.9c-7.9-2.1-11.1-7.6-12-14.8c-0.7-5.2-0.6-10.5-0.9-15.7
			C273.2,620.5,273.4,620.5,273.5,620.5z"/>
		<path id="XMLID_458_" fill="#FFFFFF" d="M315,619c0-0.6,0-1.2,0-1.9c0-17.9,2-19.8,20.2-19.2c8.5,0.3,13.4,3.6,13.9,12.5
			c0.5,8,1.6,16,1.7,24.1c0.1,9.9-4.6,14.3-15.6,15.9c-10.1,1.4-16.6-2.3-18.8-12c-1.4-6.3-1.4-12.9-2.2-19.3
			C314.5,619.1,315,619,315,619z"/>
		<path id="XMLID_459_" fill="#FFFFFF" d="M275.7,567.2c0.4-4.9,0.6-9.9,1.2-14.8c1-8.3,5.8-12.6,14.3-13
			c8.4-0.4,14.3,3.5,15.5,11.6c1.6,10.9,2.3,22.1,2.2,33.2c0,2.7-4.4,5.8-7.3,7.7c-1.8,1.2-4.8,0.7-7.3,0.7
			c-14.8,0-17.8-3-18.1-17.9c0-2.5,0-5,0-7.4C275.9,567.2,275.8,567.2,275.7,567.2z"/>
		<path id="XMLID_460_" fill="#FFFFFF" d="M327.6,593.4c-12.6-0.2-14.7-1.3-14.8-13.6c-0.1-9.8,1.3-19.9,3.9-29.3
			c1.1-3.9,7.3-9.1,11-9c4.9,0.2,12.6,4,13.9,8c3.6,11.1,4.8,23,6.2,34.7c0.2,1.9-3.2,5.3-5.6,6.2
			C337.5,592.1,332.5,592.5,327.6,593.4z"/>
		<path id="XMLID_461_" fill="#FFFFFF" d="M270.1,618.1c-0.5,6.7-1,11.6-1.3,16.6c-0.6,8.1-5.2,12.4-13.1,13.2
			c-8.5,0.8-16.8-4.1-17.3-11.9c-0.8-11.7,0-23.5,0.6-35.2c0.1-1.9,2.5-4.6,4.3-5.2c13.5-4.8,27.3,5.4,26.8,19.6
			C270.1,616.7,270.1,618.3,270.1,618.1z"/>
		<path id="XMLID_462_" fill="#FFFFFF" d="M386.3,623.8c-0.5,3.6-0.7,7.4-1.6,10.9c-2,7.7-8,10.7-15.3,11.2
			c-7.6,0.5-11.6-4.3-12.8-10.9c-1.9-10.7-3.3-21.4-4.2-32.2c-0.2-2.2,2.4-6.3,4.4-6.8c6.5-1.5,13.4-2.4,20-2.1
			c2.1,0.1,5.3,4.1,5.9,6.8C384.4,608.3,385.1,616,386.3,623.8z"/>
		<path id="XMLID_463_" fill="#FFFFFF" d="M273.5,563.4c-0.2,4.1-0.2,6.2-0.4,8.4c-1.5,16.3-12.8,22.4-27.2,14.3
			c-2.7-1.5-5.6-5.9-5.3-8.7c1-10.5,2.8-20.9,5.2-31.2c1.6-6.7,6.9-9.1,13.7-8.3c6.5,0.8,11.3,3.8,12.5,10.6
			C272.8,554,273.1,559.7,273.5,563.4z"/>
		<path id="XMLID_464_" fill="#FFFFFF" d="M349,556.6c0-2.8-0.2-5.6,0-8.4c0.6-7,5.2-11.8,11.4-11.1c4.6,0.5,11.3,4.5,12.5,8.5
			c3.2,9.9,5,20.7,5.3,31.1c0.3,10.5-9.9,9.5-16.6,11.3c-6.2,1.6-9.3-2.9-10.2-8.2c-1.4-7.6-2-15.4-3-23.1
			C348.7,556.6,348.9,556.6,349,556.6z"/>
		<path id="XMLID_465_" fill="#FFFFFF" d="M209.8,616.5c0.7-7.3,1.2-12.9,1.8-18.5c0.5-5.4,1.9-10.5,8.9-8.9
			c6.5,1.5,14.7,2,14.5,11.4c-0.2,9.6-0.7,19.4-2.5,28.8c-0.7,3.7-5.5,9.5-8,9.3c-4.4-0.4-10-3.7-12.1-7.5
			C209.7,626.7,210.3,620.4,209.8,616.5z"/>
		<path id="XMLID_466_" fill="#FFFFFF" d="M411.9,613.8c-0.4,4.4,0.3,9.9-1.8,14c-1.8,3.5-6.6,6.6-10.5,7.3
			c-2.2,0.4-7.1-3.9-7.8-6.8c-2.6-10.5-4.4-21.3-5.6-32c-0.9-8.1,6.5-7.9,11.6-9.2c5.1-1.3,9.6-0.1,10.8,5.8
			C410,599.6,410.8,606.4,411.9,613.8z"/>
		<path id="XMLID_467_" fill="#FFFFFF" d="M403.6,575.3c-2.8,2.1-5.5,5.6-8.6,5.9c-3.5,0.4-10.2-1.3-10.7-3.4
			c-3.1-12.3-5.1-24.8-6.6-37.4c-0.2-2,4.2-6.6,6.1-6.4c3.4,0.4,8.5,2.7,9.5,5.5C397.3,550.5,399.9,562,403.6,575.3z"/>
		<path id="XMLID_468_" fill="#FFFFFF" d="M240.8,550.8c-1.4,7.9-2.8,15.9-4.3,23.8c-1.2,6.2-5.3,7.9-11,7c-6.1-1-8.8-4.8-7.6-10.6
			c1.9-9.4,3.9-18.8,7.1-27.8c1.2-3.4,5.7-5.7,8.6-8.5c2.1,3.5,4.5,6.9,6.2,10.5c0.7,1.5,0.1,3.7,0.1,5.5
			C240.2,550.7,240.5,550.7,240.8,550.8z"/>
		<path id="XMLID_469_" fill="#FFFFFF" d="M196.4,567.6c2.4-11.6,3.9-21.1,6.7-30.3c0.9-2.9,6.3-6.9,8.2-6.3
			c3.3,1.1,7.9,5.8,7.6,8.5c-1.2,11.6-3.7,23.2-6.6,34.5c-0.4,1.7-6.6,4.1-7.9,3.2C201,574.6,198.6,570.3,196.4,567.6z"/>
		<path id="XMLID_470_" fill="#FFFFFF" d="M398.6,538.4c1.9-2.5,4.5-8,6.2-7.8c3.8,0.6,9.3,3.4,10.3,6.5c3,9,5.2,18.6,5.6,28.1
			c0.1,3.8-5.4,7.7-8.3,11.6c-2.6-2.9-6.6-5.4-7.6-8.8C402.2,558.9,400.8,549.3,398.6,538.4z"/>
		<path id="XMLID_471_" fill="#FFFFFF" d="M208.6,601c-0.5,5.2-0.6,11.5-2.1,17.5c-0.7,3-4.1,5.3-6.2,8c-2.5-2.3-7-4.6-7-6.9
			c-0.2-10.4,0.7-20.9,1.7-31.2c0.1-1.4,4.1-4.1,4.8-3.6c3.2,1.8,6.6,4.1,8.6,7.1C209.7,593.7,208.6,597.2,208.6,601z"/>
		<path id="XMLID_472_" fill="#FFFFFF" d="M429.5,608.2c0,0.9,0.3,2-0.1,2.8c-2.3,4.3-4.9,8.5-7.3,12.8c-2.5-3.8-6-7.3-7.2-11.5
			c-2-6.8-3.2-14-3.3-21.1c0-2.9,3.2-7,6-8.3c1.6-0.8,7,2.2,7.8,4.5c2.4,6.6,3.3,13.8,4.9,20.7C430.1,608.1,429.8,608.1,429.5,608.2
			z"/>
		<path id="XMLID_473_" fill="#FFFFFF" d="M411.3,368.9c10.2-16.9,24.4-23.2,42.1-24.1c3.3-0.2,7.8-4.3,9.1-7.6
			c1-2.6-2.1-6.8-3.5-10.3c-1-2.3-2.2-4.5-3.3-6.7c2.8-0.5,5.9-1.9,8.4-1.2c9.7,2.6,12.8,8.9,11.3,19.1c-0.7,4.8,0.6,9.8,0.4,14.7
			c-0.2,5-1.3,10-2.3,17.7c-9.5-8.9-17.3-11.9-26.2-6.3c-0.2,0.2-0.6,0.2-0.9,0.2c-6-0.6-12.2-2.3-18-1.6
			C422.9,363.4,417.6,366.5,411.3,368.9z"/>
		<path id="XMLID_474_" fill="#FFFFFF" d="M499.3,333c-6.9,11.5-5.3,28.6-20.5,36.2c0.6-12.6,2-25.1,1.3-37.4
			c-0.2-4.7-5-9.4-8.1-13.7c-2-2.7-4.9-4.7-7.4-7.1c3.9-3.6,7.2-8.8,11.8-10.5c8.8-3.2,12.6,0.3,15,9.6
			C493.4,317.6,496.4,324.8,499.3,333z"/>
		<path id="XMLID_475_" fill="#FFFFFF" d="M465,304.2c-5.7-9.5-13.9-11.2-24-8.6c-2.1-7.3-7.1-16.6,1.6-19.7
			c7.1-2.6,18.7-1.3,24.7,3.2C475.3,285,473.1,297.3,465,304.2z"/>
		<path id="XMLID_476_" fill="#FFFFFF" d="M437.2,343.3c3.3-6.5,6.7-12.6,9.6-19.1c2.5-5.8,2.6-11.4-3.5-15.8
			c-1.6-1.1-3.2-4.5-2.6-5.9c0.7-1.8,3.7-3.5,5.8-3.6c8.3-0.3,13.3,3.8,15.2,12.7c-5.9,3.7-14.8,5-9.7,16
			C454.2,332.6,443.4,342.9,437.2,343.3z"/>
		<path id="XMLID_477_" fill="#FFFFFF" d="M421.9,367.8c4-0.6,8.8-3,11.7-1.6c7.6,3.7,14.1,2.3,21.2-0.7c2.3-0.9,5.3,0.1,8,1.8
			C449.3,368.3,436.2,377.3,421.9,367.8z"/>
		<path id="XMLID_478_" fill="#FFFFFF" d="M410.1,359.7c-0.7-6.7-1.4-12.6-2.1-19.6C419.3,349.6,419.4,351.2,410.1,359.7z"/>
		<path id="XMLID_479_" fill="#FFFFFF" d="M433.1,338.6c-0.8-4.8-1.5-9.7-2.4-15.4c4,0.6,7.1,1.1,11.4,1.7
			c-2.6,5.1-4.9,9.6-7.2,14.1C434.4,338.8,433.8,338.7,433.1,338.6z"/>
		<path id="XMLID_480_" fill="#FFFFFF" d="M437.4,321.4c-2.8-3-4.8-5.1-6.8-7.3c2.2-1.1,4.7-3.4,6.6-3c2.4,0.4,4.5,3,6.7,4.7
			C442.2,317.4,440.4,318.9,437.4,321.4z"/>
		<path id="XMLID_481_" fill="#FFFFFF" d="M212,313.4c4.1-8.6,11.5-10.3,20.1-9.8c12.1,0.7,19.4,9.6,17.3,21.5
			c-0.5,2.7-1.2,5.6-2.4,8c-3.9,7.7-3.1,14.2,3.7,19.8c-4.3-1.4-8.6-3.2-13-4.2c-1.8-0.4-5.1,0.1-5.6,1.1
			c-4.4,9.4-12.9,8.2-23.8,9.1c3-9.9,4.9-19,8.6-27.2C220.6,323.5,215.7,318.9,212,313.4z"/>
		<path id="XMLID_482_" fill="#FFFFFF" d="M204.1,368.4c-5.9-2.2-10.3-4.6-15-5.4c-4.9-0.9-10.1-0.3-15.2-0.1c-1.8,0.1-4,1.6-5.3,1
			c-8.3-4.1-15.9-4.7-23.4,1.9c-0.4,0.3-6-3.2-6.1-5.2c-0.7-10.4-1.1-21,0-31.3c0.4-3.6,5.1-7.7,8.9-9.8c2.8-1.6,7.2-0.3,10.9-0.3
			c-1.5,2.6-2.5,5.7-4.5,7.9c-6,6.6-3,15.2,6.5,17.4c4.5,1,9.3,0.7,13.9,1.6C187.5,348.5,196,356.9,204.1,368.4z"/>
		<path id="XMLID_483_" fill="#FFFFFF" d="M136.3,369c-15.4-7.7-13.9-25.2-20.6-36.5c2.9-8.8,5.8-17,8.2-25.2
			c2.4-8.4,12.4-11.2,18.8-5.1c1.8,1.7,4.5,3.1,5.2,5.2c0.8,2.3,0.6,7-0.6,7.5c-12.2,5.6-14.5,14.1-11.4,26.8
			C138,350.2,136.3,359.8,136.3,369z"/>
		<path id="XMLID_484_" fill="#FFFFFF" d="M178,342.8c-7-0.2-15.9-10.6-15-17c1.4-9.5,1.2-9.8-8.6-13.7c0.2-9.8,7.7-16,16.1-13.3
			c4.7,1.5,6.5,5.5,2.5,8.1c-10.2,6.6-6.3,14.3-2.8,22C172.4,333.6,175.3,338,178,342.8z"/>
		<path id="XMLID_485_" fill="#FFFFFF" d="M193.1,369.7c-14.2,6.6-27.6-2.2-41.5-0.9c0.1-1.3,0.1-2.6,0.2-3.9
			c3.7,0.3,7.3,0.6,11,0.7c5.3,0.2,10.6,0.2,15.9,0.3c5,0.2,10,0.5,14.9,0.7C193.5,367.7,193.3,368.7,193.1,369.7z"/>
		<path id="XMLID_486_" fill="#FFFFFF" d="M172.1,324.4c4.9-0.9,7.9-1.5,11.8-2.2c-0.7,5.4-1.3,10.4-2.2,17.9
			C178,334.1,175.4,329.8,172.1,324.4z"/>
		<path id="XMLID_487_" fill="#FFFFFF" d="M207.2,339.3c-1,7.6-1.8,13.3-2.6,19.4C195.2,350.9,195.4,348.9,207.2,339.3z"/>
		<path id="XMLID_19_" fill="none" d="M172.6,322.8c-0.6-2.4-2.4-5.5-1.5-7c1.4-2.5,4.4-4.8,7.1-5.5c1.5-0.4,3.9,2.5,6,3.9
			c-2.3,2-4.7,4-7,6C175.7,321.1,174.1,321.9,172.6,322.8z"/>
		<path id="XMLID_490_" fill="#FFFFFF" d="M283.7,697.7c-20-15.7-26.5-17.7-57.8-17.8c4.5-7.2,11.2-7.2,17.9-6.9
			C261.2,673.8,276,682.5,283.7,697.7z"/>
		<path id="XMLID_491_" fill="#FFFFFF" d="M393.3,680.8c-22.9-2.4-42.2,0-58.6,15.1C340.8,676.3,375.3,666.4,393.3,680.8z"/>
	</g>
</g>
</svg>
