<?xml version="1.0" encoding="utf-8"?>
<!-- Generator: Adobe Illustrator 19.0.0, SVG Export Plug-In . SVG Version: 6.00 Build 0)  -->
<svg version="1.1" id="Layer_1" xmlns="http://www.w3.org/2000/svg" xmlns:xlink="http://www.w3.org/1999/xlink" x="0px" y="0px"
	 viewBox="107 -218 576 720" style="enable-background:new 107 -218 576 720;" xml:space="preserve">
<style type="text/css">
	.st0{fill:#010101;stroke:#FFFFFF;stroke-width:3;stroke-miterlimit:10;}
	.st1{fill:#FFFFFF;}
	.st2{fill:none;}
</style>
<g id="XMLID_315_">
	<g id="XMLID_316_">
		<path id="XMLID_317_" class="st0" d="M334.9,502c0-41.1,26.7-73.5,59.6-73.5s59.6,32.3,59.6,73.5H334.9z"/>
		<path id="XMLID_318_" class="st0" d="M394.6,467.2"/>
		<polygon id="XMLID_319_" class="st0" points="454.2,502 681.4,502 681.6,428.5 		"/>
		<polygon id="XMLID_320_" class="st0" points="430.3,443.1 680.7,-77.6 680.7,-197 		"/>
		<polygon id="XMLID_321_" class="st0" points="446.7,467.3 680.7,200.4 680.7,123.2 		"/>
		<polygon id="XMLID_322_" class="st0" points="451.6,482.8 680.7,280.1 680.7,362.2 		"/>
		<path id="XMLID_323_" class="st0" d="M438.2,451.1L681.4,81.2c0,0,2.9-109.5,0.9-112.8C680.3-34.9,438.2,451.1,438.2,451.1z"/>
		<polygon id="XMLID_324_" class="st0" points="357.7,443.1 107.2,-197 107.2,-77.5 		"/>
		<polygon id="XMLID_325_" class="st0" points="334.9,502 106.9,502 106.9,430.2 		"/>
		<polygon id="XMLID_326_" class="st0" points="334.9,482.8 107.2,363.8 107.4,280.1 		"/>
		<polygon id="XMLID_327_" class="st0" points="341.3,468.1 107.4,202.9 107.2,123 		"/>
		<polygon id="XMLID_328_" class="st0" points="350.8,451.1 107.4,81.8 107.2,-26.1 		"/>
		<polygon id="XMLID_329_" class="st0" points="140.2,-216.9 236.2,-216.9 371.3,434.9 		"/>
		<polygon id="XMLID_330_" class="st0" points="269.4,-216.9 367.2,-216.9 389.1,429.1 		"/>
		<polygon id="XMLID_331_" class="st0" points="404.3,-218 494.4,-217.7 404.3,428.3 		"/>
		<polygon id="XMLID_332_" class="st0" points="526.8,-216.9 622.8,-216.9 419.7,434.9 		"/>
	</g>
	<g id="XMLID_333_">
		<path id="XMLID_334_" class="st1" d="M136.5,220.5l-21.6-76.9l16.7-34c0,0,12.1-122.6,50.3-179.6s202.9-94.8,202.9-94.8
			s78,6.7,146.7,39.4S645.3-5.6,645.3-5.6l26.5,148.4l-17.6,74.5l-51.7,14.7l7.8,125.4c0,0-51.2,83.1-123.5,105.1
			c-72.4,22-100.2,17.8-174.6-2.1C238,440.5,191,364,191,364l14.5-104.4L136.5,220.5z"/>
		<path id="XMLID_335_" d="M495.5,377.4c-14.2,13.5-23.4,14.9-44,7c-13.4,9.4-28,11-44.3,5c-2.6-0.9-6.6-0.2-9.6,0.8
			c-14.1,5-27.6,6.6-41.3-1c-2-1.1-5.9-0.7-8.6,0c-16.9,4.7-27.1,2.4-38.6-9.3c-12.5,4-23,3-32.1-6.7c-5.4-5.7-17.4-8.2-20.5-14.2
			c-5.8-10.9-8.9-23.3-9.9-35.2c-1-11.8,1.5-23.8,3.1-35.7c0.3-3,2-6.5,4.5-8.5c8.7-6.9,18.3-13.3,26.7-19.4
			c8.6,0.8,18.8,0.8,28.2,2.8c12.9,2.7,26.4,0.6,38.7,3.1c8.3,1.7,14.9,2.3,23.3,0.7c11.3-2.2,22.5-0.5,31.6,6.7
			c10.6-5.3,21.3-8.9,33.6-3.6c1.4,0.6,4.3,0,5.7-0.8c8.3-5,17-4.4,26.9-3.8c10.3,0.6,21-1.6,31.3-3.4c8.2-1.5,15-0.8,21,4.1
			c8,6.7,16.2,13.4,24.1,20.2c1.9,1.7,4.1,3.9,4.2,6c1.2,17.9,3.5,36,2.2,53.8c-0.7,10.7-6.8,21.2-24.1,22.2
			c-1.4,0.1-2.9,1.6-4.1,2.6C515.8,377.9,506.7,380.8,495.5,377.4z M357.6,354.3c-0.2,0-0.3,0-0.6,0c0.3,4.9,0.2,9.8,1,14.7
			c1.2,6.7,4.9,11.9,14,13.8c9.4,2,17.3,0.2,23.6-5.5c6.4-5.8,8.3-32.3,2.9-38.7c-0.8-0.9-2-2.2-3.1-2.2c-11-0.7-22-2.2-32.7-0.8
			c-2.7,0.4-3.6,9.9-5.1,15.2C357.4,351.9,357.6,353.1,357.6,354.3z M406,352.9c0,0-0.6,0-0.8,0.1c0.8,6,0.9,12.2,2.6,18
			c2.6,9.1,10,12.5,21.8,11.2c12.8-1.4,18.3-5.6,18.2-14.9c-0.1-7.5-1.4-15-2-22.5c-0.6-8.3-6.2-11.4-16.1-11.7
			c-21.2-0.5-23.6,1.2-23.6,17.9C406,351.8,406,352.3,406,352.9z M360.2,304.5c0.1,0,0.2,0,0.3,0c0,2.3,0,4.7,0,6.9
			c0.3,13.9,3.8,16.7,21.1,16.7c2.9,0,6.4,0.5,8.5-0.7c3.5-1.9,8.5-4.8,8.5-7.2c0.1-10.4-0.7-20.8-2.6-31
			c-1.4-7.6-8.2-11.2-18.1-10.8c-9.8,0.4-15.4,4.4-16.7,12.2C360.9,295.2,360.6,299.9,360.2,304.5z M420.7,329
			c5.7-0.8,11.5-1.2,16.9-2.8c2.8-0.8,6.9-4,6.5-5.8c-1.6-10.9-3-22.1-7.2-32.4c-1.5-3.7-10.5-7.4-16.2-7.5
			c-4.3-0.1-11.5,4.8-12.8,8.4c-3,8.8-4.7,18.2-4.5,27.4C403.6,327.7,406,328.8,420.7,329z M353.6,352.1c0,0.1,0-1.3,0-2.8
			c0.5-13.3-15.5-22.8-31.3-18.3c-2.2,0.7-4.9,3.2-5,4.9c-0.7,10.9-1.6,22-0.7,32.9c0.7,7.4,10.3,11.9,20.2,11.1
			c9.2-0.7,14.6-4.7,15.3-12.3C352.5,362.9,353.1,358.3,353.6,352.1z M489.2,357.4c-1.4-7.3-2.2-14.6-4.3-21.6
			c-0.7-2.5-4.4-6.4-6.9-6.4c-7.8-0.3-15.7,0.6-23.3,2c-2.3,0.5-5.4,4.2-5.1,6.4c1,10.1,2.7,20.2,4.9,30.1
			c1.4,6.3,6.1,10.8,14.9,10.2c8.5-0.5,15.5-3.3,17.8-10.5C488.4,364.3,488.6,360.8,489.2,357.4z M357.6,300.9
			c-0.5-3.5-0.7-8.8-1.9-13.9c-1.4-6.4-7-9.2-14.6-9.9c-7.9-0.7-14.2,1.5-16,7.8c-2.8,9.6-4.9,19.4-6.1,29.2c-0.3,2.6,3,6.7,6.2,8.1
			c16.9,7.6,30.1,1.9,31.7-13.4C357.3,306.7,357.4,304.8,357.6,300.9z M445.7,294.6c-0.2,0-0.5,0-0.7,0.1c1.2,7.2,1.9,14.5,3.5,21.6
			c1.2,5,4.7,9.2,11.9,7.7c7.8-1.7,19.7-0.7,19.4-10.6c-0.3-9.8-2.4-19.8-6.2-29.1c-1.5-3.6-9.2-7.5-14.6-7.9
			c-7.3-0.7-12.7,3.8-13.3,10.4C445.6,289.2,445.7,291.9,445.7,294.6z M283.3,350.6c0.6,3.6-0.1,9.4,2.8,13.6
			c2.4,3.6,9.1,6.7,14.1,7c2.9,0.2,8.5-5.2,9.3-8.7c2.1-8.8,2.7-17.9,2.9-26.9c0.2-8.9-9.3-9.3-16.9-10.7c-8.2-1.5-9.7,3.3-10.4,8.3
			C284.7,338.5,284.1,343.7,283.3,350.6z M519,348c-1.3-7-2.2-13.4-3.8-19.5c-1.4-5.5-6.6-6.6-12.6-5.4c-5.9,1.2-14.6,1-13.5,8.6
			c1.4,10.1,3.5,20.1,6.5,29.9c0.8,2.7,6.5,6.7,9.1,6.4c4.5-0.7,10.1-3.6,12.2-6.8C519.4,357.3,518.6,352.1,519,348z M509.3,312
			c-4.3-12.3-7.3-23.1-12-33.5c-1.2-2.5-7.1-4.8-11.1-5.1c-2.2-0.2-7.3,4.1-7.1,6c1.7,11.8,4.1,23.5,7.7,35
			c0.6,1.9,8.3,3.5,12.5,3.2C502.9,317.3,506.1,314,509.3,312z M319.5,289.1c-0.3,0-0.6-0.1-0.9-0.1c0-1.8,0.7-3.7-0.1-5.1
			c-2.1-3.5-4.8-6.5-7.2-9.8c-3.5,2.6-8.6,4.8-10,7.9c-3.7,8.4-5.9,17.3-8.3,26c-1.4,5.4,1.7,9,8.9,9.9c6.6,0.8,11.4-0.7,12.8-6.5
			C316.2,303.9,317.7,296.5,319.5,289.1z M267.7,304.8c2.6,2.6,5.4,6.5,9.4,9c1.5,0.8,8.6-1.3,9.2-3c3.4-10.7,6.3-21.4,7.7-32.3
			c0.3-2.5-5.1-6.9-8.9-7.9c-2.3-0.6-8.5,3.2-9.6,5.9C272.2,285,270.6,294,267.7,304.8z M503.5,277.5c2.6,10.2,4.2,19.2,7.2,27.7
			c1.2,3.2,5.7,5.5,8.9,8.2c3.4-3.6,9.8-7.4,9.7-10.8c-0.5-8.9-2.9-17.9-6.5-26.3c-1.2-2.9-7.6-5.5-12-6.1
			C508.8,270.1,505.7,275.2,503.5,277.5z M281.9,336.1c0-3.6,1.2-6.8-0.2-8.6c-2.3-2.8-6.2-5-10-6.6c-0.9-0.4-5.5,2.1-5.6,3.4
			c-1.2,9.7-2.2,19.4-2,29.2c0,2.2,5.4,4.3,8.2,6.5c2.6-2.4,6.4-4.7,7.2-7.5C281.2,346.8,281.3,340.9,281.9,336.1z M539.6,342.8
			c0.3-0.1,0.7-0.1,0.9-0.2c-1.7-6.5-2.9-13.2-5.7-19.4c-0.9-2.2-7.2-5-9.1-4.2c-3.3,1.2-7,5-7,7.8c0.1,6.6,1.5,13.4,3.8,19.7
			c1.4,3.9,5.5,7.2,8.4,10.8c2.9-4,5.8-7.9,8.5-12C539.9,344.7,539.6,343.6,539.6,342.8z"/>
		<path id="XMLID_353_" d="M158.9-40.5c6.1,5.3,5.8,10.5,2.2,17.2c-24.7,45.8-27.6,93.7-18.1,142.4c0.9,5,2.1,10.1,1.3,15.7
			c-2.1-3.3-4.3-6.5-6.2-9.8c-1.9-3.4-3.4-6.9-5.6-11.7c-13.4,15.6-16.9,31.3-7,47c6.9,11,9.1,22.1,7.7,33.7c-3,24,23,38,48.5,33.6
			c16.2-2.8,32-7.7,47.6-12.3c18.7-5.6,37.3-9.8,57.4-6.2c1.4,0.3,3.1,0.1,4.2,0.7c7.8,4.5,18.8,7.9,21.9,14
			c1.7,3.4-9.3,11.1-15.9,16.5c-3.1-8.7,1.6-19.4-10.7-23.7c-7-2.4-15.5-2-24.4-2.9c7,11.7,12.8,21.1,18.3,30.8
			c3.4,5.8,1.3,10.5-4.7,14.8c-7.9,5.7-15.3,12-23,18.1c-1.9-9.3-2.9-17.9-5.5-26.2c-1.4-4.7-4.8-9.1-8.2-13.2
			c-9-10.9-9.6-10.9-24.3-5.6c-6.5,2.3-13.3,4.5-20.9,7.1c15.2,24.2,16.1,49.5,9.8,75.1c-1.3,5.3-6.4,10.1-9.8,15.1
			c-0.9-0.4-1.7-0.7-2.7-1.1c2-13,4.4-25.9,5.9-38.9c1.6-14.9-2.3-28.9-10.1-42.4c-3.3-5.6-7.6-7.5-15.4-8.7
			c-12.1-2-24.7-5.1-34.9-10.6c-13.3-7-14.3-19.1-13.9-31.3c0.3-8.7-0.2-18.5-4.9-26.1c-13.6-22-8.5-41.6,6.4-61.2
			c2.8-3.7,4.1-9.3,3.4-13.6c-7.7-45.4-2-89.6,20.5-131.9c2-3.8,3.5-8.3,10.6-4.6C158.6-40.8,158.8-40.7,158.9-40.5z"/>
		<path id="XMLID_354_" d="M158.9-40.5c-0.1-0.2-0.2-0.3-0.3-0.5c-5.2-3.7-3.8-7.6-0.7-11.7c47.5-62.8,115.2-103.1,207-111
			c109-9.3,193.5,26.7,254.5,99.2c3,3.6,5.4,7.6,7.8,11.5c7,10.9,6.9,11-6.2,18.6c-49.5-70.9-120.4-116.9-225.7-117.3
			c-105.5-0.5-176.3,46-228.9,116.1C164.1-37,161.4-38.8,158.9-40.5z"/>
		<path id="XMLID_355_" d="M556.5,155.4c0-7.7,0-13.5,0-20.6c3.5,2.2,7.8,4.1,11.5,5.8c7.2-5,14.5-11.1,23-15.8
			c-23.9,0-46.7,0-68.9,0c1.6,2.8,1.6,3.5,26.9,10.7c-8.7,2.4-24.5-1.1-30.3-6c-4.2-3.5-9.1-6.5-14.3-10.3c0.3-0.4,1.7-2.2,3.3-4.1
			c-6.5-1.3-12.6-2.3-18.4-3.7c-2-0.5-3.8-1.9-6.3-2.2c10.6,24.7,36.3,29.6,65.4,31.5c0,4.7,0,8.8,0,13.8
			c-4.7-0.7-11.4-1.3-16.7-1.9c-0.1-0.4,0-0.7-0.1-1.1c2.9-0.5,5.9-0.9,9-1.3c0.1-0.8,0.1-1.8,0.2-2.6c-4.8,0-9.6,0.2-14.2,0
			c-5.4-0.2-12.2,0.8-16-1.4c-14.9-8.7-29.7-17.6-42.8-28c-12.2-9.7-11.2-10.6,3-20.8c0.5,1.1,1,2.8,1.3,2.8
			c14.8-2.3,21.8,14.7,40.2,8.1c-3-7.7-5.6-16.4-9.9-24.4c-4.8-8.7,2.7-13.4,9.3-18.9c-0.6,2.2-0.3,5.1-2,6.7
			c-5.5,5.1-2.9,9.1,1.9,12.8c6.4,5,13.2,9.7,20.1,14.8c9-3.2,9.2-5.8,4.5-12.5c-4.4-6.3-7-13.6-9.3-20.6c-1.6-5-1.3-10.5-1.7-15.7
			c1-0.1,2.2-0.3,3.3-0.4c1.7,10.5,3.4,20.9,5.1,31.3c1.2-0.1,2.2-0.1,3.4-0.2c-0.7-8.3-6.9-18.3,11.5-21.2
			c-2.7-7.2-5.1-13.9-7.8-21.5c5.8-5.2,12.7-11.9,20.4-17.9c2.2-1.8,7.5-3,10.1-2.1c28.2,9.8,52.9,22.9,59.9,49.1
			c7.5,27.8-0.6,52.4-27.5,71.4c-8.4,6-19.2,9.6-30,14.8c-0.7-3.6-0.6-5-0.9-7.4C567.1,149.6,562.3,151.9,556.5,155.4z M518.3,119.1
			c7.3-2.2,13.5-5.1,20.1-5.8c6.9-0.7,14,0.9,21,1.5c0.3,0,0.8,0,1-0.2c10.4-5.1,19.4-2.4,30.6,5.9c1.2-7.2,2.3-11.9,2.7-16.5
			c0.2-4.6-1.3-9.3-0.5-13.7c1.7-9.5-1.9-15.4-13.2-17.9c-2.9-0.7-6.5,0.7-9.8,1.1c1.3,2.1,2.8,4.1,3.8,6.3c1.6,3.2,5.2,7.2,4.1,9.6
			c-1.5,3.1-6.8,7-10.6,7.1C546.8,97.4,530.2,103.3,518.3,119.1z M621,85.5c-3.4-7.7-6.9-14.4-9.1-21.3c-2.8-8.7-7.2-12-17.5-9
			c-5.4,1.6-9.2,6.5-13.8,9.8c2.9,2.2,6.3,4.1,8.6,6.6c3.7,4,9.2,8.4,9.4,12.8c0.8,11.6-0.9,23.3-1.5,35
			C614.8,112.3,612.9,96.3,621,85.5z M581,58.6c9.3-6.5,11.9-17.9,2.7-23.5c-7-4.2-20.5-5.4-28.8-3c-10,3-4.3,11.7-1.9,18.4
			C564.7,48.1,574.3,49.7,581,58.6z M548.5,95.2c7.2-0.4,19.7-10.1,17.1-14.7c-5.9-10.3,4.4-11.5,11.3-15c-2.1-8.2-8-12.2-17.7-11.9
			c-2.4,0.1-5.8,1.7-6.8,3.4c-0.7,1.3,1.2,4.5,3,5.5c7.1,4.1,7.1,9.3,4.1,14.8C556.5,83.4,552.4,89.2,548.5,95.2z M530.7,118.1
			c16.7,8.9,32,0.5,47.8-0.4c-3.1-1.6-6.8-2.5-9.3-1.7c-8.3,2.8-15.9,4.1-24.7,0.7C541,115.3,535.4,117.5,530.7,118.1z M516.9,110.5
			c10.8-7.9,10.7-9.4-2.4-18.3C515.3,98.6,516.1,104.2,516.9,110.5z M543.8,90.8c0.7,0.1,1.4,0.2,2.1,0.3c2.7-4.2,5.4-8.4,8.4-13.2
			c-5-0.6-8.7-1-13.3-1.6C542,81.7,542.9,86.3,543.8,90.8z M548.8,74.7c3.5-2.4,5.6-3.8,7.6-5.2c-2.6-1.6-5-4-7.8-4.4
			c-2.3-0.3-5.1,1.8-7.7,2.8C543.2,69.9,545.5,72,548.8,74.7z"/>
		<path id="XMLID_365_" d="M603.6,334.9c-14.8-34-16.6-68.2-1.2-103c-8.3-2.7-16.3-5.9-25-7.9c-3-0.7-8.3,1.2-10.5,3.4
			c-12.6,11.7-18.3,25.6-18.9,40.9c-0.2,5,0,9.8,0,14.9c-25.4-9.3-35.2-26.4-25.8-46.3c3.8-8,9.6-15.4,15-24.2
			c-6.2-0.6-12.2-1.8-18.1-1.4c-8.9,0.6-14.6,4.4-15.4,12.2c-0.6,6.3-2.1,12.3-3.3,18.6c-1,0.4-2.2,0.7-3.3,1
			c-5.4-4.5-11.1-8.6-15.9-13.5c-1.4-1.4-0.5-5,0.7-7.1c6.5-11,18.3-17.6,33-16.6c17.1,1,34.3,4.2,51,7.7
			c15.4,3.2,30.1,8.4,45.5,11.9c24.1,5.4,54.2-7.5,52.8-34.1c-0.7-13.6,4.5-27.5,7-41.3c2.8-16.1-2.6-30.3-15.3-44.2
			c-2.9,8.5-5.4,15.6-7.7,22.7c-0.6-0.1-1.2-0.2-1.7-0.3c0.8-10.6,1.6-21,2.3-31.6c2.7-42.2-4.3-83.1-24.8-122.3
			c-4.4-8.5,4.7-10.2,9.8-15.3c11.7,20.6,20.2,40.9,22.7,62.4c2.6,21.9,1.6,44.1,2.7,66.2c0.2,4.7,1,10,4.1,13.8
			c16.7,20.6,21.3,42.1,11.9,65.8c-3.3,8.3-3,17.9-2.9,26.7c0.3,22.3-18.5,39.4-46.5,39.3c-11.1-0.1-15.3,3.3-18,10.9
			c-8.3,23.2-9.1,46.5-2.4,70c2.1,7.4,3.7,14.8,5.8,23.3c-3.6-1.2-6.1-2-8.5-2.8C603.1,334.7,603.6,334.9,603.6,334.9z"/>
		<path id="XMLID_366_" d="M331.5,104.8c0.2,2.4,1.9,5.6,0.5,7.1c-16.2,19-37.9,32.3-66.8,39.7c2.3-8.4,4.1-14.3,14.9-17.2
			c15.7-4.3,28.1-12.6,32.3-26.1c-8.5,2.2-16.4,4.3-25.4,6.6c1,1.4,2.3,3,2.7,3.6c-13.8,10.4-27.9,19.4-48.2,18.1
			c0.2,0.9,0.5,1.9,0.7,2.8c3.6,0,7.2,0.1,10.8,0c4-0.1,7.9-0.4,13.1-0.6c-2.1,6.1-0.3,12.9-10.8,14.2c-14,1.9-14,1.9-21.8-17.3
			c7.3-1.2,14.7-1.6,21.9-3c7.1-1.4,15.2-3.3,17.6-7.9c-22.9,0-45.4,0-68,0c8,10.3,29.9,12.5,32,28.9c-13.9,0.7-25.9-2.7-36.5-8.6
			c-31.7-17.5-43.4-42.3-38.5-72.3c4.7-27.8,28.7-42.8,58-53.5c10.8-4,11.5,6.6,18.5,9c-13.2,2.5-29.9-1.5-32.7,14.9
			c-0.9,5.8-1.5,11,6.9,14.2c7.3-6.8,16-11.1,28.8-7c1.7-6.3,3.3-12.1,4.9-17.9c10.1,8.6,0,17.8,0.7,27.2
			c16.7,2.1,11.5,12.1,10.6,20.5c1.2,0,2.3,0.1,3.6,0.1c1.4-9.1,2.8-18.2,4.3-28.7c1.6,2.1,2.7,2.8,2.7,3.5
			c-0.7,11.4,1.9,23.4-10.6,32.6c-1.9,1.4-1,7.4,1.2,9.6c4.2,4.1,6.9,0.2,9.8-2.6c3.4-3.3,7.5-6.3,11.5-9.1
			c6.4-4.5,12.9-8.7,3.1-15.3c-0.1,0,1.9-2,2.9-3.1l-0.3-0.2c4.3,5.1,10,9.4,5.7,17.1c-4.3,7.7-6.5,16.2-10,25.4
			c12.8-0.8,22.7,0.3,27.8-8.5c0.6-1,4.4-1.4,6.5-1c5.1,0.9,10.1,2.6,15.2,3.9C331.3,104.5,331.5,104.7,331.5,104.8z M276.7,118.6
			c-9.4-10.8-19.4-18.5-34.1-20.8c-5.4-0.8-11-0.6-16.2-1.5c-11.1-2-14.5-10-7.6-16.3c2.3-2.1,3.5-4.9,5.2-7.4
			c-4.3,0-9.4-1.2-12.7,0.3c-4.3,2-9.9,5.7-10.4,9.2c-1.4,9.6-0.8,19.5,0,29.3c0.1,1.8,6.8,5.1,7.1,4.9c8.6-6.2,17.6-5.6,27.3-1.8
			c1.5,0.6,4.1-0.8,6.2-0.9c5.9-0.2,11.9-0.7,17.7,0.1C264.7,114.3,269.8,116.6,276.7,118.6z M197.6,119.2c0-8.6,2-17.6-0.5-25.6
			c-3.6-11.9-0.9-19.8,13.3-25.1c1.4-0.5,1.6-4.9,0.7-7c-0.8-2-4-3.2-6.1-4.9c-7.5-5.7-19.1-3.1-21.9,4.8
			c-2.8,7.8-6.2,15.3-9.6,23.6C181.4,95.6,179.6,112,197.6,119.2z M246.2,94.7c-3.1-4.4-6.5-8.6-9-13c-4.1-7.2-8.6-14.3,3.3-20.6
			c4.7-2.4,2.6-6.2-2.9-7.6c-9.8-2.5-18.5,3.3-18.8,12.4c11.4,3.6,11.7,3.9,10,12.8C227.7,84.8,238.1,94.5,246.2,94.7z M263.8,119.8
			c0.2-0.9,0.3-1.9,0.6-2.8c-5.8-0.2-11.7-0.5-17.4-0.7c-6.2-0.2-12.4-0.1-18.5-0.3c-4.3-0.1-8.5-0.5-12.8-0.7
			c-0.1,1.2-0.1,2.4-0.2,3.6C231.7,117.9,247.3,126.1,263.8,119.8z M239.4,77.5c3.8,5,6.9,9.1,11.2,14.7c1-7,1.7-11.7,2.6-16.7
			C248.6,76.1,245.1,76.7,239.4,77.5z M280.3,91.4c-13.8,9-14,10.8-3,18.1C278.2,103.9,279.1,98.5,280.3,91.4z M239.9,76
			c1.7-0.8,3.5-1.6,5.2-2.4c2.7-1.9,5.5-3.7,8.2-5.6c-2.3-1.3-5.1-4-7-3.6c-3.1,0.7-6.6,2.8-8.3,5.1C237.3,70.9,239.4,73.8,239.9,76
			z"/>
		<path id="XMLID_375_" d="M603.6,334.9l-0.5-0.3c12.5,8.4,9.7,19.4,7.1,29.9c-6.6,27.6-27.1,48.7-52.1,67.1
			c-35.3,25.9-76.4,43.6-123.3,51.4c-43,7.2-84,0-122.7-15.5c-37.3-15-72.1-33-97-60.8c-17.5-19.4-29.6-40.3-26.5-64.9
			c0.7-5.4,5.2-10.6,7.9-15.8c1.3,0.3,2.7,0.6,4,0.8c0,2.4,0.5,4.9-0.1,7.1c-6.5,32.4,9.7,58.6,37.3,80.2
			c50.3,39.4,110.2,63.6,181.6,57.1c74.5-6.7,134.8-35.1,172-89.7c8.5-12.5,12-26.2,9.8-40.6C601,339.2,602.8,337,603.6,334.9z"/>
		<path id="XMLID_376_" d="M199-5.9c-2.6-3.1-5.1-6.1-8.2-9.6c25.3,5,49.9,9.7,74.4,14.6c0.2-0.8,0.5-1.7,0.8-2.4
			c-11.5-5.8-23.3-11.3-34.4-17.6c-5.9-3.4-15.2-8.4-9.1-14.4c5.7-5.7,13.1,1.2,18.4,4.5c12.9,7.9,25.4,16.4,39.7,23.8
			c-1.3-2.7-2.6-5.4-3.8-8.1c-11.4-24.7,8.4-46.7,41.1-45.9c4.3,0.1,8.6,0.7,13.1,0.9l-0.3-0.2c6.5,5.7,14.9,10.6,19,17.2
			c9.6,15.2-5.1,31.8-25.8,29.4c-4.8-0.6-10.4-5-12.6-8.7c-1-1.9,4.7-6.3,7.3-9.5c3.7,2.4,8.2,4.5,11,7.6c1.4,1.6-0.1,4.9-0.3,7.9
			c9.1-1.4,13.3-6.1,14.8-12.5c2.1-9.1-6.3-19-19-22.9c-11.1-3.4-21.5-0.5-28.2,7.9c-11.3,14.1-8.2,33.3,8.3,44.3
			c8.5,5.7,18.2,10.4,29.3,16.6c0-4.7-0.2-7.7,0-10.7c0.9-8.5,5.6-15.6,16.6-17.5c5.2-0.8,13.8,0,16.4,2.8c3.3,3.4,2.9,9.7,2,14.5
			c-0.3,2-6.2,3.6-9.9,4.4c-0.8,0.2-4.9-5-4.3-5.5c2.4-2.2,5.9-3.7,9.2-5.3c0.7-0.4,1.7-0.2,4.2-2.2c-3-1.9-6.1-5.2-8.9-5
			c-2.9,0.1-7.1,3.2-8.2,5.7c-4.4,10.1-2.8,20.2,3.3,29.6c4,6.2,9.9,11.7,13.3,18c3,5.7,4.1,12.1,5.2,18.2c0.2,1.3-2.4,3.9-4.3,4.3
			c-1.7,0.3-4.7-1.2-6.1-2.6c-2-2-3.3-4.5-4.3-7C337.7,8.4,280.1-3.3,229.8,8.2c-3.6,0.8-7.6,0.8-11.4,1.2c-0.3-0.9-0.7-2-1-2.9
			c3.8-1.5,7.8-3,10.5-4c-9.1-2.9-19-6-28.8-9.1C198.6-6.6,199-5.9,199-5.9z"/>
		<path id="XMLID_377_" d="M571.9,9.8c-12.8-1.5-25.5-3.5-38.4-4.4c-42.7-3.1-79.1,14.5-96,45.9c-2.3,4.3-4.3,8.7-7.2,12.6
			c-1.2,1.6-4.9,3.4-6.9,3c-1.9-0.4-4.5-3.7-4.1-5.1c2.4-7.1,5.4-14.2,8.9-21c5.1-10.1,11.5-19.8,16.2-30c1.6-3.5,0.6-8.3-1-12
			c-1.2-2.8-4.8-6.2-8.2-6.8c-2.7-0.5-6.4,2.7-9.7,4.3c0.3,0.7,0.7,1.5,1,2.3c1.5,0.1,3.3-0.2,4.4,0.4c2.9,1.6,6.1,3.2,7.8,5.5
			c0.6,0.7-3.5,5.2-4.8,5c-3.4-0.5-9-2.4-9.1-4c-0.3-5.1-0.7-11.9,3-15.1c2.9-2.7,12.5-3.2,17.5-1.6c14.5,4.6,15.2,15.1,13.6,25.8
			c32.3-6.2,51.9-29.4,43.4-51.3c-3.1-8.2-9-15-20.4-16.4c-11.7-1.4-20.4,3.3-26.9,10.6c-8.9,10-5.1,20,10.1,25.9
			c0-3-1.3-6.4,0.2-8.2c2.3-2.9,6.6-4.8,10.1-7.1c2.8,3.2,8.9,7.5,7.8,9.2c-2.2,3.8-7.5,8.3-12.4,9c-16.8,2.4-31.3-10.2-28.5-23.7
			c2.8-13.3,17.1-23.2,34.3-23.7c21.2-0.6,39.5,8.8,42.2,24c1.7,9.8-1.5,20.2-2.6,30.5c5.2-3.3,12-7.8,19-11.9
			c8.7-5.2,17.4-10.7,26.6-15.2c2.6-1.3,7.1-0.3,10.7-0.3c-0.7,2.9,0,7.2-2.2,8.5c-9.9,6.3-20.5,11.9-31,17.5
			c-4.1,2.2-8.6,3.6-13.1,5.5c0.3,0.8,0.7,1.7,1,2.4c21.8-3.6,43.5-7.2,66.1-10.9c-7.1,8.8-15.2,15-27.9,13.1c2.1,3,3.8,5.5,5.6,8.1
			L571.9,9.8z"/>
		<path id="XMLID_378_" d="M242.2,294.6c-6.5,19.2-13.2,38.2-19.7,57.3c18.5,0.7,26.7,4.8,29.2,16.2c0.7,3.2-2.8,6.9-4.3,10.4
			c-3.5-2-8.7-3.4-10.3-6.1c-2.6-4.6-2.8-10-4.1-15.1c-10.4,0-16.6,7.1-11.2,15.1c3.8,5.9,10.1,12.4,17.4,14.8
			c13.5,4.4,28.3,6.8,42.9,8.3c17.3,1.9,35.1,0.3,52,3.1c23.6,4,42.3,14.5,47.4,35.2c4.5,18.4-7.9,30.6-29.3,29.2
			c-13.3-0.8-25.3-11.9-23.6-22.3c0.5-2.5,4-6.3,6.5-6.5c2.7-0.3,7.1,2.4,8.6,4.8c2,2.9,0.7,7.3,2.8,10.1c2.4,3.2,6.6,7.1,10.7,7.6
			c6.6,0.8,13.2-3.1,11.9-8.7c-1.5-6.7-4.4-14.7-10.1-19.1c-17.4-13.2-39.3-14.5-61.8-12.1c-0.8,0.8-1.6,1.6-2.4,2.4
			c4,3.1,8,6.1,11.8,9.4c2.7,2.4,5.4,5.2,6.9,8.2c0.3,0.7-3.8,4.4-5.5,4.2c-4.3-0.5-10.5-1.4-12.2-3.9c-4.1-5.5-6.1-12.1-8.2-16.7
			c-13.6-2.1-27.2-3.9-40.6-6.5c-2.2-0.5-3.3-4.4-4.8-6.8c0.6-0.8,1-1.6,1.6-2.4c5.7,0.7,11.5,1.3,17.1,2.2c7.1,1.1,14,3.5,21.1,3.6
			c5.1,0.1,10.4-2.4,15.5-3.7c-0.2-1-0.6-2.1-0.8-3.1c-10.5-1.1-21.1-2.1-31.6-3.6c-6.4-0.9-12.8-2.3-18.9-4
			c-27.2-7.6-37.8-23.5-30.8-46c5-16.1,10.3-32.1,15.9-48c1.2-3.3,4.2-6,6.4-9.1C239,293.6,240.5,294.1,242.2,294.6z M369.5,426.5
			c-9-14.2-26.2-22.3-46.7-23.1c-7.8-0.3-15.6-0.3-20.9,6.5C338.6,409.9,346.2,411.8,369.5,426.5z"/>
		<path id="XMLID_381_" d="M499.8,403.9c3.3,7,9.4,8.6,16.9,7.4c8.9-1.5,17.5-3.8,26.4-5c3.4-0.5,7.2,1.2,10.8,2
			c-2.1,2.8-3.5,7.4-6.3,8c-7.8,1.9-16.2,2.3-24.4,3c-4.7,0.4-9.3,0.1-14.3,0.1c-1.3,4.3-1.9,9.1-4.2,13.2c-1.9,3.2-5.5,6.5-9.3,7.9
			c-3,1-7.7-0.7-11.7-1.3c1.3-3,1.5-6.6,3.8-8.8c4.2-3.8,9.7-6.8,15.6-10.8c-22.9-7.7-56.9-1.6-69.7,11.7c-4,4.1-6.5,9.8-7.1,15.1
			c-0.6,5.8,4.5,9.6,12.2,10c7.3,0.4,10.3-3.3,11.4-8.5c0.8-3.5,0.9-7.2,2.9-10.1c1.4-2.1,5.7-4.2,8.3-3.8c2.4,0.3,5.6,3.6,6.1,5.9
			c2,10.4-9.3,21.4-22.9,23c-14.7,1.8-27.1-5.2-29.4-16.7c-3.3-16.8,5-29.6,22.2-38.9c18-9.7,38.3-12.1,59.4-11
			c19.4,0.9,39,2.1,56.7-5.2c8.4-3.4,16.4-8.8,21.8-15c7.1-8.1,1.3-16.6-10.6-17.5c-0.5,3.9-0.3,8-1.7,11.8c-1.9,4.9-4,11.5-12.6,9
			c-7.9-2.2-5-8.2-2.8-12.8c5.1-10.7,13.1-13.9,29.3-12c-5.8-17.2-11.5-34-17.3-50.9c1.3-0.5,2.4-1,3.7-1.5c2.1,2.5,5,4.8,5.9,7.5
			c3.6,10,6.1,20.4,10,30.3c14.6,36.6-0.7,56.4-48.5,61.8C520.7,402.6,510.5,403.1,499.8,403.9z M497.3,410.7
			c-21-13.5-61.2-4.2-68.3,14.1C448.1,410.7,470.6,408.4,497.3,410.7z"/>
		<path id="XMLID_384_" d="M331.5,104.8c0,0-0.1-0.3-0.5-0.7c-7.9-5.2-8.9-11.3-4.3-18.5c1.5-2.2,2.2-5,2.8-7.5
			c2.4-11-6.1-19.4-20.2-20.1c-10-0.5-18.7,1.1-23.4,9.2l0.3,0.2c-1.2-3.4-2-6.8-3.6-10c-1.2-2.2-2.8-5.2-5.2-6.1
			c-11.7-4.2-15.3-6.1-20.9-14.8c11.4,6.2,22.9,12.4,34.8,18.9c6.2-0.5,14.1-2,21.9-1.6c10.8,0.5,14.9-3.3,10.6-11.5
			c-3.7-6.9-10.5-10.6-19.8-12.1c-6.3-1-12.9-2.9-18.2-5.8c-10.3-5.7-31.3-5.1-39.3,2.3c-1.3,1.2-0.2,4-0.2,6.2
			c-5.6-5.1-11.3-10.3-18.2-16.5c32.7-7.4,63.4-10.3,92.4,4.8c30.7,15.9,41.9,51,18.3,82.1C337.9,104.5,334.1,104.3,331.5,104.8z"/>
		<path id="XMLID_385_" d="M447.2,204.5c1.7,1.2,2.7,1.7,3.5,2.2c11.7,9.3,10.5,14.9-4.2,21.2c-9.6,4.1-24.6,3.5-32.1-1.4
			c-8.6-5.6-12.5-17-8.7-26.4c1.2-3,3-5.9,4.8-9c-3.7-4.1-7.6-8.2-11.5-12.6c-2.1,2.8-3.5,5.6-5.9,7.6c-4.7,3.8-4.1,7-1.2,11.5
			c7,10.9,3.8,23-6.5,29.3c-9.3,5.7-27.4,4.8-37.8-1.9c-14.5-9.3-13.4-16.5,3.7-26c7.2,14.4,13.4,19,21.6,16.2
			c9.4-3.4,10-12.5,1.5-25.3c6.8-6.5,13.6-12.9,20.4-19.4c0.5,0.7,0.9,1.6,2.1,3.6c0.6-4.7,0.9-8.2,1.5-12.3
			c8.7,8.9,17,17.4,24.4,24.9c-0.8,7.6-2.1,14.8-1.9,22c0,2.2,4,5.1,6.9,6.1C438.4,217.9,442.9,211.6,447.2,204.5z"/>
		<path id="XMLID_386_" d="M561.1,16.5c-5.6,7.6-10.7,12.2-22.6,7c-11.2-4.9-22.7-4.4-33.1,3.6c-3.4,2.6-9.7,3.4-14.8,3.9
			c-11.7,1.3-21.7,8.7-21.3,16.7c0.1,5,2,7.9,9.9,7.2c8.4-0.7,17.1,0.5,27.2,0.8c2.9-4,6.3-10.8,16.1-8
			c-5.8,5.4-11.1,10.4-15.9,14.9c-5.1-1.4-10-3.4-15.2-4c-20.1-2.4-31,8.9-24.8,25.1c4.4,11.7,3.7,13.1-9.9,20.2
			c-18.2-19.1-18.2-49.5,0.1-69.4C477.6,12,520.8,4.3,561.1,16.5z"/>
		<path id="XMLID_387_" class="st1" d="M246.3,32.9c0-2.1-1-5,0.2-6.2c8-7.6,29-8.1,39.3-2.3c5.2,2.9,11.9,4.8,18.2,5.8
			c9.3,1.5,16.1,5.1,19.8,12.1c4.3,8.2,0.3,11.9-10.6,11.5c-7.8-0.3-15.7,1.1-21.9,1.6c-11.9-6.5-23.3-12.6-34.8-18.9
			c5.6,8.7,9.2,10.6,20.9,14.8c2.4,0.8,4.1,3.8,5.2,6.1c1.6,3.2,2.4,6.6,3.6,10c-1,1-2.9,3-2.9,3.1c9.7,6.6,3.3,10.8-3.1,15.3
			c-4.1,2.8-8.2,5.7-11.5,9.1c-2.9,2.8-5.6,6.7-9.8,2.6c-2.2-2.2-3-8.2-1.2-9.6c12.5-9.3,9.9-21.2,10.6-32.6c0-0.7-0.9-1.3-2.7-3.5
			c-1.6,10.5-2.9,19.5-4.3,28.7c-1.2,0-2.3-0.1-3.6-0.1c0.8-8.5,6.1-18.4-10.6-20.5c-0.7-9.4,9.6-18.6-0.7-27.2
			C246.5,32.5,246.3,32.9,246.3,32.9z"/>
		<path id="XMLID_388_" d="M408-109.3c0.2,13.1,1.4,26.4,0.5,39.4c-0.7,9.3-9.2,15.5-17.3,15.6c-9,0.1-17.1-5.9-20.1-14.8
			c-3.8-11.6-1.6-27.7,5.6-41.7C386-110.2,395.2-109.7,408-109.3z"/>
		<path id="XMLID_389_" d="M362.6,149.3c-7.8,4.1-8.7,9.9-7.2,16.8c3.5,15.3-3.3,33.8-21.2,40.7c0.8-12.2-3.4-24.3,10.3-33.9
			c2.2-1.6-0.6-7,1.3-9.6c8-11.3,15.9-22.9,25.7-33.3c9.1-9.5,12.9-8.8,22.5,0.6c1.2,1.1,2,2.4,2.6,3.2c8-4,14.3-8.9,21.7-10.2
			c3-0.6,8.2,6.3,13.9,10.9c-17.7,3-26.6,24.4-46.7,10.8c-5.7,0.3-10.1,0.6-14.5,0.7C368.2,147.2,365.4,148.3,362.6,149.3z"/>
		<path id="XMLID_390_" d="M371.7-112.9c-2,6.9-5.4,13.9-5.6,20.9c-0.5,10.6-0.3,21.5,2.1,31.9c2.2,9.3,12.7,14.8,23,14.6
			c11.5-0.3,19.4-6.5,20.8-14.2c2.4-12.4,1.7-25.3,1.7-38c0-5-1.9-9.8-0.8-15.3c0.8,0.7,2.1,1.4,2.4,2.2c7,18.2,12.1,36.8,8.2,55.8
			c-1.4,6.8-6.9,14.6-13.5,19.1c-16.8,11.4-39.5,5.7-47.8-11.2c-7.8-15.9-5.2-32.1-0.6-48.1c1.7-6.1,4.7-12,7-18
			C369.6-113.3,370.7-113.1,371.7-112.9z"/>
		<path id="XMLID_391_" d="M352.1-141.7c19.2-5.4,53.3-6.5,77.3-2.2c-2.2,15.5-17.4,26.5-37.4,27
			C372.2-116.3,355.6-126.7,352.1-141.7z"/>
		<path id="XMLID_392_" d="M350.8-125.5c4.9,3.5,9.2,6.5,12.8,9.1c-4,13.2-7.7,25.8-11.5,38.6c-13.2,1.2-20.9-3.6-20.8-14.6
			C331.5-105.5,338.8-116.1,350.8-125.5z"/>
		<path id="XMLID_393_" d="M304.2,165.4c10.6,10.9,10.7,18.9,0.9,26.2c-2.6,1.9-6.2,4.1-9.2,4c-4-0.1-8.2-2.1-11.5-4.1
			c-0.6-0.4,2.3-6.6,3.5-6.6c3.7,0.1,7.3,1.9,12.6,3.6c0.8-2.2,2.3-6.1,4.4-11.8c-21.2,7.2-39.8,13.6-58.4,19.9
			c-0.5-0.7-1-1.5-1.5-2.2c2.8-2.1,5.7-4,8.3-6.3c5.5-4.7,9-9.6,5.1-16.5c-1.4-2.4-0.2-5.7-0.2-8.6c1.3-0.4,2.6-0.7,3.7-1.1
			c4.7,4.9,9.3,9.7,14.5,15.1c5-0.5,11.7-0.1,17-2.1C297.8,173.1,300.6,168.7,304.2,165.4z"/>
		<path id="XMLID_394_" d="M399.9,115.5c-11.5-12.6-18.5-25.1-14.6-39.5c1-4,7.2-9.3,12.1-10.1c8.2-1.5,11.7,4.7,12.9,10.3
			C413.4,89.9,408.5,102.3,399.9,115.5z"/>
		<path id="XMLID_395_" d="M180.9,223c-3.4-0.4-9.7-1-17.6-1.9c7.8-8,9.9-15.8,7.5-25.1c-0.6-2.1,8.2-7.1,13.4-8.4
			c4.5-1.1,14.1,0.1,14.9,2.2c1.9,4.2,1,10.3-1.5,14.4C193.9,210.2,187.7,215.6,180.9,223z"/>
		<path id="XMLID_396_" d="M189,178.2c-2.8,1.8-5.7,3.4-8.4,5.2c-8,5.6-16.1,9.7-24.7-0.2c0.5-6.6,0.6-14.3,1.9-21.7
			c0.6-3,4-5.6,6.2-8.3c2.2,2,4.4,3.9,6.9,5.7c2.6,1.9,5.1,4.5,8.2,4.9C194.6,166,194.9,166.3,189,178.2
			C188.9,178.2,189,178.2,189,178.2z"/>
		<path id="XMLID_397_" d="M641.5,185c-4.4,1.1-11.7,4.9-14.1,3.4c-8.4-5-16.3-11-21.9-18c-3.3-4,2.1-6.5,8.4-7
			c4.5-0.4,8.7-3.3,12.8-5.3c2.4-1.2,4.3-3.3,6.4-4.9c2.2,2.4,5.7,4.6,6.2,7.2C640.7,167.7,640.8,175.3,641.5,185z"/>
		<path id="XMLID_398_" d="M631,221c-5.4,0.6-11.5,1.2-15.5,1.6c-5.5-6.6-10-11.7-14-16.9c-2.4-3.4-5.2-7-5.7-10.8
			c-0.8-6.9,4.1-10,12.8-9c12.9,1.5,17.1,6.4,17.1,16.4C625.6,208,628.9,213.8,631,221z"/>
		<path id="XMLID_399_" d="M438.1-115.3c3,5.6,7,10.9,8.7,16.8c3.4,10.9-3.8,18.6-17.8,20.1c-3.4-11.2-7.3-22.4-9.6-33.8
			c-0.6-3.1,4.4-6.8,7.5-11.2c4.8,3.4,8.2,5.8,11.5,8.2L438.1-115.3z"/>
		<path id="XMLID_400_" d="M438.3-115.2c1.4-0.5,3.8-1.6,4.1-1.4c8.5,8.9,19.5,17,24.5,27c8.4,16.8-9.1,31-31.4,27
			c-2.2-0.4-3.8-2.6-5.7-3.9c1.6-1.2,3-3.3,4.9-3.6c11.4-2.4,19-7.9,19.2-17.7c0.3-11-3.6-21-16-27.7
			C438.1-115.3,438.3-115.2,438.3-115.2z"/>
		<path id="XMLID_401_" d="M452.1,162.2c11.9,15.8,19.1,31.7,10.7,50.1c-13.5-5-14.2-14.5-17.3-23.8
			C442.1,178.4,445.8,170.7,452.1,162.2z"/>
		<path id="XMLID_107_" class="st2" d="M330.8-60.2c-24.1-12.3-25.1-34-2-48.8c-7.3,31.7-4.9,36.1,22.3,40.7
			c3.3,6.1-0.1,8.5-7.7,8.4c-4.3,0-8.7-0.3-13.1-0.5C330.4-60.4,330.8-60.2,330.8-60.2z"/>
		<path id="XMLID_404_" d="M310.4,171.3c-0.8-6.6-1.4-11.4-2-16.9c13.3,3.7,13.9-4.4,16.8-9c3.4-5,4.3-11.1,7.5-16.3
			c1.5-2.5,6.1-3.8,9.2-5.6c1.4,3.2,5,6.8,4,9.3C339.8,147.7,330.1,160.7,310.4,171.3z"/>
		<path id="XMLID_405_" d="M432-126.9c2.7-5.4,5.1-10.5,7.9-16.3c10,2.9,23.2,1.1,26,12.2c0.9,3.7-2.7,10.5-6.6,12.2
			C447.4-113.5,440.5-122.1,432-126.9z"/>
		<path id="XMLID_406_" d="M341.1-141.1c2.8,4.6,4.8,7.9,7.7,12.6c-5.8,3.8-11.5,8.2-18.1,11.6c-6.1,3.1-13.1,4.5-18.1-1.8
			c-5.2-6.6-0.8-11.5,5.8-14.7C325.3-136.5,333.4-138.4,341.1-141.1z"/>
		<path id="XMLID_407_" d="M639.2,217.3c-13.5-6.6-7.5-25.1,4.1-27.9c8.9-2.1,14.2,0.6,14.3,7.9
			C657.7,207.1,652.4,212.8,639.2,217.3z"/>
		<path id="XMLID_408_" d="M139.6,198.3c-0.1-7.7,4.3-10.6,13.5-8.4c2.6,0.7,5.5,1.9,7.1,3.6c6.3,6.2,7.6,13.2,2.6,20.1
			c-1.3,1.8-5.8,3.5-8.3,3C145.9,214.8,139.8,206.6,139.6,198.3z"/>
		<path id="XMLID_409_" d="M571.5,10.1c4.3,0.2,9.7-0.8,12.6,0.8c12.8,7.5,25,15.7,38.7,24.5c1.3-0.3,5.1-2.3,7.9-1.7
			c4,0.8,8.3,3.2,10.5,5.9c1.3,1.6-0.2,7-1.9,7.5c-3.8,1-8.7,0.6-12.8-0.3c-2.1-0.4-3.7-2.6-5.2-4.2c-12-12.9-27.2-22.5-45.3-29.4
			c-1.7-0.7-2.8-2.2-4.2-3.5C571.9,9.8,571.5,10.1,571.5,10.1z"/>
		<path id="XMLID_410_" d="M171.4,33.8C202.1,10,207.6,7,217.9,10.8c-4.3,1.9-7.8,3-10.6,4.8c-11.7,7.7-23.2,15.5-34.8,23.4
			c-1.6,1.1-2.4,3.5-4.2,3.8c-4.8,1.1-9.8,1.5-14.7,2.2c-0.7-3.2-2.9-6.8-1.6-9.3c2.4-4.8,7.8-6.6,14.3-4.1
			C168,32.3,169.5,33,171.4,33.8z"/>
		<path id="XMLID_411_" d="M568,302c-10.6-7.5-9.8-30.7,0.8-37.1c4.9-2.9,10.3-1,10.4,4.2c0.1,3.9-1.3,8-2.7,11.9
			C574.1,287.8,571,294.7,568,302z"/>
		<path id="XMLID_412_" d="M505.8,183.2c-3.3-2.2-6.6-4.2-10.6-6.8c2.8-1,4.9-2.5,7-2.5c7.3-0.2,14.7-0.3,21.9,0.4
			c3,0.3,6.5,2.2,8.6,4.1c2.7,2.5,3.8,6.2,6.3,8.9c2.2,2.5,5.5,4.5,7.2,8.5c-12.7-3.7-25.3-7.6-38-11.3
			C507.6,184,506.8,183.6,505.8,183.2z"/>
		<path id="XMLID_413_" d="M230.3,295.3c-3.1-8-6.9-15.9-8.9-23.9c-0.7-2.8,3-6.3,4.8-9.4c3.1,2,7.6,3.4,9.3,5.9
			C243.6,279.9,241.7,289,230.3,295.3z"/>
		<path id="XMLID_414_" d="M603,178.4c-2.9-2.4-6.3-4.7-8.5-7.5c-6.2-7.9-2.4-14.9,9-15.6c9.8-0.6,17.8-1.6,19.9-10.9
			c0.3-1.5,5.6-3.8,6.2-3.4c3.5,2.2,6.3,5.1,8.7,9.1c-8.5-3.6-11.9-0.8-14.7,4.8c-1.2,2.2-5.2,4.8-8.3,5
			C598.4,161.7,596.7,164.2,603,178.4z"/>
		<path id="XMLID_415_" d="M188.9,178.2c2.6-4.3,5.1-8.5,7.7-12.8c-4.5-1.6-9.2-2.9-13.5-4.8c-3.5-1.4-8.4-2.9-9.6-5.2
			c-2.7-5.9-6.4-8-14.7-3.9c-0.2-0.9-0.5-1.9-0.7-2.8c3.3-2.5,6.4-5.1,9.7-7.7c2.6,2.5,6.3,4.7,7.5,7.5c2.4,6.3,8.4,6.3,14.7,6.7
			c7.3,0.6,15.2,1.1,15.4,9.3C205.5,171.4,197.8,177.7,188.9,178.2C189,178.2,188.9,178.2,188.9,178.2z"/>
		<path id="XMLID_416_" d="M586.8-0.8c7.1-6.5,13.2-14.6,25.8-15c3.6-0.1,7.2,2.2,10.8,3.4c-2.2,2.6-3.6,6.6-6.6,7.6
			c-9.2,2.8-19.1,4.5-28.7,6.5C587.7,0.8,587.3,0,586.8-0.8z"/>
		<path id="XMLID_417_" d="M408.8,18.1c-0.3,9.3-4.4,12.8-12.2,12.8c-7.1,0-11.5-3.4-12-9.1c-0.3-6.2,4.4-10.7,11.5-10
			C401.2,12.2,405.8,16.5,408.8,18.1z"/>
		<path id="XMLID_418_" d="M559.3,166.6c-1,3.8-0.9,8.1-3.4,11.2c-1.4,1.8-9,3.1-10,2.1c-3-2.9-4.1-7.1-5.8-10.4
			c-3.8,0.5-9.1,1-14.3,1.6c-0.3-1-0.6-2-0.9-3c5.2-6.4,12.7-8.8,23.6-7.6c0.9,4.6,1.7,9.2,2.7,13.7c0.7,0,1.4,0,2.1,0.1
			c0.8-2.8,1.6-5.6,2.3-8.4C556.8,166.2,558.1,166.4,559.3,166.6z"/>
		<path id="XMLID_419_" d="M225-66c2.9-5.4,5.8-10.8,9.9-18.2c3.7,2.1,10.4,3.8,11.9,7.1c1.5,3.3-0.8,9.2-4,12.1
			c-5.6,5.1-12.4,2.2-18.2-1.1L225-66z"/>
		<path id="XMLID_420_" d="M140.7,184.5c-1.6-5.2-4.2-9.7-4-14.2c0.1-3.2,3.3-7.9,6.5-8.9c5.9-2,8.9,1.9,9.6,6.6
			C154.6,180.6,152.5,183.6,140.7,184.5z"/>
		<path id="XMLID_421_" d="M541.2-81.7c3.8-1.3,7.6-2.6,11.5-3.9c2.6,6.5,4.8,12.1,7.2,18.4c-4,4.6-10.1,4.7-16,1.1
			c-7.1-4.3-7.7-10-2.4-15.9C541.4-82,541.2-81.7,541.2-81.7z"/>
		<path id="XMLID_422_" d="M191.4,181.7c18.9-1.9,28.1,6.8,21.7,17.5c-4.7,7.8-11.2,14.7-17.3,21.9c-0.7,0.8-3.1,0.7-8.3,1.8
			c4.3-5.8,7.1-9.5,9.8-13.3c2.9-3.9,6.8-7.7,8.5-11.9C208.9,189.7,202.6,185.3,191.4,181.7z"/>
		<path id="XMLID_423_" d="M604.6,181.8c-15.5,5.8-17.8,12.9-8.9,23.2c4.2,4.9,8.4,9.7,12.6,14.6c-0.7,0.7-1.4,1.3-2.1,2
			c-2-0.6-4.9-0.6-5.8-1.7c-5.4-6.2-11.4-12.2-14.7-19.2c-2.2-4.5-2.2-11,0.3-15.2C588.9,180.3,596.1,178.3,604.6,181.8z"/>
		<path id="XMLID_424_" d="M655.8,186.1c-4.2-2.6-9.9-4.4-10.3-6.7c-0.9-5.4,0.3-11.2,1.9-16.7c0.2-0.9,7.2-2,9.2-0.8
			c2.6,1.5,4.5,5.1,4.3,7.8C660.4,174.3,658.2,178.9,655.8,186.1z"/>
		<path id="XMLID_425_" d="M472-133.8c10.4,6.2,13.2,13.7,7.2,20c-5.6,6-15,6.4-24,1.2c4.4-2.6,10.4-4.7,13.3-8.2
			C471.3-124.2,471-129.2,472-133.8z"/>
		<path id="XMLID_426_" d="M466.8,147.3c-2.2-2-4.5-3.9-7-6.1c-1.5,1-2.9,2.2-5.4,3.9c-2.3-5.7-5-10.8-6.2-16.1
			c-0.5-2.1,2.9-4.7,4.5-7c2.8,1.3,7,2.1,8,4c3.6,6.3,6.1,12.9,8.9,19.4C468.8,146.1,467.8,146.8,466.8,147.3z"/>
		<path id="XMLID_427_" d="M505.8,183.2c0.8,0.4,1.6,0.7,2.6,1.2c-1,3.4-1.7,9.6-3.1,9.7c-5.2,0.4-12.7,0.2-15.7-2.4
			c-5.1-4.5-7.6-10.9-12.4-18.3c6.9,1.2,8.7,3.4,16.1,14.8C497.6,186.4,501.8,184.8,505.8,183.2z"/>
		<path id="XMLID_428_" d="M584.2-64.1c-2.9,4.8-4.4,9.4-8.2,12.2c-2.1,1.6-10.4,1.5-11.2,0.2c-2.7-4-3.1-9-4.8-14.5
			C569.2-65.4,575-65,584.2-64.1z"/>
		<path id="XMLID_429_" d="M224.7-66.4c0.2,2,0.5,4,0.7,6c0.7,5.2,0.5,10.6-7.8,11.3c-7.9,0.7-11.9-3.4-12.8-9.3
			c-0.2-1.4,0.2-2.8,0.3-4.2c6.9-1.2,13.4-2.3,19.9-3.5C225-66,224.7-66.4,224.7-66.4z"/>
		<path id="XMLID_430_" d="M199-5.9l-0.3-0.7c-1,1.4-2.4,4-3,3.9c-6.6-1.3-13.5-2.5-19.5-5c-2.7-1.2-3.5-5.3-5.1-8.2
			c4.2-0.4,9.6-2.2,12.5-0.8C189.4-14.1,194-9.6,199-5.9z"/>
		<path id="XMLID_431_" d="M221.3-88.7c5.7,6.6,6.2,12.3,0.3,17.4c-5.2,4.6-11.8,4.7-19.8,0.7C208.4-76.7,214.6-82.5,221.3-88.7z"/>
		<path id="XMLID_432_" d="M564.5-90.6c7.6,7.1,13.6,12.6,19.6,18.1c-0.5,1-0.9,2.2-1.5,3.2c-5.6-0.8-12.4-0.4-16.7-2.8
			C558.7-76.1,560.3-82.5,564.5-90.6z"/>
		<path id="XMLID_433_" d="M297.1,243.2c6.2-5.2,11.8-10,19.1-16.2c4,6.5,4.7,12.1-0.5,16.9C310.5,249,304.1,249,297.1,243.2z"/>
		<path id="XMLID_434_" d="M448,155.6c-7.7-1.9-13.8-2.9-19.2-4.9c-2.8-1-5.1-3.6-6.8-6c-0.5-0.7,2.8-3.9,4.4-4
			c3.5-0.2,8.4,0,10.5,1.7C441.1,145.7,443.7,150.2,448,155.6z"/>
		<path id="XMLID_435_" d="M490.3,165.5c1.4,0.9,3.7,2.6,7.1,5c-7.8,2.4-13.4,0-14.1-4.7c-0.7-4.5,2.3-9.4,4.3-13.9
			c0.2-0.5,5.9-0.3,7.3,0.9c1.5,1.3,1.7,4.4,0.9,6.3C495.1,161.4,492.4,163.2,490.3,165.5z"/>
		<path id="XMLID_436_" d="M307.2-131.4c-2.2,14,0.2,17.2,15.3,21.2c-8.3,3.6-16.1,4.2-21.1-2.7
			C296.8-119.2,297.7-125.6,307.2-131.4z"/>
		<path id="XMLID_437_" d="M409.6-6.6c-6.2,3.5-9.9,7-12.9,6.7c-3.1-0.3-7.2-4.2-7.9-7c-0.5-1.7,4.9-6,7.7-6
			C399.8-13,403.3-9.8,409.6-6.6z"/>
		<path id="XMLID_438_" d="M396.1,38.5c4.4,4.9,9.1,7.8,8.7,10.3c-0.3,2.6-5.5,4.9-8.5,7.3c-2.8-2.2-7.6-4.4-7.8-6.8
			C388.4,46.6,392.4,43.7,396.1,38.5z"/>
		<path id="XMLID_439_" d="M467.7,235.3c2.7,4.6,5.8,9.1,7.6,13.9c0.7,2-1.7,4.7-2.8,7.1c-2.7-1.6-7-2.8-7.6-4.9
			c-1.5-5-1.3-10.4-1.9-15.5C464.6,235.8,466.2,235.6,467.7,235.3z"/>
		<path id="XMLID_440_" d="M362.6,149.3c2.8-1,5.6-2.2,8.4-3.2c0.9,2.2,3.4,5,2.4,6.3c-3.5,5.4-8.2,10.4-12.9,16.4
			C355,160.9,358.5,155.1,362.6,149.3z"/>
		<path id="XMLID_441_" d="M251.6,177.9c-5.9,3.8-11.3,3.5-15.2-1.1c-4.5-5.4-2-10.3,4.4-15.1C244.6,167.2,247.9,172.3,251.6,177.9z
			"/>
		<path id="XMLID_442_" d="M338.3,235.9c-1,5.8-1.6,11.6-3.4,17.2c-0.5,1.4-4.5,2.1-6.9,3.1c-1-1.9-3.4-4.1-2.8-5.6
			c2.1-5.3,5.1-10.5,7.9-15.7C334.9,235.3,336.6,235.7,338.3,235.9z"/>
		<path id="XMLID_443_" d="M543.9-104.3c4.8,3,9.4,5.6,13.3,8.8c1.3,1,1.2,4.1,0.2,5.6c-0.7,1-4.1,1.8-5.9,1.4
			C543.4-90.1,540.6-95.6,543.9-104.3z"/>
		<path id="XMLID_444_" d="M243.2-103.5c3.5,8.2,0.5,13.1-7.1,15.9c-1.9,0.7-5.8-0.2-7-1.4c-1-1.1-0.5-4.5,0.8-5.6
			C233.6-97.7,238.1-100.1,243.2-103.5z"/>
		<path id="XMLID_445_" d="M441.6,241.1c2,4.5,4.4,8.8,5.7,13.5c0.3,1.4-2.4,3.5-3.8,5.1c-2.1-1.3-5.7-2.4-5.9-3.9
			c-0.8-4.7-0.2-9.4-0.2-14.1C438.7,241.5,440.2,241.3,441.6,241.1z"/>
		<path id="XMLID_446_" d="M363.2,242.2c0,4.7,0.5,9.4-0.2,14.1c-0.2,1.5-3.8,2.5-5.9,3.8c-1.3-1.8-4-3.7-3.5-5.1
			c1.3-4.6,3.7-8.9,5.7-13.3C360.5,241.8,361.9,242,363.2,242.2z"/>
		<path id="XMLID_447_" d="M555.1-55.4c10.6,10.6,14.5,11.1,28.2,4.3c-1.6,6.8-6.5,9.7-13.5,9.5C560-41.9,556.8-47.4,555.1-55.4z"/>
		<path id="XMLID_448_" d="M203.1-50.5c13.2,7.6,17.7,7,26.9-2.6c-0.3,7.5-4.5,12.3-11.7,12.7C210.8-40,205.1-42.5,203.1-50.5z"/>
		<path id="XMLID_449_" d="M541.2-81.7c0,0,0.2-0.3,0.3-0.3c-9,3.3-10.4,11.6-2.6,17.1c2.6,1.8,5.9,3,9,4.4
			c-0.6,0.8-1.2,1.6-1.7,2.4c-4.5-2.4-11.2-4.1-13.3-7.5c-2.3-3.8-1.2-9.3-0.3-14C532.7-80.6,538.2-81,541.2-81.7z"/>
		<path id="XMLID_450_" d="M473.2,164.5c-3.7-3.6-7.5-7.4-11.2-11c0.5-0.7,0.8-1.5,1.3-2.2c3.5,0.2,9.3-0.6,10,0.7
			c2.2,3.6,2.3,7.9,3.1,12C475.4,164.1,474.2,164.2,473.2,164.5z"/>
		<path id="XMLID_451_" d="M131.6,158.9c3.3-2.2,6.2-5.9,9.8-6.4c3.6-0.6,7.9,2.1,10.8,5c-6.1,0.8-12.2,1.7-18.3,2.5
			C133.1,159.7,132.3,159.3,131.6,158.9z"/>
		<path id="XMLID_452_" d="M237.8-58.7C253-65.3,255-69,250.4-81.4c7.7,4.7,7.6,10.2,4.8,15.7C252.3-60.1,246.8-57.6,237.8-58.7z"/>
		<path id="XMLID_453_" d="M644.1,155.3c3.8-1.2,8-3.7,11.4-3.2c3.8,0.6,6.9,4,8.7,7.8c-6.2-0.8-12.5-1.8-18.7-2.6
			C645,156.6,644.5,155.9,644.1,155.3z"/>
		<path id="XMLID_454_" d="M479.3,233.8c4.4,2.8,9.7,6.1,15.4,9.7C481.6,246.4,477.2,242.8,479.3,233.8z"/>
		<path id="XMLID_455_" d="M408,258.9c1.3-5,2.4-10,3.7-15.1c4.7,5.9,7.3,11.4,1.6,16C411.6,259.5,409.7,259.2,408,258.9z"/>
		<path id="XMLID_456_" d="M385,259.7c0-5.1,0-10.2,0-15.3c2.3-0.1,2.6-0.2,3.5-0.3c0.8,5,1.4,10.1,2.2,15.1
			C389,259.4,389.7,259.6,385,259.7z"/>
		<path id="XMLID_457_" class="st1" d="M357.6,354.3c0-1.1-0.2-2.3,0-3.5c1.6-5.3,2.6-15,5.1-15.2c10.6-1.3,21.7,0.2,32.7,0.8
			c1.2,0.1,2.4,1.3,3.1,2.2c5.4,6.5,3.5,33-2.9,38.7c-6.3,5.7-14.1,7.5-23.6,5.5c-9.2-2-12.9-7.1-14-13.8c-0.8-4.9-0.7-9.8-1-14.7
			C357.3,354.3,357.5,354.3,357.6,354.3z"/>
		<path id="XMLID_458_" class="st1" d="M406,352.9c0-0.6,0-1.1,0-1.8c0-16.7,2.3-18.5,23.6-17.9c9.9,0.3,15.6,3.4,16.2,11.7
			c0.6,7.5,1.9,15,2,22.5c0.1,9.3-5.4,13.4-18.2,14.9c-11.8,1.3-19.4-2.2-21.9-11.2c-1.6-5.9-1.6-12.1-2.6-18
			C405.4,353,406,352.9,406,352.9z"/>
		<path id="XMLID_459_" class="st1" d="M360.2,304.5c0.5-4.6,0.7-9.3,1.4-13.8c1.2-7.8,6.8-11.8,16.7-12.2
			c9.8-0.4,16.7,3.3,18.1,10.8c1.9,10.2,2.7,20.7,2.6,31c0,2.5-5.1,5.4-8.5,7.2c-2.1,1.1-5.6,0.7-8.5,0.7
			c-17.3,0-20.8-2.8-21.1-16.7c0-2.3,0-4.7,0-6.9C360.4,304.5,360.3,304.5,360.2,304.5z"/>
		<path id="XMLID_460_" class="st1" d="M420.7,329c-14.7-0.2-17.1-1.2-17.3-12.7c-0.1-9.2,1.5-18.6,4.5-27.4
			c1.3-3.6,8.5-8.5,12.8-8.4c5.7,0.2,14.7,3.7,16.2,7.5c4.2,10.4,5.6,21.5,7.2,32.4c0.2,1.8-3.7,5-6.5,5.8
			C432.3,327.7,426.4,328.1,420.7,329z"/>
		<path id="XMLID_461_" class="st1" d="M353.6,352.1c-0.6,6.3-1.2,10.8-1.5,15.5c-0.7,7.6-6.1,11.6-15.3,12.3
			c-9.9,0.7-19.6-3.8-20.2-11.1c-0.9-10.9,0-22,0.7-32.9c0.1-1.8,2.9-4.3,5-4.9c15.7-4.5,31.8,5,31.3,18.3
			C353.6,350.7,353.6,352.2,353.6,352.1z"/>
		<path id="XMLID_462_" class="st1" d="M489.2,357.4c-0.6,3.4-0.8,6.9-1.9,10.2c-2.3,7.2-9.3,10-17.8,10.5
			c-8.9,0.5-13.5-4-14.9-10.2c-2.2-10-3.8-20-4.9-30.1c-0.2-2.1,2.8-5.9,5.1-6.4c7.6-1.4,15.6-2.2,23.3-2c2.4,0.1,6.2,3.8,6.9,6.4
			C487,342.9,487.8,350.1,489.2,357.4z"/>
		<path id="XMLID_463_" class="st1" d="M357.6,300.9c-0.2,3.8-0.2,5.8-0.5,7.9c-1.7,15.2-14.9,20.9-31.7,13.4
			c-3.1-1.4-6.5-5.5-6.2-8.1c1.2-9.8,3.3-19.5,6.1-29.2c1.9-6.3,8-8.5,16-7.8c7.6,0.7,13.2,3.6,14.6,9.9
			C356.8,292.1,357.1,297.5,357.6,300.9z"/>
		<path id="XMLID_464_" class="st1" d="M445.7,294.6c0-2.6-0.2-5.2,0-7.9c0.7-6.5,6.1-11,13.3-10.4c5.4,0.5,13.2,4.2,14.6,7.9
			c3.7,9.3,5.8,19.4,6.2,29.1c0.3,9.8-11.5,8.9-19.4,10.6c-7.2,1.5-10.8-2.7-11.9-7.7c-1.6-7.1-2.3-14.4-3.5-21.6
			C445.3,294.6,445.6,294.6,445.7,294.6z"/>
		<path id="XMLID_465_" class="st1" d="M283.3,350.6c0.8-6.8,1.4-12.1,2.1-17.3c0.6-5,2.2-9.8,10.4-8.3c7.6,1.4,17.1,1.9,16.9,10.7
			c-0.2,9-0.8,18.1-2.9,26.9c-0.8,3.5-6.4,8.9-9.3,8.7c-5.1-0.4-11.7-3.5-14.1-7C283.2,360.1,283.9,354.2,283.3,350.6z"/>
		<path id="XMLID_466_" class="st1" d="M519,348c-0.5,4.1,0.3,9.3-2.1,13.1c-2.1,3.3-7.7,6.2-12.2,6.8c-2.6,0.4-8.3-3.6-9.1-6.4
			c-3-9.8-5.1-19.9-6.5-29.9c-1-7.6,7.6-7.4,13.5-8.6c5.9-1.2,11.2-0.1,12.6,5.4C516.8,334.8,517.7,341.1,519,348z"/>
		<path id="XMLID_467_" class="st1" d="M509.3,312c-3.3,2-6.4,5.2-10,5.5c-4.1,0.4-11.9-1.2-12.5-3.2c-3.6-11.5-5.9-23.2-7.7-35
			c-0.2-1.9,4.9-6.2,7.1-6c4,0.4,9.9,2.5,11.1,5.1C502,288.9,505,299.6,509.3,312z"/>
		<path id="XMLID_468_" class="st1" d="M319.5,289.1c-1.6,7.4-3.3,14.9-5,22.2c-1.4,5.8-6.2,7.4-12.8,6.5c-7.1-0.9-10.3-4.5-8.9-9.9
			c2.2-8.8,4.5-17.6,8.3-26c1.4-3.2,6.6-5.3,10-7.9c2.4,3.3,5.2,6.5,7.2,9.8c0.8,1.4,0.1,3.5,0.1,5.1
			C318.8,289,319.1,289,319.5,289.1z"/>
		<path id="XMLID_469_" class="st1" d="M267.7,304.8c2.8-10.8,4.5-19.7,7.8-28.3c1-2.7,7.3-6.5,9.6-5.9c3.8,1,9.2,5.4,8.9,7.9
			c-1.4,10.8-4.3,21.7-7.7,32.3c-0.5,1.6-7.7,3.8-9.2,3C273.1,311.4,270.3,307.4,267.7,304.8z"/>
		<path id="XMLID_470_" class="st1" d="M503.5,277.5c2.2-2.3,5.2-7.5,7.2-7.3c4.4,0.6,10.8,3.2,12,6.1c3.5,8.4,6.1,17.4,6.5,26.3
			c0.1,3.6-6.3,7.2-9.7,10.8c-3-2.7-7.7-5-8.9-8.2C507.7,296.7,506.1,287.7,503.5,277.5z"/>
		<path id="XMLID_471_" class="st1" d="M281.9,336.1c-0.6,4.9-0.7,10.8-2.4,16.4c-0.8,2.8-4.8,5-7.2,7.5c-2.9-2.2-8.2-4.3-8.2-6.5
			c-0.2-9.7,0.8-19.5,2-29.2c0.1-1.3,4.8-3.8,5.6-3.4c3.7,1.7,7.7,3.8,10,6.6C283.2,329.2,281.9,332.5,281.9,336.1z"/>
		<path id="XMLID_472_" class="st1" d="M539.6,342.8c0,0.8,0.3,1.9-0.1,2.6c-2.7,4-5.7,7.9-8.5,12c-2.9-3.6-7-6.8-8.4-10.8
			c-2.3-6.4-3.7-13.1-3.8-19.7c0-2.7,3.7-6.5,7-7.8c1.9-0.7,8.2,2.1,9.1,4.2c2.8,6.2,3.8,12.9,5.7,19.4
			C540.3,342.7,539.9,342.7,539.6,342.8z"/>
		<path id="XMLID_473_" class="st1" d="M518.3,119.1c11.9-15.8,28.5-21.7,49.1-22.5c3.8-0.2,9.1-4,10.6-7.1c1.2-2.4-2.4-6.4-4.1-9.6
			c-1.2-2.2-2.6-4.2-3.8-6.3c3.3-0.5,6.9-1.8,9.8-1.1c11.3,2.4,14.9,8.3,13.2,17.9c-0.8,4.5,0.7,9.2,0.5,13.7
			c-0.2,4.7-1.5,9.3-2.7,16.5c-11.1-8.3-20.2-11.1-30.6-5.9c-0.2,0.2-0.7,0.2-1,0.2c-7-0.6-14.2-2.2-21-1.5
			C531.9,114,525.7,116.9,518.3,119.1z"/>
		<path id="XMLID_474_" class="st1" d="M621,85.5c-8,10.8-6.2,26.7-23.9,33.8c0.7-11.8,2.3-23.5,1.5-35c-0.2-4.4-5.8-8.8-9.4-12.8
			c-2.3-2.5-5.7-4.4-8.6-6.6c4.5-3.4,8.4-8.2,13.8-9.8c10.3-3,14.7,0.3,17.5,9C614.1,71.1,617.6,77.9,621,85.5z"/>
		<path id="XMLID_475_" class="st1" d="M581,58.6c-6.6-8.9-16.2-10.5-28-8c-2.4-6.8-8.3-15.5,1.9-18.4c8.3-2.4,21.8-1.2,28.8,3
			C593,40.7,590.4,52.2,581,58.6z"/>
		<path id="XMLID_476_" class="st1" d="M548.5,95.2c3.8-6.1,7.8-11.8,11.2-17.9c2.9-5.4,3-10.7-4.1-14.8c-1.9-1-3.7-4.2-3-5.5
			c0.8-1.7,4.3-3.3,6.8-3.4c9.7-0.3,15.5,3.6,17.7,11.9c-6.9,3.5-17.3,4.7-11.3,15C568.4,85.2,555.8,94.8,548.5,95.2z"/>
		<path id="XMLID_477_" class="st1" d="M530.7,118.1c4.7-0.6,10.3-2.8,13.6-1.5c8.9,3.5,16.4,2.2,24.7-0.7c2.7-0.8,6.2,0.1,9.3,1.7
			C562.6,118.5,547.4,126.9,530.7,118.1z"/>
		<path id="XMLID_478_" class="st1" d="M516.9,110.5c-0.8-6.3-1.6-11.8-2.4-18.3C527.7,101.1,527.8,102.6,516.9,110.5z"/>
		<path id="XMLID_479_" class="st1" d="M543.8,90.8c-0.9-4.5-1.7-9.1-2.8-14.4c4.7,0.6,8.3,1,13.3,1.6c-3,4.8-5.7,9-8.4,13.2
			C545.3,91,544.6,90.9,543.8,90.8z"/>
		<path id="XMLID_480_" class="st1" d="M548.8,74.7c-3.3-2.8-5.6-4.8-7.9-6.8c2.6-1,5.5-3.2,7.7-2.8c2.8,0.4,5.2,2.8,7.8,4.4
			C554.4,71,552.3,72.4,548.8,74.7z"/>
		<path id="XMLID_481_" class="st1" d="M285.9,67.2c4.8-8,13.4-9.6,23.4-9.2c14.1,0.7,22.6,9,20.2,20.1c-0.6,2.5-1.4,5.2-2.8,7.5
			c-4.5,7.2-3.6,13.3,4.3,18.5c-5-1.3-10-3-15.2-3.9c-2.1-0.4-5.9,0.1-6.5,1c-5.1,8.8-15,7.7-27.8,8.5c3.5-9.3,5.7-17.8,10-25.4
			C295.9,76.7,290.2,72.4,285.9,67.2z"/>
		<path id="XMLID_482_" class="st1" d="M276.7,118.6c-6.9-2.1-12-4.3-17.5-5c-5.7-0.8-11.8-0.3-17.7-0.1c-2.1,0.1-4.7,1.5-6.2,0.9
			c-9.7-3.8-18.5-4.4-27.3,1.8c-0.5,0.3-7-3-7.1-4.9c-0.8-9.7-1.3-19.6,0-29.3c0.5-3.4,5.9-7.2,10.4-9.2c3.3-1.5,8.4-0.3,12.7-0.3
			c-1.7,2.4-2.9,5.3-5.2,7.4c-7,6.2-3.5,14.2,7.6,16.3c5.2,0.9,10.8,0.7,16.2,1.5C257.3,100,267.2,107.9,276.7,118.6z"/>
		<path id="XMLID_483_" class="st1" d="M197.6,119.2c-18-7.2-16.2-23.6-24-34.1c3.4-8.2,6.8-15.9,9.6-23.6
			c2.8-7.9,14.5-10.5,21.9-4.8c2.1,1.6,5.2,2.9,6.1,4.9c0.9,2.2,0.7,6.5-0.7,7c-14.2,5.2-16.9,13.2-13.3,25.1
			C199.6,101.6,197.6,110.6,197.6,119.2z"/>
		<path id="XMLID_484_" class="st1" d="M246.2,94.7c-8.2-0.2-18.5-9.9-17.5-15.9c1.6-8.9,1.4-9.2-10-12.8c0.2-9.2,9-15,18.8-12.4
			c5.5,1.4,7.6,5.1,2.9,7.6c-11.9,6.2-7.3,13.4-3.3,20.6C239.7,86.1,243.1,90.2,246.2,94.7z"/>
		<path id="XMLID_485_" class="st1" d="M263.8,119.8c-16.6,6.2-32.2-2.1-48.4-0.8c0.1-1.2,0.1-2.4,0.2-3.6c4.3,0.3,8.5,0.6,12.8,0.7
			c6.2,0.2,12.4,0.2,18.5,0.3c5.8,0.2,11.7,0.5,17.4,0.7C264.3,118,264.1,118.9,263.8,119.8z"/>
		<path id="XMLID_486_" class="st1" d="M239.4,77.5c5.7-0.8,9.2-1.4,13.8-2.1c-0.8,5-1.5,9.7-2.6,16.7
			C246.2,86.6,243.2,82.5,239.4,77.5z"/>
		<path id="XMLID_487_" class="st1" d="M280.3,91.4c-1.2,7.1-2.1,12.4-3,18.1C266.3,102.3,266.5,100.4,280.3,91.4z"/>
		<path id="XMLID_19_" class="st2" d="M239.9,76c-0.7-2.2-2.8-5.1-1.7-6.5c1.6-2.3,5.1-4.5,8.3-5.1c1.7-0.4,4.5,2.3,7,3.6
			c-2.7,1.9-5.5,3.7-8.2,5.6C243.6,74.4,241.7,75.2,239.9,76z"/>
		<path id="XMLID_490_" class="st1" d="M369.5,426.5c-23.3-14.7-30.9-16.5-67.4-16.6c5.2-6.7,13.1-6.7,20.9-6.5
			C343.3,404.1,360.5,412.3,369.5,426.5z"/>
		<path id="XMLID_491_" class="st1" d="M497.3,410.7c-26.7-2.2-49.2,0-68.3,14.1C436.1,406.5,476.3,397.2,497.3,410.7z"/>
	</g>
</g>
</svg>
