<?xml version="1.0" encoding="utf-8"?>
<!-- Generator: Adobe Illustrator 19.0.0, SVG Export Plug-In . SVG Version: 6.00 Build 0)  -->
<svg version="1.1" id="Layer_1" xmlns="http://www.w3.org/2000/svg" xmlns:xlink="http://www.w3.org/1999/xlink" x="0px" y="0px"
	 viewBox="277.4 -302 1187.7 1220" style="enable-background:new 277.4 -302 1187.7 1220;" xml:space="preserve">
<style type="text/css">
	.st0{fill:#010101;}
</style>
<g id="XMLID_272_">
	<path id="XMLID_273_" class="st0" d="M750.2,917c0-69,55.5-124.6,123.9-124.6S998,848,998,917H750.2z"/>
	<path id="XMLID_274_" class="st0" d="M874.1,854.4"/>
	<polygon id="XMLID_275_" class="st0" points="998,917 1469.9,917 1470.3,792.3 	"/>
	<polygon id="XMLID_276_" class="st0" points="945.1,813.5 1465.1,-69.1 1465.1,-271.4 	"/>
	<polygon id="XMLID_277_" class="st0" points="979.2,854.6 1465.1,402.2 1465.1,271.4 	"/>
	<polygon id="XMLID_278_" class="st0" points="989.3,880.9 1465.1,537.2 1465.1,676.3 	"/>
	<path id="XMLID_279_" class="st0" d="M964.7,827l505.1-626.9c0,0,6.1-185.6,1.9-191.2C1467.5,3.3,964.7,827,964.7,827z"/>
	<polygon id="XMLID_280_" class="st0" points="792.4,813.6 272.1,-271.4 272.1,-68.9 	"/>
	<polygon id="XMLID_281_" class="st0" points="750.2,917 277.3,917 277.3,795.6 	"/>
	<polygon id="XMLID_282_" class="st0" points="750.2,880.9 277.3,679.1 277.8,537.2 	"/>
	<polygon id="XMLID_283_" class="st0" points="763.4,855.8 277.8,406.3 277.3,271 	"/>
	<polygon id="XMLID_284_" class="st0" points="783.4,827 277.8,201.1 277.3,18.3 	"/>
	<polygon id="XMLID_285_" class="st0" points="345.8,-302 545.2,-302 825.6,802.7 	"/>
	<polygon id="XMLID_286_" class="st0" points="614.1,-302 817.2,-302 862.9,792.9 	"/>
	<polygon id="XMLID_287_" class="st0" points="890.1,-307 1077.4,-306.6 890.1,788.4 	"/>
	<polygon id="XMLID_288_" class="st0" points="1148.9,-302 1348.3,-302 926.2,802.7 	"/>
</g>
</svg>
