<?xml version="1.0" encoding="utf-8"?>
<!-- Generator: Adobe Illustrator 19.0.0, SVG Export Plug-In . SVG Version: 6.00 Build 0)  -->
<svg version="1.1" id="Layer_1" xmlns="http://www.w3.org/2000/svg" xmlns:xlink="http://www.w3.org/1999/xlink" x="0px" y="0px"
	 viewBox="0 0 1263.1 1224.4" enable-background="new 0 0 1263.1 1224.4" xml:space="preserve">
<g id="XMLID_272_">
	<path id="XMLID_273_" fill="#010101" d="M514.2,1223.4c0-69,55.5-124.6,123.9-124.6s123.9,55.6,123.9,124.6H514.2z"/>
	<path id="XMLID_274_" fill="#010101" d="M638.1,1160.8"/>
	<polygon id="XMLID_275_" fill="#010101" points="762,1223.4 1233.9,1223.4 1234.3,1098.7 	"/>
	<polygon id="XMLID_276_" fill="#010101" points="709.1,1119.9 1229.1,237.3 1229.1,35 	"/>
	<polygon id="XMLID_277_" fill="#010101" points="743.2,1161 1229.1,708.6 1229.1,577.8 	"/>
	<polygon id="XMLID_278_" fill="#010101" points="753.3,1187.3 1229.1,843.6 1229.1,982.7 	"/>
	<path id="XMLID_279_" fill="#010101" d="M728.7,1133.4l505.1-626.9c0,0,6.1-185.6,1.9-191.2
		C1231.5,309.7,728.7,1133.4,728.7,1133.4z"/>
	<polygon id="XMLID_280_" fill="#010101" points="556.4,1120 36.1,35 36.1,237.5 	"/>
	<polygon id="XMLID_281_" fill="#010101" points="514.2,1223.4 41.3,1223.4 41.3,1102 	"/>
	<polygon id="XMLID_282_" fill="#010101" points="514.2,1187.3 41.3,985.5 41.8,843.6 	"/>
	<polygon id="XMLID_283_" fill="#010101" points="527.4,1162.2 41.8,712.7 41.3,577.4 	"/>
	<polygon id="XMLID_284_" fill="#010101" points="547.4,1133.4 41.8,507.5 41.3,324.7 	"/>
	<polygon id="XMLID_285_" fill="#010101" points="109.8,4.4 309.2,4.4 589.6,1109.1 	"/>
	<polygon id="XMLID_286_" fill="#010101" points="378.1,4.4 581.2,4.4 626.9,1099.3 	"/>
	<polygon id="XMLID_287_" fill="#010101" points="654.1,-0.6 841.4,-0.2 654.1,1094.8 	"/>
	<polygon id="XMLID_288_" fill="#010101" points="912.9,4.4 1112.3,4.4 690.2,1109.1 	"/>
</g>
</svg>
