<?xml version="1.0" encoding="utf-8"?>
<!-- Generator: Adobe Illustrator 19.0.0, SVG Export Plug-In . SVG Version: 6.00 Build 0)  -->
<svg version="1.1" id="Layer_1" xmlns="http://www.w3.org/2000/svg" xmlns:xlink="http://www.w3.org/1999/xlink" x="0px" y="0px"
	 viewBox="0 0 612 792" enable-background="new 0 0 612 792" xml:space="preserve">
<g id="XMLID_295_">
	<g id="XMLID_296_">
		<path id="XMLID_297_" fill="#010101" stroke="#FFFFFF" stroke-miterlimit="10" d="M254.8,778.5c0-44,25.6-78.8,57.2-78.8
			s57.2,34.8,57.2,78.8H254.8z"/>
		<path id="XMLID_298_" fill="#010101" stroke="#FFFFFF" stroke-miterlimit="10" d="M312,740.6"/>
		<polygon id="XMLID_299_" fill="#010101" stroke="#FFFFFF" stroke-miterlimit="10" points="369.3,778.5 587.4,778.5 587.6,699.7 		
			"/>
		<polygon id="XMLID_300_" fill="#010101" stroke="#FFFFFF" stroke-miterlimit="10" points="345.1,714.7 585.5,156.3 585.5,28.3 		
			"/>
		<polygon id="XMLID_301_" fill="#010101" stroke="#FFFFFF" stroke-miterlimit="10" points="360.9,740.7 585.5,454.5 585.5,371.7 		
			"/>
		<polygon id="XMLID_302_" fill="#010101" stroke="#FFFFFF" stroke-miterlimit="10" points="365.6,757.3 585.5,539.9 585.5,627.9 		
			"/>
		<path id="XMLID_303_" fill="#010101" stroke="#FFFFFF" stroke-miterlimit="10" d="M353.9,723.2l233.5-396.6c0,0,2.8-117.4,0.9-121
			C586.4,202.1,353.9,723.2,353.9,723.2z"/>
		<polygon id="XMLID_304_" fill="#010101" stroke="#FFFFFF" stroke-miterlimit="10" points="273,714.7 32.5,28.3 32.5,156.4 		"/>
		<polygon id="XMLID_305_" fill="#010101" stroke="#FFFFFF" stroke-miterlimit="10" points="254.8,778.5 33.5,778.5 33.5,700.8 		
			"/>
		<polygon id="XMLID_306_" fill="#010101" stroke="#FFFFFF" stroke-miterlimit="10" points="254.8,757.3 36.2,629.7 36.4,539.9 		
			"/>
		<polygon id="XMLID_307_" fill="#010101" stroke="#FFFFFF" stroke-miterlimit="10" points="260.9,741.5 36.4,457.1 36.2,371.5 		
			"/>
		<polygon id="XMLID_308_" fill="#010101" stroke="#FFFFFF" stroke-miterlimit="10" points="270.1,723.2 36.4,327.2 36.2,211.6 		
			"/>
		<polygon id="XMLID_309_" fill="#010101" stroke="#FFFFFF" stroke-miterlimit="10" points="67.9,7.5 160,7.5 289.6,706.5 		"/>
		<polygon id="XMLID_310_" fill="#010101" stroke="#FFFFFF" stroke-miterlimit="10" points="191.9,7.5 285.8,7.5 306.9,700.2 		"/>
		<polygon id="XMLID_311_" fill="#010101" stroke="#FFFFFF" stroke-miterlimit="10" points="320.5,5.8 407.1,6.1 320.5,698.8 		"/>
		<polygon id="XMLID_312_" fill="#010101" stroke="#FFFFFF" stroke-miterlimit="10" points="439.1,7.5 531.2,7.5 336.2,706.5 		"/>
	</g>
	<path id="XMLID_313_" fill="#010101" stroke="#FFFFFF" stroke-miterlimit="10" d="M49.1,313.9c1.4-4.7,4.6-7.4,8-10
		c8.7-6.6,19-9.6,29.3-12.5c8.7-2.5,17.4-4.6,25.9-7.5c5.1-1.7,10.2-4.2,14.7-7.1c13.9-9,29.1-10.9,45.1-8.7
		c10.5,1.4,19.8,6.1,28.7,11.8c2,1.3,4,2.6,5.7,4.3c2.5,2.5,4.9,5.2,7.1,7.9c1.5,1.8,2.6,4,4.2,5.7c6,6.4,10.2,13.9,13.9,21.6
		c4,8.6,8,17.4,10.2,26.5c3.5,14,10.8,25.2,20.9,35.4c17.8,18,37.3,34,56.7,50.1c8.5,7.1,17.8,13,27,18.8
		c29.3,18.4,56.4,39.7,84,60.3c7.8,5.8,15.3,12.8,19.5,22.1c0.3,0.6,0.6,1.4,1.1,1.8c2.8,2.3,2.2,5.5,2.6,8.6c0.3,2,1.1,4.1,2.1,5.9
		c1.2,2.2,2.7,4.3,4.5,6.1c3.4,3.6,6.8,7.1,10.6,10.3c4.7,3.9,9.7,7.5,14.8,11c3.5,2.4,7.3,4.3,10.9,6.6c1.6,1,3,2.2,4.5,3.4
		c0.6,0.5,1,1.3,1.6,1.7c3.3,2.1,6.9,3.9,10.1,6.1c3.6,2.6,6.8,5.6,10.3,8.2c3.9,2.9,8,5.4,11.8,8.4c3.6,2.8,6.9,5.9,10.1,9.1
		c1.7,1.7,1.5,3.9,0.9,6.4c-1.5-0.6-2.8-1-4.3-1.6c1.7,3,3.2,5.8,4.7,8.5c-0.2,0.2-0.4,0.4-0.6,0.6c-7.8-7.1-16.7-12.5-26.4-16.5
		c14.9,12.4,30.5,23.9,45.2,36.8c-4.2,3.3-6.3-0.4-9.1-1.2c2.3,1.9,4.6,3.8,6.9,5.7c-0.1,0.2-0.3,0.4-0.4,0.6
		c-4.1-2.6-7.9-5.9-13.4-5.8c2.2,1.8,4.4,3.5,6.6,5.3c0.7,0.5,1.5,1,2,1.7c0.4,0.5,0.5,1.4,0.2,2c-0.1,0.3-1.2,0.6-1.7,0.4
		c-0.8-0.2-1.6-0.7-2.4-1.1c-5.3-3.2-10.5-6.4-15.7-9.6c-0.4-0.2-0.8-0.3-1.4-0.3c4.1,4.9,10.8,6.9,14.3,12.4
		c-0.1,0.2-0.2,0.5-0.3,0.7c-0.8-0.2-1.8-0.2-2.5-0.6c-2.5-1.5-4.9-3.1-7.4-4.7c-9.7-6.2-19.3-12.3-29-18.4
		c-0.3-0.2-0.7-0.4-1.7-0.8c1.9,2.6,3.5,4.8,5.1,7c-0.1,0.2-0.3,0.4-0.4,0.6c-0.9-0.4-1.8-0.7-2.6-1.2c-9.6-6.2-19.3-12.3-28.9-18.6
		c-10.3-6.8-20.5-13.7-30.8-20.5c-1.1-0.7-2.4-1.4-3.6-1.5c-15.5-2.2-29.4-8.7-43.6-14.7c-1.8-0.8-3.9-0.7-5.9-1.2
		c-6.5-1.5-12.9-2.9-19.4-4.6c-2.5-0.7-4.9-1.9-7.4-2.8c-4-1.6-8-3.2-12.1-4.6c-1.1-0.4-2.9-0.2-3.7,0.5c-4.6,4.2-10.2,5-16,5.5
		c-2.4,0.2-4.9,0.8-7.1,1.9c-2,1-4.1,2.3-4.4,5c-0.1,0.5-0.6,1.1-1.1,1.3c-1.1,0.4-2.4,0.2-3.3,0.8c-0.8,0.5-1.1,1.7-1.7,2.7
		c-3-2.8-8-0.6-10.2-5.1c-0.8,1.9,2,3.5-0.6,5.3c-0.6-2.7-0.6-5.3-3.6-6.4c0,2.6,0,5.1,0,7.8c-1-0.5-3.4-1-5.6-1.7
		c0.3,2.3,0.4,4.1,0.8,5.8c1.1,4.8,2.5,9.6,3.6,14.5c0.4,2.1,0.6,4.3,0.2,6.4c-0.2,1.3-1.5,2.5-2.4,3.7c-0.7,1-2,1.8-2.2,2.8
		c-1.1,7-6.3,11.4-10.5,16.3c-8.7,10.1-16.5,20.7-23.5,32c-1.2,1.9-2.1,4-3.4,6.6c3.5,0.5,6.5,0.7,9.4,1.4c4.4,1,6.9-2,10.2-3.9
		c6.3-3.6,13.4-2.9,17.5,3.9c1.3,2.2,1.7,4.6,1.2,7.8c-1.8-1.9-3.1-3.5-4.6-4.9c-4.5-4.5-4.5-4.5-9.9-1.4c0,1.6-0.2,3.2,0.1,4.6
		c0.2,0.8,1,1.7,1.7,2.1c4.1,2.1,6.6,5.2,6.7,10.6c-1.1-0.6-2-0.9-2.7-1.4c-2.2-1.6-4.1-3.6-6.4-4.9c-1.1-0.7-2.9-0.5-4.4-0.4
		c-1.9,0.2-2.7,1.4-2.4,3.3c0.5,3.2-1.7,5.6-4.9,5.9c-7.6,0.6-15.3,1.2-22.8,2.3c-7.5,1.1-14.9,2.8-22.4,4.1
		c-3.1,0.5-6.3,0.8-9.7,1.2c0.2-1.1,0.4-2,0.6-3.1c-0.9,0-1.7-0.2-2.5-0.1c-4.9,0.5-9.8,1-14.7,1.4c-4.2,0.4-8.4,0.7-12.5,1
		c-2.6,0.2-3.4-1.1-3.4-3.4c0-3.4-0.9-4.1-4.4-3.2c-2.6,0.7-5.2,1.5-8.2,2.5c1.2-3.2,3.5-4.8,6.2-5.3c3.3-0.6,6.6-0.4,10-0.7
		c1.1-0.1,2.6-0.1,3.4-0.7c3-2.5,6.6-2.7,10.1-3.2c1.5-0.2,3.1-0.5,4.4-1.3c0.6-0.3,0.5-1.8,0.8-2.7c-0.9-0.1-1.9-0.5-2.6-0.3
		c-1.2,0.3-2.4,1.1-3.6,1.7c-0.5-2.5,0.5-4.9,2.8-5.8c3.3-1.2,6.8-2,10.4-0.7c3.6,1.3,7,2.2,10.6-0.4c1.3-0.9,3.6-0.4,5.4-0.9
		c1.7-0.4,3.4-1,4.8-2c4.2-3.1,7.6-6.9,10-11.6c2.4-4.7,4.3-9.6,7.2-14c7.2-10.8,9-23.8,15.6-34.8c0.4-0.7,0.4-1.7,0.2-2.5
		c-3.5-10.7-7.1-21.3-10.8-32c-0.3-0.9-1.3-1.9-2.2-2.4c-13.2-6.4-24.7-15.3-35.4-25.2c-7.3-6.7-15-13-23.3-18.5
		c-13.2-8.8-24.3-19.8-33.4-32.6c-3.8-5.4-6.6-11.5-9.4-17.6c-5.5-12-8.8-24.6-12-37.3c-3.4-13.1-4.5-26.4-3.4-39.7
		c1-12.9-1.2-25.3-3.7-37.8c-0.3-1.5-0.6-2.9-0.8-4.4c-0.9-6.7-3.2-12.9-5.9-19.2c-2.5-6-3.6-12.5-5.6-18.7c-1.6-5-4.4-9.2-8.7-12.7
		c-7.4-6.2-16.3-6.1-25-6.9c-13.7-1.2-27.4-1.5-40.9-4.1C51,314.3,50.2,314.2,49.1,313.9z"/>
</g>
</svg>
