<?xml version="1.0" encoding="utf-8"?>
<!-- Generator: Adobe Illustrator 19.0.0, SVG Export Plug-In . SVG Version: 6.00 Build 0)  -->
<svg version="1.1" id="Layer_1" xmlns="http://www.w3.org/2000/svg" xmlns:xlink="http://www.w3.org/1999/xlink" x="0px" y="0px"
	 viewBox="113.9 -219 576 720" style="enable-background:new 113.9 -219 576 720;" xml:space="preserve">
<style type="text/css">
	.st0{fill:#010101;stroke:#FFFFFF;stroke-miterlimit:10;}
	.st1{fill:#010101;stroke:#FFFFFF;stroke-width:3;stroke-miterlimit:10;}
</style>
<g>
	<g id="XMLID_296_">
		<path id="XMLID_297_" class="st0" d="M343.3,501c0-41,26.7-73.4,59.6-73.4s59.6,32.4,59.6,73.4H343.3z"/>
		<path id="XMLID_298_" class="st0" d="M402.9,465.7"/>
		<polygon id="XMLID_299_" class="st0" points="462.6,501 689.7,501 689.9,427.6 		"/>
		<polygon id="XMLID_300_" class="st0" points="439,441 689.3,-79.3 689.3,-198.6 		"/>
		<polygon id="XMLID_301_" class="st0" points="453.8,465.8 689.9,198.3 689.9,121.8 		"/>
		<polygon id="XMLID_302_" class="st0" points="460.9,481.2 689.9,278.7 689.9,360.7 		"/>
		<path id="XMLID_303_" class="st0" d="M446.5,449.5L689.7,79.9l0.9-112.7C688.6-36.1,446.5,449.5,446.5,449.5z"/>
		<polygon id="XMLID_304_" class="st0" points="362.3,441.6 113.9,-198 113.9,-78.3 		"/>
		<polygon id="XMLID_305_" class="st0" points="344.4,500.5 113.9,500.5 113.9,428.1 		"/>
		<polygon id="XMLID_306_" class="st0" points="341.6,481.2 113.9,362.3 114.1,278.7 		"/>
		<polygon id="XMLID_307_" class="st0" points="347.9,466.5 114.1,201.5 113.9,121.8 		"/>
		<polygon id="XMLID_308_" class="st0" points="357.5,449.5 114.1,80.5 113.9,-27.2 		"/>
		<polygon id="XMLID_309_" class="st0" points="148.7,-217.4 244.6,-217.4 379.6,433.9 		"/>
		<polygon id="XMLID_310_" class="st0" points="277.8,-217.4 375.6,-217.4 397.6,428 		"/>
		<polygon id="XMLID_311_" class="st0" points="411.7,-219 501.9,-218.7 411.7,426.7 		"/>
		<polygon id="XMLID_312_" class="st0" points="535.2,-217.4 631.2,-217.4 428.1,433.9 		"/>
	</g>
	<path id="XMLID_313_" class="st1" d="M129.1,68.1c1.5-4.4,4.8-6.9,8.3-9.3c9.1-6.1,19.8-8.9,30.5-11.6c9.1-2.3,18.1-4.3,27-7
		c5.3-1.6,10.6-3.9,15.3-6.6c14.5-8.4,30.3-10.2,47-8.1c10.9,1.3,20.6,5.7,29.9,11c2.1,1.2,4.2,2.4,5.9,4c2.6,2.3,5.1,4.8,7.4,7.4
		c1.6,1.7,2.7,3.7,4.4,5.3c6.2,6,10.6,13,14.5,20.1c4.2,8,8.3,16.2,10.6,24.7c3.6,13,11.2,23.5,21.8,33c18.5,16.8,38.8,31.7,59,46.7
		c8.9,6.6,18.5,12.1,28.1,17.5c30.5,17.1,58.7,37,87.5,56.2c8.1,5.4,15.9,11.9,20.3,20.6c0.3,0.6,0.6,1.3,1.1,1.7
		c2.9,2.1,2.3,5.1,2.7,8c0.3,1.9,1.1,3.8,2.2,5.5c1.2,2,2.8,4,4.7,5.7c3.5,3.4,7.1,6.6,11,9.6c4.9,3.6,10.1,7,15.4,10.2
		c3.6,2.2,7.6,4,11.4,6.1c1.7,0.9,3.1,2,4.7,3.2c0.6,0.5,1,1.2,1.7,1.6c3.4,2,7.2,3.6,10.5,5.7c3.7,2.4,7.1,5.2,10.7,7.6
		c4.1,2.7,8.3,5,12.3,7.8c3.7,2.6,7.2,5.5,10.5,8.5c1.8,1.6,1.6,3.6,0.9,6c-1.6-0.6-2.9-0.9-4.5-1.5c1.8,2.8,3.3,5.4,4.9,7.9
		c-0.2,0.2-0.4,0.4-0.6,0.6c-8.1-6.6-17.4-11.6-27.5-15.4c15.5,11.6,31.8,22.3,47.1,34.3c-4.4,3.1-6.6-0.4-9.5-1.1
		c2.4,1.8,4.8,3.5,7.2,5.3c-0.1,0.2-0.3,0.4-0.4,0.6c-4.3-2.4-8.2-5.5-14-5.4c2.3,1.7,4.6,3.3,6.9,4.9c0.7,0.5,1.6,0.9,2.1,1.6
		c0.4,0.5,0.5,1.3,0.2,1.9c-0.1,0.3-1.2,0.6-1.8,0.4c-0.8-0.2-1.7-0.7-2.5-1c-5.5-3-10.9-6-16.3-8.9c-0.4-0.2-0.8-0.3-1.5-0.3
		c4.3,4.6,11.2,6.4,14.9,11.6c-0.1,0.2-0.2,0.5-0.3,0.7c-0.8-0.2-1.9-0.2-2.6-0.6c-2.6-1.4-5.1-2.9-7.7-4.4
		c-10.1-5.8-20.1-11.5-30.2-17.1c-0.3-0.2-0.7-0.4-1.8-0.7c2,2.4,3.6,4.5,5.3,6.5c-0.1,0.2-0.3,0.4-0.4,0.6
		c-0.9-0.4-1.9-0.7-2.7-1.1c-10-5.8-20.1-11.5-30.1-17.3c-10.7-6.3-21.3-12.8-32.1-19.1c-1.1-0.7-2.5-1.3-3.7-1.4
		c-16.1-2-30.6-8.1-45.4-13.7c-1.9-0.7-4.1-0.7-6.1-1.1c-6.8-1.4-13.4-2.7-20.2-4.3c-2.6-0.7-5.1-1.8-7.7-2.6
		c-4.2-1.5-8.3-3-12.6-4.3c-1.1-0.4-3-0.2-3.9,0.5c-4.8,3.9-10.6,4.7-16.7,5.1c-2.5,0.2-5.1,0.7-7.4,1.8c-2.1,0.9-4.3,2.1-4.6,4.7
		c-0.1,0.5-0.6,1-1.1,1.2c-1.1,0.4-2.5,0.2-3.4,0.7c-0.8,0.5-1.1,1.6-1.8,2.5c-3.1-2.6-8.3-0.6-10.6-4.8c-0.8,1.8,2.1,3.3-0.6,4.9
		c-0.6-2.5-0.6-4.9-3.7-6c0,2.4,0,4.8,0,7.3c-1-0.5-3.5-0.9-5.8-1.6c0.3,2.1,0.4,3.8,0.8,5.4c1.1,4.5,2.6,8.9,3.7,13.5
		c0.4,2,0.6,4,0.2,6c-0.2,1.2-1.6,2.3-2.5,3.4c-0.7,0.9-2.1,1.7-2.3,2.6c-1.1,6.5-6.6,10.6-10.9,15.2c-9.1,9.4-17.2,19.3-24.5,29.8
		c-1.2,1.8-2.2,3.7-3.5,6.1c3.6,0.5,6.8,0.7,9.8,1.3c4.6,0.9,7.2-1.9,10.6-3.6c6.6-3.4,14-2.7,18.2,3.6c1.4,2,1.8,4.3,1.2,7.3
		c-1.9-1.8-3.2-3.3-4.8-4.6c-4.7-4.2-4.7-4.2-10.3-1.3c0,1.5-0.2,3,0.1,4.3c0.2,0.7,1,1.6,1.8,2c4.3,2,6.9,4.8,7,9.9
		c-1.1-0.6-2.1-0.8-2.8-1.3c-2.3-1.5-4.3-3.4-6.7-4.6c-1.1-0.7-3-0.5-4.6-0.4c-2,0.2-2.8,1.3-2.5,3.1c0.5,3-1.8,5.2-5.1,5.5
		c-7.9,0.6-15.9,1.1-23.7,2.1c-7.8,1-15.5,2.6-23.3,3.8c-3.2,0.5-6.6,0.7-10.1,1.1c0.2-1,0.4-1.9,0.6-2.9c-0.9,0-1.8-0.2-2.6-0.1
		c-5.1,0.5-10.2,0.9-15.3,1.3c-4.4,0.4-8.7,0.7-13,0.9c-2.7,0.2-3.5-1-3.5-3.2c0-3.2-0.9-3.8-4.6-3c-2.7,0.7-5.4,1.4-8.5,2.3
		c1.2-3,3.6-4.5,6.5-4.9c3.4-0.6,6.9-0.4,10.4-0.7c1.1-0.1,2.7-0.1,3.5-0.7c3.1-2.3,6.9-2.5,10.5-3c1.6-0.2,3.2-0.5,4.6-1.2
		c0.6-0.3,0.5-1.7,0.8-2.5c-0.9-0.1-2-0.5-2.7-0.3c-1.2,0.3-2.5,1-3.7,1.6c-0.5-2.3,0.5-4.6,2.9-5.4c3.4-1.1,7.1-1.9,10.8-0.7
		c3.7,1.2,7.3,2,11-0.4c1.4-0.8,3.7-0.4,5.6-0.8c1.8-0.4,3.5-0.9,5-1.9c4.4-2.9,7.9-6.4,10.4-10.8c2.5-4.4,4.5-8.9,7.5-13
		c7.5-10.1,9.4-22.2,16.2-32.4c0.4-0.7,0.4-1.6,0.2-2.3c-3.6-10-7.4-19.8-11.2-29.8c-0.3-0.8-1.4-1.8-2.3-2.2
		c-13.7-6-25.7-14.3-36.9-23.5c-7.6-6.2-15.6-12.1-24.3-17.2c-13.7-8.2-25.3-18.4-34.8-30.4c-4-5-6.9-10.7-9.8-16.4
		c-5.7-11.2-9.2-22.9-12.5-34.8c-3.5-12.2-4.7-24.6-3.5-37c1-12-1.2-23.6-3.9-35.2c-0.3-1.4-0.6-2.7-0.8-4.1
		c-0.9-6.2-3.3-12-6.1-17.9c-2.6-5.6-3.7-11.6-5.8-17.4c-1.7-4.7-4.6-8.6-9.1-11.8c-7.7-5.8-17-5.7-26-6.4
		c-14.3-1.1-28.5-1.4-42.6-3.8C131.1,68.5,130.3,68.4,129.1,68.1z"/>
</g>
</svg>
