<?xml version="1.0" encoding="utf-8"?>
<!-- Generator: Adobe Illustrator 19.0.0, SVG Export Plug-In . SVG Version: 6.00 Build 0)  -->
<svg version="1.1" id="Layer_1" xmlns="http://www.w3.org/2000/svg" xmlns:xlink="http://www.w3.org/1999/xlink" x="0px" y="0px"
	 viewBox="0 0 960 560" enable-background="new 0 0 960 560" xml:space="preserve">
<g id="XMLID_32_">
	<path id="XMLID_33_" d="M263.6,255.3c-2.7-2.3-5.9-3.4-9.4-3.4c-5.5,0-9.5,2.1-12,6.2c-2.6,4.1-3.8,9.3-3.8,15.4
		c0,6.6,1.3,11.9,3.9,15.8c2.6,4,6.5,5.9,11.8,5.9c5.3,0,9.3-2,12.1-5.9c2.8-3.9,4.1-9,4.1-15.3C270.2,265.3,268,259.1,263.6,255.3z
		"/>
	<path id="XMLID_34_" d="M346.4,254.7c-3-2.6-6.7-3.9-11.1-3.9c-4.8,0-8.5,1.4-11.2,4.1s-4.3,6.1-5,11.1h32.2
		C351.1,261,349.4,257.3,346.4,254.7z"/>
	<path id="XMLID_35_" d="M636.1,267.7c-2.3-1-5.5-1.7-9.7-1.7H603v26h23.1c4.2,0,7.4-0.6,9.8-1.7c4.2-2.1,6.3-6.2,6.3-12.1
		C642.2,273.1,640.2,269.6,636.1,267.7z"/>
	<path id="XMLID_36_" d="M636.3,247.7c2.6-1.6,3.9-4.4,3.9-8.4c0-4.5-1.7-7.4-5.2-8.8c-3-1-6.8-1.4-11.4-1.4H603v21h23.1
		C630.3,250,633.7,249.3,636.3,247.7z"/>
	<path id="XMLID_37_" d="M180,277.1l-4.3,0.8c-4,0.7-6.8,1.6-8.6,2.6c-2.9,1.7-4.4,4.3-4.4,7.9c0,3.2,0.9,5.5,2.7,6.9
		c1.8,1.4,4,2.1,6.6,2.1c4.1,0,8-1.2,11.4-3.5c3.4-2.4,5.5-6.7,5.5-12.9V274c-2,0.7-2.6,1.3-3.8,1.8
		C184,276.3,182.2,276.7,180,277.1z"/>
	<path id="XMLID_40_" d="M0,0v560h960V0H0z M137,229H89v22h42v17H89v41H68v-97h69V229z M211,309h-20c-0.6-2-1-2.9-1.2-4.2
		c-0.2-1.3-0.4-2.8-0.5-4.4c-2.6,2.8-5.6,5.1-9,7.1c-4,2.3-8.6,3.5-13.7,3.5c-6.5,0-11.9-1.9-16.1-5.5s-6.4-8.9-6.4-15.7
		c0-8.8,3.4-15.1,10.2-19.1c3.7-2.1,9.2-3.7,16.5-4.6l6.4-0.8c3.5-0.4,6-1,7.5-1.6c2.7-1.1,4-2.9,4-5.3c0-2.9-1-4.9-3.1-6.1
		s-5.1-1.7-9.1-1.7c-4.5,0-7.6,0.9-9.5,3.1c-1.3,1.6-2.2,4.3-2.7,6.3h-18c0.4-6,2.1-11.2,5.3-15.2c5-6.3,13.5-9.3,25.5-9.3
		c7.9,0,14.7,1.6,20.8,4.7c6.1,3.1,9,9,9,17.6v32.8c0,2.3,0.2,5,0.3,8.3c0.1,2.4,0.4,4.1,1,5c0.6,0.9,1.7,1.6,2.7,2.2V309z M289,309
		h-19v-10.1c-2,4.2-5.5,7.3-8.9,9.2c-3.4,1.9-7.5,2.9-12.6,2.9c-8.3,0-15.3-3.4-21-10.1c-5.7-6.8-8.5-15.4-8.5-26
		c0-12.2,2.8-21.8,8.4-28.8c5.6-7,13.1-10.5,22.5-10.5c4.3,0,8.3,1,11.7,2.9c3.4,1.9,6.3,4.5,8.3,7.9V212h19V309z M370.8,278h-52
		c0.3,7,2.8,12.3,7.5,15.2c2.9,1.8,6.3,2.8,10.3,2.8c4.3,0,7.7-1,10.4-3.2c1.5-1.2,2.7-2.8,3.8-4.8h19.1c-0.5,4-2.8,8.5-6.9,12.8
		c-6.4,6.9-15.4,10.4-26.9,10.4c-9.5,0-17.9-2.9-25.2-8.8S300,287,300,273.8c0-12.4,3.3-21.9,9.8-28.5c6.6-6.6,15.1-9.9,25.5-9.9
		c6.2,0,11.8,1.1,16.8,3.3c5,2.2,9.1,5.8,12.3,10.6c2.9,4.2,4.8,9,5.7,14.6C370.7,267.2,370.9,272,370.8,278z M450,251h-11v38
		c0,2.9,0.2,4.8,0.9,5.5c0.7,0.7,2.9,1.1,6.7,1.1c0.6,0,1,0,1.6,0c0.6,0,1.7-0.1,1.7-0.1v14l-8.7,0.3c-8.8,0.3-14.9-1.2-18.1-4.6
		c-2.1-2.1-3.2-5.4-3.2-9.9V251h-10v-13h10v-20h19v20h11V251z M521.8,300c-6,7.4-15.2,11.2-27.5,11.2c-12.3,0-21.4-3.7-27.5-11.2
		c-6-7.4-9-16.4-9-26.9c0-10.3,3-19.2,9-26.8c6-7.6,15.2-11.3,27.5-11.3c12.3,0,21.4,3.8,27.5,11.3s9,16.5,9,26.8
		C530.9,283.6,527.9,292.6,521.8,300z M658.3,295c-1.8,3-4.1,5.5-6.8,7.6c-3.1,2.4-6.7,4.1-10.9,5c-4.2,0.9-8.7,1.4-13.7,1.4H583
		v-97h47.1c11.8,0,20.1,3.7,25,10.4c3,4.1,4.4,9.1,4.4,14.8c0,5.9-1.5,10.7-4.5,14.2c-1.7,2-4.1,3.9-7.4,5.5
		c4.9,1.8,8.7,4.6,11.2,8.5c2.5,3.9,3.8,8.6,3.8,14.2C662.6,285.3,661.2,290.4,658.3,295z M698,309h-19v-97h19V309z M778,309h-20.2
		c-0.6-2-1-2.9-1.2-4.2c-0.2-1.3-0.4-2.8-0.5-4.4c-2.6,2.8-5.6,5.1-9,7.1c-4,2.3-8.6,3.5-13.7,3.5c-6.5,0-11.9-1.9-16.1-5.5
		s-6.4-8.9-6.4-15.7c0-8.8,3.4-15.1,10.2-19.1c3.7-2.1,9.2-3.7,16.5-4.6l6.4-0.8c3.5-0.4,6-1,7.5-1.6c2.7-1.1,4-2.9,4-5.3
		c0-2.9-1-4.9-3.1-6.1c-2.1-1.1-5.1-1.7-9.1-1.7c-4.5,0-7.6,0.9-9.5,3.1c-1.3,1.6-2.2,4.3-2.7,6.3h-18c0.4-6,2.1-11.2,5.3-15.2
		c5-6.3,13.5-9.3,25.5-9.3c7.9,0,14.8,1.6,20.9,4.7c6.1,3.1,9.1,9,9.1,17.6v32.8c0,2.3,0.1,5,0.2,8.3c0.1,2.4,0.5,4.1,1.1,5
		c0.6,0.9,1.7,1.6,2.7,2.2V309z M807.7,286.6c2.2,5.9,6.4,8.9,12.6,8.9c4.4,0,7.5-1.1,9.3-3.4c1.8-2.4,3-5.1,3.3-9.1h19.1
		c-0.4,5-2.5,11-6.2,16c-5.9,8.2-14.5,12.2-26,12.2c-11.5,0-20-3.4-25.4-10.2c-5.4-6.8-8.1-15.7-8.1-26.5c0-12.3,3-21.8,9-28.6
		c6-6.8,14.3-10.2,24.8-10.2c9,0,16.3,2,22,6.1c5.7,4,9.1,11.3,10.1,21.3h-19.1c-0.3-3-1.2-5.1-2.7-7.2c-2.1-2.9-5.4-4.3-9.8-4.3
		c-6.3,0-10.6,3.1-12.9,9.4c-1.2,3.3-1.8,7.7-1.8,13.2C805.9,279.2,806.5,283.4,807.7,286.6z M908.3,309l-17.4-30.6l-7.8,7.9V309
		h-18v-97h18v52.6l23.8-26.6H930l-25.6,26.6L931,309H908.3z"/>
	<path id="XMLID_51_" d="M494.3,250.8c-5.5,0-9.7,1.9-12.6,5.8s-4.4,9.4-4.4,16.5c0,7.2,1.5,12.7,4.4,16.6c2.9,3.9,7.2,5.8,12.6,5.8
		c5.5,0,9.7-1.9,12.6-5.8c2.9-3.9,4.4-9.4,4.4-16.6c0-7.2-1.5-12.7-4.4-16.5C504,252.7,499.8,250.8,494.3,250.8z"/>
	<path id="XMLID_52_" d="M746.8,277.1l-4.3,0.8c-4,0.7-6.8,1.6-8.6,2.6c-2.9,1.7-4.4,4.3-4.4,7.9c0,3.2,0.9,5.5,2.7,6.9
		c1.8,1.4,4,2.1,6.6,2.1c4.1,0,7.6-1.2,11-3.5c3.4-2.4,5.1-6.7,5.1-12.9V274c-1,0.7-2.2,1.3-3.4,1.8
		C750.4,276.3,749,276.7,746.8,277.1z"/>
</g>
</svg>
