<?xml version="1.0" encoding="utf-8"?>
<!-- Generator: Adobe Illustrator 19.0.0, SVG Export Plug-In . SVG Version: 6.00 Build 0)  -->
<svg version="1.1" id="Layer_1" xmlns="http://www.w3.org/2000/svg" xmlns:xlink="http://www.w3.org/1999/xlink" x="0px" y="0px"
	 viewBox="-17 0 900 570" style="enable-background:new -17 0 900 570;" xml:space="preserve">
<style type="text/css">
	.st0{fill:#010101;stroke:#000000;stroke-width:5;stroke-miterlimit:10;}
	.st1{stroke:#FFFFFF;stroke-width:10;stroke-miterlimit:10;}
	.st2{fill:#FFFFFF;stroke:#000000;stroke-miterlimit:10;}
	.st3{font-family:'CapitalsRegular';}
	.st4{font-size:72px;}
</style>
<path class="st0" d="M361.2,361.5C361.4,361.1,0,0,0,0h105L361.2,361.5z"/>
<path class="st0" d="M433.2,391.1C433.6,391.3,883-0.7,883-0.7v102.5L433.2,391.1z"/>
<path class="st0" d="M413.2,352.9C413.5,353,498-7.9,498-7.9l62.1,10L413.2,352.9z"/>
<path class="st0" d="M394.9,351.8C395.2,351.7,374-0.7,374-0.7L434,1L394.9,351.8z"/>
<path class="st0" d="M378.9,360.8c0.3-0.3-160.5-358.3-160.5-358.3l67.2-0.4L378.9,360.8z"/>
<circle class="st1" cx="400" cy="368.8" r="70.5"/>
<path class="st2" d="M372,365.5c-0.3-1.5-0.6-3.1-1-4.6c-3.1-9.8-6.3-19.6-9.3-29.5c-0.7-2.3-1-4.9-0.8-7.4c0.1-1.5,1.4-3.9,2.6-4.1
	c1.6-0.3,4.1,0.5,5,1.8c1.8,2.3,2.8,5.2,4,8c3.1,7.5,6,15.2,9.3,22.6c0.7,1.6,2.6,2.6,4,3.9c0.8-1.8,2.2-3.6,2.3-5.4
	c0.8-12.1,1.3-24.3,1.9-36.4c0.1-1.2,0.2-2.3,0.5-3.4c0.8-2.7,1-6,4.9-5.8s4.9,3.3,5.2,6.3c0.5,6.8,0.8,13.6,0.8,20.4
	c0,6.7-0.5,13.3-0.4,20c0,1.7,1.5,3.3,2.3,5c1.4-1.3,3.4-2.3,4-3.9c2.4-6.5,4.3-13.3,6.6-19.9c1.7-5,3.4-10.1,5.7-14.8
	c0.8-1.6,3.5-2.4,5.3-3.5c1,1.9,3.1,4,2.8,5.7c-1.5,11.5-3.8,22.9-5.3,34.4c-1,7.7-2.2,15.5-1.5,23.2c0.7,8.3,6.3,9.8,12.4,4.1
	c3.8-3.5,7-7.7,10.9-10.9c2.3-1.9,5.5-3.3,8.4-3.8c3.9-0.6,5.9,2.7,4,6.1c-4.1,7.2-8.3,14.2-14.4,20.2c-6.4,6.4-11.1,14.5-16.5,21.8
	c-5.8,8-12.6,14.7-22.9,16.5c-14.7,2.5-28.1-5.5-33.5-20c-1.3-3.6-2.8-7.3-3-11c-1-16.2-8.7-29.4-17.7-42.2
	c-2.4-3.3-4.2-7.2-5.5-11.1c-0.6-1.6,0.7-3.9,1.2-5.8c2,0.7,4.7,0.8,5.9,2.2c4.8,5.3,8.9,11.2,13.6,16.6c1.9,2.3,4.5,4,6.8,6
	C370.9,366.3,371.4,365.9,372,365.5z"/>
<g>
	<g>
		<g>
			<g>
				<g>
					<path d="M232.5,523.2C232.2,523.1,232,523.4,232.5,523.2L232.5,523.2z"/>
					<path d="M497.1,517.4c0.1,0,0.2,0,0.3,0c0.2-0.8,0.4-1.5,0.5-2L497.1,517.4z"/>
					<path d="M539.6,522.4c0.1,0.1,0.2,0.1,0.3,0.2C539.9,522.1,539.9,521.6,539.6,522.4z"/>
					<path d="M399,524.8c-0.4,0-0.6,0.1-0.7,0.4C398.5,525.1,398.7,524.9,399,524.8z"/>
					<path d="M154.5,527.5c0,0,0.1,0,0.2-0.1c-0.1-0.2-0.3-0.3-0.5-0.5L154.5,527.5z"/>
					<path d="M155.4,526.1c0.9,0.6-0.3,1.1-0.7,1.3c1,1.1,2.1,1.2,3.1,0.7C157.8,526.9,155.9,527.1,155.4,526.1z"/>
					<path d="M13.1,530.9l0.4-0.5C13.3,530.6,13.2,530.7,13.1,530.9z"/>
					<path d="M403.2,585.5c-0.2,0.1-0.4,0.2-0.6,0.3C402.9,585.8,403.1,585.7,403.2,585.5z"/>
					<path d="M35.4,532.2l0.2-2C35.4,531,35.4,531.6,35.4,532.2z"/>
					<path d="M497.9,515.3l0.3-0.8C498.1,514.8,498,515,497.9,515.3z"/>
					<path d="M579,523.6c0,0.6,0.1,1.1,0.2,1.5h0.1L579,523.6z"/>
					<path d="M777.2,554.8c0-0.2,0-0.5-0.1-0.8l-0.8,1.4C776.7,555.3,777,555.1,777.2,554.8z"/>
					<path d="M632.9,532.1c0-0.2,0.2-0.4,0.2-0.7c-0.9-0.7-3.4-0.8-6.5-0.7l-0.2,2.4L632.9,532.1z"/>
					<path d="M759.1,588.2l-6.4-4.8c20.6-2.2,30.2,2.6,47.9-1.3l-1,1c2.6,1.1,4-9.7,32.4,3.5v0.5c1-0.1,1-1,2.9,0.2l-4.9-3
						c2.9-1.2,5.5-3.5,9.4-3.9c0.8,0.5,1.1,1.5,1.2,2.3l9.6-0.8l2.9,3.1c2.9-1.7,1.6-8.3,9.5-4.6c-3-4.6,3.9-2.7,2.9-5.1
						c0.4,0.6,1.3,1.4,2,2.2c4.7-0.5,13.5-1.8,15.6-4.2c0,0-18.3-9.6-23.2-14.5c6.6,1.2,1.8-0.6,0.4-2.1l-0.4,1.1
						c-3.9-1.1-3.9-4-5.9-4.8c0,0.2,0.1,0.5,0.1,0.8l0.2-0.4c0.2,0.5,0.1,0.9-0.1,1.2c0,0.6-0.1,1.1-1.2,0.9l0.2-0.3
						c-1.7,0.4-4.5,0-5.7-0.2v-2.4c-2.9,4.6-19.6-7-23.5-7.2c-3.9-3-8.8,0.8-13.7-0.8c-7.8-0.8-3.9-3.5-7.8-5.6c-4.9-1.5,1,2.8-1,3
						l-5.9-3.4c3.5-0.3,1.6-1.7,0.9-2.7c-5.1-0.4-13.1-4.8-14.6,0c-6.8-2.3-6.9-4.2-9.8-4.5c1,0.9,2.9,1.7,3,2.6
						c-2.8-2.1-1.3,0.5-0.2,1c-4.2,2.1-21.8-8.8-22.6-3.5v-1c-1,3.9,0.6,7.8-2.3,9.9l-2-1.8l-2.9,1.7c-2-1.3-1-2.3-1-2.8
						c-4.8,1.8-11.5-0.4-17.3-0.9l6.1,10.7c-4.9-2.5-13.7-7.5-14.7-4.1l-2.9-3.6c-9.8-6.9-6.8,3-10.8,0.9l-4.9-3.9l4.9,0.1
						c-4.9-2-6.9-3.3-10.8-5.8v0.1c0.2,0.2,0.4,0.4,0.4,0.6l-0.7,0.1c-0.6,2-3.1,3.3-6.6,3.2c-4.9-0.6-8.7,2.3-16.6-1.8l-2,4
						l-5.9-2.4v-3.2c5.8,0.2,16.6-1,24-1.2l0.1-1.5c-4.4,0-9.4,1.4-12.3,1.1c-1.5-0.6-5-4-2.5-6.1l-2.7,3.1
						c-14.6,0.4-14.7,0.5-30-3.1l1.3,1.6c-3,0.9-6,1.9-6.9-0.7c-9.1-0.5-18.7-2.5-24.7-6.6l-1.3,3.8c-1.9-0.2-4.8-5.9-5.8-0.6
						l-4.1,1.7c-2.7-0.3-4.2,1.9-7.3-0.3l0,0l0,0c-0.2-0.1-0.3-0.3-0.6-0.4c0,0.1,0,0.2,0,0.3c-6-1.7,0.1,3.4-6.8,1.2
						c-2.2-2.7-2.5,4.8-5.8,3.9l-3.3-5.4c-6-3.1-7.1,2.3-16,2.3c-4.2-1.9-6.2-6.5-3.5-10.6c-3.8,5-1.8,3.2-6.8,5.6
						c-0.8-2-0.2-2.5,0.9-4.3c-4.6-2.4-2.8,1.8-6.2,1.7c-1,3.8-2.1,10-3.2,10.2l1.3,1.2c-3.6,2.1-7.6,3-11.8,1.1l0.1-1.9l-4.5,1
						l-0.3-2.5l-6.4,0.8l0.9,0.7c-1.5,0.3-6.5,1.2-9.3-0.1l0.1-1.4c-7.9-4.3-14.5,1.3-23.8,1.8l1.2-2.8c-3.1-2.8-0.9,4.3-4.7,2.9
						l-0.2-3.4c-3.3,4.5-4.4-1-6.6-2.7l1.1,4.5l-4.4-1c-4.8-1.5-2.9-5.7-2.2-8.1l-3.2,3.6l-0.7-4c-2.3,4.6-2.3-0.7-6.5,1.7
						c-0.3-1.5,0.7-2.4-0.7-3l-6.8,5.6l4.1-2.5l-0.4,5.8c-4.2,4.4-5.8-0.6-8.9,1l2.1-1.7c-5,1.4-5.2-1.1-8.1-2.3
						c0.9,1.1,2.2,2.7,0.2,3.4c-1.5,0.3-0.8-2-2.2-2.7c-0.3,3.9-3.9,5.9-7.1,4.1c0-0.6,0.1-1.1,0.3-1.4c-0.8,0.6-1.2,1.6-2.7,0.7
						l0.9-4.3l-2.8,4.1c-1.9-1.2-4.6,1.9-4.4-1l1-0.9l-14.1-1l-0.2-3.4c-1.3,4.7-7.7-1.8-7.1,4.1c-2.7-3.2-10.5,2.3-8.9-4.4
						c-9.3-0.5-14.2,5.9-25.4,2.7c-4-5.7-14.9-3.8-22.2-4.4c-14.1,2.4-23.2,4.5-37.6,6.3c-8.7-7.9-21.6,2.7-30.9-1.7l-2.6,3.1
						c-6.1-5-15.6,1.1-24.3-3.8c-2.1,1.4-3.2,1.8-3.8,1.9c0.4,0.2,1,0.7,1.2,2.7c-2.5-1.4-7.5,0.4-7.1-3.6l0.7-0.4
						c0.3-4-7.5,1.9-10.3-1.6l1.6,4.3l-4.7-0.7l1.2-0.8c-20.4,9.5-29.7-4.1-48.8,4.6c2.6-4.7-3.8,2.4-4-2.6
						c-4.8-6.4-8.9,1.4-12.9,3.1c0,0.2,0,0.5-0.2,0.9l-6.9-0.6c4.1-6.4-5,5.3-1.2-0.1c-18.1-4.8-41.6,0.1-62.6-2.1l0.9,1.7
						c-5.4-0.3-11.9,1.7-16-1c-4-2.6-8.8,4.2-10.4,4.5c-4.5,2.8-8.5-2.8-6.6-2.5c-4.7,0.8-9.1,6.7-15.7,4.1
						c-2.2-5.5-17.9,5.4-18.1-0.8l-0.1,0.5c-8.4-4.3-16.3,3-25.3-0.9c0,0,0.2-0.5,0.4-0.9L-17,549.3l5.2,20.5l16,16.7l43.2-3.6
						l34.5,6.5l83.8-2.2l6-4.6c16.5,8.1,37.6-1.2,55.3,4.6l0.3-4c5-0.2,4.7,2.2,5.9,2.9c46.5-0.9,94.5-6.2,136.3-1.2
						c4,2.6,16.3,1.1,19.5,3.9c13.6-4.9,28-4.8,41.6-4.3l-0.6,0.4l6.4-0.8c0.2,0.3,0.3,0.8,0.1,1.1c7.3-3.5,18.6,0,27.4,1.4
						l-0.6,0.4c51.7,0.7,99.6-6.7,150.9-1.2c23.9,6.5,51.5-2.5,78.9,2.9C698.8,593.1,754.1,590.1,759.1,588.2z"/>
					<path d="M764.9,582.9h-0.2C764.7,584.6,765,583.9,764.9,582.9z"/>
					<path d="M662.4,537c0.1,0,0.2,0,0.3,0l-1.2-2.4L662.4,537z"/>
					<path d="M728,535.6c-2.9-0.5-3.1-0.1-2.7,0.6C726.4,536.3,727.4,536.1,728,535.6z"/>
					<path d="M788.9,579.7c1.5,0.1,1-0.9,0-2c-1.6,0.2-2.7,0.3-2.7,0.3C787.2,578.4,788.1,579.3,788.9,579.7z"/>
					<path d="M782.6,556.9l0.5-1.4C782.2,555.9,782.2,556.4,782.6,556.9z"/>
				</g>
			</g>
		</g>
	</g>
</g>
<text transform="matrix(1 0 0 1 143.6034 501.5862)" class="st3 st4">Fade to Black</text>
</svg>
