<?xml version="1.0" encoding="utf-8"?>
<!-- Generator: Adobe Illustrator 19.0.1, SVG Export Plug-In . SVG Version: 6.00 Build 0)  -->
<svg version="1.1" id="Layer_1" xmlns="http://www.w3.org/2000/svg" xmlns:xlink="http://www.w3.org/1999/xlink" x="0px" y="0px"
	 viewBox="-165 95 100 100" style="enable-background:new -165 95 100 100;" xml:space="preserve">
<style type="text/css">
	.st0{fill:none;stroke:#000000;stroke-width:2;stroke-miterlimit:10;}
</style>
<path class="st0" d="M-94.1,152.1h-20.2c-1.5,0-2.7-0.9-2.7-1.9v-6.3c0-1.1,1.2-1.9,2.7-1.9h20.2c1.5,0,2.7,0.9,2.7,1.9v6.3
	C-91.4,151.2-92.6,152.1-94.1,152.1z"/>
<path class="st0" d="M-122.6,152.1h37v2.1c0,0-1.8,0.9-4.9,4c-1.5,3.7-0.9,6.1-0.9,6.1H-117c0,0,0.4-4.2-1.4-6.7
	c-1.8-2.6-4.2-3.3-4.2-3.3V152.1z"/>
<circle class="st0" cx="-124.6" cy="161.9" r="7.6"/>
<circle class="st0" cx="-84.8" cy="162.3" r="6.6"/>
<line class="st0" x1="-122.6" y1="152.1" x2="-152.6" y2="122.1"/>
</svg>
