<svg xmlns="http://www.w3.org/2000/svg" xmlns:xlink="http://www.w3.org/1999/xlink" version="1.1" id="Layer_1" x="0px" y="0px" viewBox="0 0 100 100" enable-background="new 0 0 100 100" xml:space="preserve">
<g>
	<path fill="#FFFFFF" stroke="#000000" stroke-width="2" stroke-miterlimit="10" d="M70.9 61.2H50.7c-1.5 0-2.7-1.2-2.7-2.7v-8.8 c0-1.5 1.2-2.7 2.7-2.7h20.2c1.5 0 2.7 1.2 2.7 2.7v8.8C73.6 59.9 72.4 61.2 70.9 61.2z"/>
	<rect x="42.4" y="57.1" fill="#FFFFFF" stroke="#000000" stroke-width="2" stroke-miterlimit="10" width="37" height="12.2"/>
	<circle fill="#FFFFFF" stroke="#000000" stroke-width="2" stroke-miterlimit="10" cx="40.4" cy="66.9" r="7.6"/>
	<circle fill="#FFFFFF" stroke="#000000" stroke-width="2" stroke-miterlimit="10" cx="81.6" cy="66.9" r="8"/>
	<line fill="none" stroke="#000000" stroke-width="2" stroke-miterlimit="10" x1="42.4" y1="57.1" x2="10.4" y2="25.1"/>
</g>
</svg>
<?xml version="1.0" encoding="utf-8"?>
<!-- Generator: Adobe Illustrator 19.0.1, SVG Export Plug-In . SVG Version: 6.00 Build 0)  -->
<svg version="1.1" id="Layer_1" xmlns="http://www.w3.org/2000/svg" xmlns:xlink="http://www.w3.org/1999/xlink" x="0px" y="0px"
	 viewBox="-165 95 100 100" style="enable-background:new -165 95 100 100;" xml:space="preserve">
<style type="text/css">
	.st0{fill:none;stroke:#000000;stroke-width:2;stroke-miterlimit:10;}
</style>
<path class="st0" d="M-94.1,152.1h-20.2c-1.5,0-2.7-0.9-2.7-1.9v-6.3c0-1.1,1.2-1.9,2.7-1.9h20.2c1.5,0,2.7,0.9,2.7,1.9v6.3
	C-91.4,151.2-92.6,152.1-94.1,152.1z"/>
<path class="st0" d="M-122.6,152.1h37v2.1c0,0-1.8,0.9-4.9,4c-1.5,3.7-0.9,6.1-0.9,6.1H-117c0,0,0.4-4.2-1.4-6.7
	c-1.8-2.6-4.2-3.3-4.2-3.3V152.1z"/>
<circle class="st0" cx="-124.6" cy="161.9" r="7.6"/>
<circle class="st0" cx="-84.8" cy="162.3" r="6.6"/>
<line class="st0" x1="-122.6" y1="152.1" x2="-152.6" y2="122.1"/>
</svg>
