<?xml version="1.0" encoding="utf-8"?>
<!-- Generator: Adobe Illustrator 18.1.1, SVG Export Plug-In . SVG Version: 6.00 Build 0)  -->
<svg version="1.1" id="Layer_1" xmlns="http://www.w3.org/2000/svg" xmlns:xlink="http://www.w3.org/1999/xlink" x="0px" y="0px"
	 viewBox="-1 3 100 100" enable-background="new -1 3 100 100" xml:space="preserve">
<path fill="none" stroke="#000000" stroke-width="1.67" stroke-linecap="round" stroke-linejoin="round" stroke-miterlimit="1.4142" d="
	M50.1,63.9L75.9,63c0,0-0.1,15.2-25.7,16.1C24.6,80,23.6,64.8,23.6,64.8L50.1,63.9l-0.4-10.6h0l-0.9-24l0,0l0.9,24l-24.1,0.8
	l23.2-24.9l0,0l26,23.2l-25.2,0.9L50.1,63.9z"/>
<path fill="none" stroke="#000000" stroke-width="0.89" stroke-linecap="round" stroke-linejoin="round" stroke-miterlimit="1.4142" d="
	M98.7,70.2l-0.1,33.2l-99.9,0.1l0.2-33.1c0,0-1.4-3.5,18.1-3.5c19.5,0,26.7,11.9,34.8,11.9c8.1,0,18.3-11.9,31.4-11.9
	C96.1,66.9,98.7,70.2,98.7,70.2z"/>
<path fill="none" stroke="#000000" stroke-width="1.11" stroke-linecap="round" stroke-linejoin="round" stroke-miterlimit="1.4142" d="
	M26.1,60.2l4.7-0.2v3.4L26,63.6L26.1,60.2z"/>
<path fill="none" stroke="#000000" stroke-width="1.11" stroke-linecap="round" stroke-linejoin="round" stroke-miterlimit="1.4142" d="
	M32.2,60l4.7-0.2v3.4l-4.8,0.2L32.2,60z"/>
<path fill="none" stroke="#000000" stroke-width="1.11" stroke-linecap="round" stroke-linejoin="round" stroke-miterlimit="1.4142" d="
	M65.7,58.8l5-0.2v3.7l-5.2,0.2L65.7,58.8z"/>
<path fill="none" stroke="#000000" stroke-width="1.11" stroke-linecap="round" stroke-linejoin="round" stroke-miterlimit="1.4142" d="
	M59.7,59.4l4.7-0.2v3.4l-4.8,0.2L59.7,59.4z"/>
<path fill="none" stroke="#000000" stroke-width="1.11" stroke-linecap="round" stroke-linejoin="round" stroke-miterlimit="1.4142" d="
	M62.8,55.4l4.7-0.2v3.4l-4.8,0.2L62.8,55.4z"/>
</svg>
