<?xml version="1.0" standalone="no"?>
<!DOCTYPE svg PUBLIC "-//W3C//DTD SVG 1.1//EN" "http://www.w3.org/Graphics/SVG/1.1/DTD/svg11.dtd">
<svg width="100px" height="100px" version="1.1" xmlns="http://www.w3.org/2000/svg" xmlns:xlink="http://www.w3.org/1999/xlink" xml:space="preserve" style="fill-rule:evenodd;clip-rule:evenodd;stroke-linecap:round;stroke-linejoin:round;stroke-miterlimit:1.41421;">
    <g>
        <g id="Layer1">
            <g>
                <path d="M0.279876,99.1252L0.279876,49.8223L8.81303,40.3219L99.4375,41.3801L99.7716,99.6575L0.279876,99.1252Z" style="fill:none;stroke-width:2.08px;stroke:rgb(136,136,136);"/>
            </g>
            <g>
                <path d="M8.926,40.3717C8.926,50.8377 8.926,61.3037 8.926,71.7696" style="fill:none;stroke-width:2px;stroke:rgb(136,136,136);"/>
            </g>
            <path d="M23.1937,41.0379L23.1937,98.4916" style="fill:none;stroke-width:2px;stroke:rgb(136,136,136);"/>
            <path d="M37.8546,41.3599L37.8546,98.422" style="fill:none;stroke-width:2px;stroke:rgb(136,136,136);"/>
            <g>
                <path d="M51.9694,41.3599L51.9694,98.422" style="fill:none;stroke-width:2px;stroke:rgb(136,136,136);"/>
            </g>
            <g>
                <path d="M65.807,42.124L65.807,99.1861" style="fill:none;stroke-width:2px;stroke:rgb(136,136,136);"/>
            </g>
            <g>
                <path d="M88.5311,41.1307L88.5311,98.1928" style="fill:none;stroke-width:2px;stroke:rgb(136,136,136);"/>
            </g>
            <g>
                <path d="M76.9274,41.3599L76.9274,98.422" style="fill:none;stroke-width:2px;stroke:rgb(136,136,136);"/>
            </g>
            <g>
                <path d="M98.6041,50.9839L9.70467,50.9839" style="fill:none;stroke-width:2px;stroke:rgb(136,136,136);"/>
            </g>
            <g>
                <path d="M98.6041,60.5486L9.70467,60.5486" style="fill:none;stroke-width:2px;stroke:rgb(136,136,136);"/>
            </g>
            <g>
                <path d="M98.6041,71.7505L9.70467,71.7505" style="fill:none;stroke-width:2px;stroke:rgb(136,136,136);"/>
            </g>
            <g>
                <path d="M98.8607,82.5919L9.96137,82.5919" style="fill:none;stroke-width:2px;stroke:rgb(136,136,136);"/>
            </g>
            <g>
                <path d="M98.4607,92.4133L9.5613,92.4133" style="fill:none;stroke-width:2.08px;stroke:rgb(136,136,136);"/>
            </g>
            <g>
                <path d="M9.16471,39.9554L33.3748,53.9327C33.3748,53.9327 49.9078,64.9093 49.0722,68.239C48.2365,71.5688 54.1115,70.702 59.8344,67.6544C65.5573,64.6068 63.0931,74.5939 68.8041,76.6689C74.5152,78.7439 83.3869,76.864 83.3869,76.864C83.3869,76.864 88.7424,69.0609 84.3392,64.7794C79.936,60.4979 69.4054,57.8602 69.4054,57.8602C69.4054,57.8602 59.7842,59.6415 59.7842,55.8745C59.7842,52.1075 76.7269,52.6631 80.1687,49.3164C83.6106,45.9696 84.7336,40.9753 84.7336,40.9753" style="fill:none;stroke-width:1.04px;stroke:black;"/>
            </g>
            <path d="M26.4283,48.3654C26.4283,48.3654 25.0754,47.5887 27.5677,45.0963C28.8139,43.8501 30.4301,43.679 31.7349,43.8193C33.0396,43.9597 34.0327,44.4116 34.0327,44.4116C34.0327,44.4116 33.3402,46.4771 32.2642,47.8106C31.8432,48.3324 31.3635,48.7422 30.8437,48.8723C28.9952,49.3348 26.4283,48.3654 26.4283,48.3654Z" style="fill:none;stroke-width:1.04px;stroke:black;"/>
            <g>
                <path d="M41.1052,58.0788C41.1052,58.0788 39.7523,57.3021 42.2446,54.8098C43.4908,53.5636 45.107,53.3924 46.4117,53.5328C47.7164,53.6732 48.7096,54.1251 48.7096,54.1251C48.7096,54.1251 48.017,56.1905 46.9411,57.524C46.5201,58.0459 46.0404,58.4556 45.5205,58.5857C43.6721,59.0482 41.1052,58.0788 41.1052,58.0788Z" style="fill:none;stroke-width:1.04px;stroke:black;"/>
            </g>
            <g>
                <path d="M63.6562,66.9572C63.6562,66.9572 62.3032,66.1805 64.7956,63.6881C66.0418,62.4419 67.658,62.2708 68.9627,62.4111C70.2674,62.5515 71.2606,63.0034 71.2606,63.0034C71.2606,63.0034 70.568,65.0689 69.4921,66.4024C69.0711,66.9242 68.5914,67.334 68.0715,67.4641C66.2231,67.9266 63.6562,66.9572 63.6562,66.9572Z" style="fill:white;stroke-width:1.04px;stroke:black;"/>
            </g>
            <g>
                <path d="M41.4817,73.674C41.4817,73.674 40.1288,72.8973 42.6211,70.4049C43.8673,69.1587 45.4835,68.9876 46.7882,69.1279C48.0929,69.2683 49.0861,69.7202 49.0861,69.7202C49.0861,69.7202 48.3935,71.7857 47.3176,73.1192C46.8966,73.641 46.4169,74.0508 45.897,74.1808C44.0486,74.6433 41.4817,73.674 41.4817,73.674Z" style="fill:white;stroke-width:1.04px;stroke:black;"/>
            </g>
            <g>
                <path d="M60.6373,44.9332C60.6373,44.9332 61.2918,43.517 63.9941,45.78C65.3452,46.9115 65.6581,48.5064 65.6333,49.8184C65.6085,51.1304 65.2458,52.1595 65.2458,52.1595C65.2458,52.1595 63.1274,51.6517 61.7042,50.6975C61.1473,50.3241 60.6969,49.8824 60.5215,49.376C59.8979,47.5755 60.6373,44.9332 60.6373,44.9332Z" style="fill:white;stroke-width:1.04px;stroke:black;"/>
            </g>
            <g>
                <path d="M32.3838,53.2151C32.3838,53.2151 33.9364,53.0631 33.3517,56.539C33.0594,58.2769 31.842,59.3538 30.6978,59.9962C29.5535,60.6386 28.4824,60.8465 28.4824,60.8465C28.4824,60.8465 27.8486,58.7623 27.9516,57.0519C27.9919,56.3827 28.145,55.7707 28.493,55.3632C29.7305,53.9143 32.3838,53.2151 32.3838,53.2151Z" style="fill:white;stroke-width:1.04px;stroke:black;"/>
            </g>
            <g>
                <path d="M84.8893,40.7384C84.8893,40.7384 83.5363,39.9617 86.0287,37.4694C87.2748,36.2232 88.8911,36.052 90.1958,36.1924C91.5005,36.3328 92.4937,36.7847 92.4937,36.7847C92.4937,36.7847 91.8011,38.8501 90.7252,40.1837C90.3042,40.7055 89.8245,41.1152 89.3046,41.2453C87.4562,41.7078 84.8893,40.7384 84.8893,40.7384Z" style="fill:white;stroke-width:1.04px;stroke:black;"/>
            </g>
            <g>
                <path d="M85.8294,64.7035C85.8294,64.7035 84.9955,64.2248 86.5316,62.6886C87.2997,61.9205 88.2959,61.815 89.1001,61.9015C89.9042,61.988 90.5164,62.2666 90.5164,62.2666C90.5164,62.2666 90.0895,63.5396 89.4264,64.3616C89.1669,64.6832 88.8712,64.9358 88.5508,65.0159C87.4115,65.301 85.8294,64.7035 85.8294,64.7035Z" style="fill:white;stroke-width:1.04px;stroke:black;"/>
            </g>
            <g>
                <path d="M8.22796,51.1083C8.10867,51.2426 1.23121,58.105 1.23121,58.105" style="fill:none;stroke-width:1.04px;stroke:rgb(136,136,136);"/>
            </g>
            <g>
                <path d="M8.1264,60.2997C8.00699,60.4341 1.12249,67.3036 1.12249,67.3036" style="fill:none;stroke-width:1.04px;stroke:rgb(136,136,136);"/>
            </g>
            <g>
                <path d="M8.1264,72.454C8.00699,72.5884 1.12249,79.4579 1.12249,79.4579" style="fill:none;stroke-width:1.04px;stroke:rgb(136,136,136);"/>
            </g>
            <g>
                <path d="M9.16839,82.7074C9.03153,82.8615 1.1408,90.735 1.1408,90.735" style="fill:none;stroke-width:1.04px;stroke:rgb(136,136,136);"/>
            </g>
            <g>
                <path d="M9.16839,92.3695C9.03153,92.5236 1.1408,100.397 1.1408,100.397" style="fill:none;stroke-width:1.04px;stroke:rgb(136,136,136);"/>
            </g>
        </g>
    </g>
</svg>
