<?xml version="1.0" encoding="utf-8"?>
<!-- Generator: Adobe Illustrator 19.0.1, SVG Export Plug-In . SVG Version: 6.00 Build 0)  -->
<svg version="1.1" id="Layer_1" xmlns="http://www.w3.org/2000/svg" xmlns:xlink="http://www.w3.org/1999/xlink" x="0px" y="0px"
	 viewBox="-165 95 100 100" style="enable-background:new -165 95 100 100;" xml:space="preserve">
<style type="text/css">
	.st0{fill:none;stroke:#888888;stroke-width:2.08;stroke-linecap:round;stroke-linejoin:round;stroke-miterlimit:1.4142;}
	.st1{fill:none;stroke:#888888;stroke-width:2;stroke-linecap:round;stroke-linejoin:round;stroke-miterlimit:1.4142;}
	.st2{fill:none;stroke:#000000;stroke-width:1.04;stroke-linecap:round;stroke-linejoin:round;stroke-miterlimit:1.4142;}
	.st3{fill:none;stroke:#888888;stroke-width:1.04;stroke-linecap:round;stroke-linejoin:round;stroke-miterlimit:1.4142;}
</style>
<g>
	<path class="st0" d="M-164.7,194.1v-49.3l8.5-9.5l90.6,1.1l0.3,58.3L-164.7,194.1z"/>
</g>
<g>
	<path class="st1" d="M-156.1,135.4c0,10.5,0,20.9,0,31.4"/>
</g>
<path class="st1" d="M-141.8,136v57.5"/>
<path class="st1" d="M-127.1,136.4v57.1"/>
<g>
	<path class="st1" d="M-113,136.4v57.1"/>
</g>
<g>
	<path class="st1" d="M-99.2,137.1v57.1"/>
</g>
<g>
	<path class="st1" d="M-76.5,136.1v57.1"/>
</g>
<g>
	<path class="st1" d="M-88.1,136.4v57.1"/>
</g>
<g>
	<path class="st1" d="M-66.4,146h-88.9"/>
</g>
<g>
	<path class="st1" d="M-66.4,155.5h-88.9"/>
</g>
<g>
	<path class="st1" d="M-66.4,166.8h-88.9"/>
</g>
<g>
	<path class="st1" d="M-66.1,177.6H-155"/>
</g>
<g>
	<path class="st0" d="M-66.5,187.4h-88.9"/>
</g>
<g>
	<path class="st2" d="M-155.8,135l24.2,14c0,0,16.5,11,15.7,14.3c-0.8,3.3,5,2.5,10.8-0.6c5.7-3,3.3,6.9,9,9
		c5.7,2.1,14.6,0.2,14.6,0.2s5.4-7.8,1-12.1c-4.4-4.3-14.9-6.9-14.9-6.9s-9.6,1.8-9.6-2s16.9-3.2,20.4-6.6c3.4-3.3,4.6-8.3,4.6-8.3"
		/>
</g>
<path class="st2" d="M-138.6,143.4c0,0-1.4-0.8,1.1-3.3c1.2-1.2,2.9-1.4,4.2-1.3c1.3,0.1,2.3,0.6,2.3,0.6s-0.7,2.1-1.8,3.4
	c-0.4,0.5-0.9,0.9-1.4,1.1C-136,144.3-138.6,143.4-138.6,143.4z"/>
<g>
	<path class="st2" d="M-123.9,153.1c0,0-1.4-0.8,1.1-3.3c1.2-1.2,2.9-1.4,4.2-1.3c1.3,0.1,2.3,0.6,2.3,0.6s-0.7,2.1-1.8,3.4
		c-0.4,0.5-0.9,0.9-1.4,1.1C-121.3,154-123.9,153.1-123.9,153.1z"/>
</g>
<g>
	<path class="st2" d="M-101.3,162c0,0-1.4-0.8,1.1-3.3c1.2-1.2,2.9-1.4,4.2-1.3c1.3,0.1,2.3,0.6,2.3,0.6s-0.7,2.1-1.8,3.4
		c-0.4,0.5-0.9,0.9-1.4,1.1C-98.8,162.9-101.3,162-101.3,162z"/>
</g>
<g>
	<path class="st2" d="M-123.5,168.7c0,0-1.4-0.8,1.1-3.3c1.2-1.2,2.9-1.4,4.2-1.3c1.3,0.1,2.3,0.6,2.3,0.6s-0.7,2.1-1.8,3.4
		c-0.4,0.5-0.9,0.9-1.4,1.1C-121,169.6-123.5,168.7-123.5,168.7z"/>
</g>
<g>
	<path class="st2" d="M-104.4,139.9c0,0,0.7-1.4,3.4,0.8c1.4,1.1,1.7,2.7,1.6,4c0,1.3-0.4,2.3-0.4,2.3s-2.1-0.5-3.5-1.5
		c-0.6-0.4-1-0.8-1.2-1.3C-105.1,142.6-104.4,139.9-104.4,139.9z"/>
</g>
<g>
	<path class="st2" d="M-132.6,148.2c0,0,1.6-0.2,1,3.3c-0.3,1.7-1.5,2.8-2.7,3.5c-1.1,0.6-2.2,0.9-2.2,0.9s-0.6-2.1-0.5-3.8
		c0-0.7,0.2-1.3,0.5-1.7C-135.3,148.9-132.6,148.2-132.6,148.2z"/>
</g>
<g>
	<path class="st2" d="M-80.1,135.7c0,0-1.4-0.8,1.1-3.3c1.2-1.2,2.9-1.4,4.2-1.3s2.3,0.6,2.3,0.6s-0.7,2.1-1.8,3.4
		c-0.4,0.5-0.9,0.9-1.4,1.1C-77.5,136.7-80.1,135.7-80.1,135.7z"/>
</g>
<g>
	<path class="st2" d="M-79.2,159.7c0,0-0.8-0.5,0.7-2c0.8-0.8,1.8-0.9,2.6-0.8c0.8,0.1,1.4,0.4,1.4,0.4s-0.4,1.3-1.1,2.1
		c-0.3,0.3-0.6,0.6-0.9,0.7C-77.6,160.3-79.2,159.7-79.2,159.7z"/>
</g>
<g>
	<path class="st3" d="M-156.8,146.1c-0.1,0.1-7,7-7,7"/>
</g>
<g>
	<path class="st3" d="M-156.9,155.3c-0.1,0.1-7,7-7,7"/>
</g>
<g>
	<path class="st3" d="M-156.9,167.5c-0.1,0.1-7,7-7,7"/>
</g>
<g>
	<path class="st3" d="M-155.8,177.7c-0.1,0.2-8,8-8,8"/>
</g>
<g>
	<path class="st3" d="M-155.8,187.4c-0.1,0.2-8,8-8,8"/>
</g>
</svg>
