<?xml version="1.0" encoding="utf-8"?>
<!-- Generator: Adobe Illustrator 18.1.1, SVG Export Plug-In . SVG Version: 6.00 Build 0)  -->
<svg version="1.1" id="Layer_1" xmlns="http://www.w3.org/2000/svg" xmlns:xlink="http://www.w3.org/1999/xlink" x="0px" y="0px"
	 viewBox="0 0 612 792" enable-background="new 0 0 612 792" xml:space="preserve">
<g>
	<path d="M513.3,421.9c0,83.7,0,167.6,0,251.3c0,5.1,0.5,10.4-0.5,15.5c-1.2,7.1-3.2,14.2-5.5,21.4c-6,18.3-13.5,35.6-24.2,51.6
		c-7.5,10.9-18,17.3-30.7,20.4c-19.5,4.8-39.2,7.9-58.9,10.2c-33.9,3.8-67.8,5.1-101.8,3.3c-15.5-0.8-30.7-3.8-45.9-6.4
		c-21.2-3.8-41.9-10.4-62.1-17.8c-8-2.8-16-6.1-23.7-9.4c-2-0.8-4.2-2.5-5.5-4.6c-15.2-23.7-30.4-47.3-45.4-71.2
		c-1.2-1.8-2-4.3-2-6.6c-0.2-33.8-0.2-67.9-0.2-101.8c-0.2-75.3-0.2-150.8-0.5-226.1c-0.2-51.6-0.7-103.5-0.7-155.2
		c0-15.8,0.7-31.5,1.2-47.3c0.2-7.6,3-14.5,7.5-20.4c5.2-6.9,11-13.5,16.7-20.1c1.7-2,3-4.1,3-7.1c-0.2-16,4.7-29.5,18.2-38.7
		c6.2-4.1,12.7-7.9,19.5-10.9c18.5-8.1,37.9-12.5,57.6-16c11.5-2,23.2-3.1,34.7-4.6c3.2-0.3,4-1.5,3.2-4.8
		c-2.5-11.4,2.2-20.4,13.2-23.7c11.5-3.6,23.4-5.1,35.4-4.1c7.2,0.5,13,3.8,17.5,9.9c6.7,8.9,13.5,17.8,20,26.7
		c1.5,2.3,3.5,3.1,6,3.3c29.9,0.5,57.9,8.6,85.1,20.9c11.5,5.1,22.4,11.4,33.9,16.8c9.7,4.3,13.5,12.7,15,22.4c1,6.4,1.2,13,2,19.6
		c0.2,2.3,1.2,4.6,2.2,6.6c4.5,8.9,9,17.8,13.5,27c1,1.8,1.5,4.1,1.5,5.9c0.2,72.5,0.5,145,0.5,217.8
		C513.1,390.9,513.1,406.4,513.3,421.9L513.3,421.9z M504.1,425.7h0.2c-0.5-77.1-1-154.2-1.2-231.2c0-10.2,0-20.1-0.2-30.3
		c0-3.8-0.7-4.3-4.2-3.1c-2.2,0.8-4.2,1.8-6.5,2.3c-19.7,5.1-39.2,10.7-59.1,14.5c-18.7,3.6-37.7,6.1-56.6,7.9
		c-30.2,2.5-60.4,2.5-90.3-0.5c-19.7-2-39.7-4.3-59.4-7.9c-21-4.1-41.9-9.4-62.4-15.3c-15.7-4.6-31.2-10.7-46.6-16.3
		c-3.7-1.3-4.2-1.3-4.2,2.8c0,12.7-0.2,25.4-0.2,38.2c-0.2,139.4-0.7,279.1-1,418.5c0,23.7-2,47.6,1,71.2c1,7.6,3,14.5,8.5,20.1
		c9.2,9.7,19.7,17.3,31.9,22.4c11.7,4.8,23.4,9.2,35.7,12.7c14,4.1,28.2,6.9,42.4,9.9c14,2.8,28.2,5.3,42.2,7.6
		c11,1.8,21.7,3.6,32.7,4.6c35.7,2.8,71.1,1.8,106.5-2.8c18.2-2.5,36.4-5.9,53.9-12.5c13-5.1,23.4-13.5,30.9-25.7
		c6.2-10.4,7.7-21.6,7.7-33.6C504.8,594.4,504.6,509.9,504.1,425.7z M183.1,132.4c0.2,0.3,0.5,0.3,0.7,0.5c-0.5,1.3-0.7,2.5-1.2,3.6
		c-3.2,6.1-6.5,12.2-9.5,18.3c-0.5,0.8,0,2.3,0.2,3.3c1.2-0.5,3-0.8,3.5-1.8c4-6.9,7.5-14,11.2-20.9c1.7-3.3,4.5-3.8,8.2-3.1
		c-0.5,1.3-1,2.5-1.5,3.6c-4,7.1-8.2,14.2-12.2,21.6c-0.5,0.8,0,2,0,3.1c1-0.3,2.5-0.3,3.2-1c1-1.3,1.5-3.1,2.5-4.6
		c3.5-5.9,7.5-11.7,10.7-17.8c2.2-4.3,3-4.6,7.5-2c-2,3.6-4.2,6.9-6.2,10.4c-2.7,4.6-5.2,9.2-8,14c-1.2,2.5-1,4.1,2.2,4.6
		c17.5,3.1,34.9,6.9,52.6,8.9c26.4,2.8,52.9,5.3,79.3,6.4c38.4,1.5,76.6-0.8,114.5-8.4c10-2,20-5.3,29.9-8.1c2.7-0.8,3.2-2,1.5-4.6
		c-5.7-7.6-11.2-15.5-16.7-23.1c-2.2-2.8-4.7-3.3-9.5-1.5c4.5,7.9,9.2,16,13.7,23.9c-0.2,0.3-0.5,0.5-0.7,0.8c-1-1-2-1.8-2.7-2.8
		c-2.5-3.6-5-7.4-7.5-10.9c-2.2-3.3-4.7-6.4-7.2-9.2c-0.7-1-2.2-1-3.5-1.5c-0.2,0.3-0.5,0.5-0.5,1c4,6.6,9,12.7,11.5,20.4
		c-1.2-0.5-2.2-1.5-3-2.3c-4-4.8-8-9.7-12.2-14.2c-1.2-1.3-3.7-2.3-5.5-2.3c-4,0-8,1-12,1.3c-19.2,1.5-38.4,3.1-57.6,4.1
		c-34.9,1.8-69.8-0.8-104.3-6.4c-21.7-3.6-43.2-8.9-64.6-13.5c-8-1.8-8-1.8-12,5.1c-1.7,2.8-4.2,4.6-7.5,5.3c1.5-3.8,3.2-7.1,5-10.4
		c0.5-1,0.2-2.5,0.5-3.8c-1.2,0.5-3.2,0.8-3.7,1.8c-5,9.7-9.7,19.3-14.5,29c-0.5,1-0.2,3.3,0.5,3.6c2,1.3,4.2,2,6.5,2.5
		c0.7,0.3,2.2-1,2.7-2c1.2-2.5,2.2-5.1,3.7-7.6C173.4,139.8,177.6,135.5,183.1,132.4z M181.8,735c-0.2,0.3-0.5,0.5-0.7,0.8
		c1,1,1.7,2.3,2.7,3.3c8,8.4,15.2,17.6,17.5,29.5c0.2,1,1.2,1.8,2.2,2.3c1.7,0.8,3.5,1.3,5.2,1.8c18.5,4.8,36.9,8.4,55.6,10.9
		c28.9,4.1,57.9,5.9,86.8,5.1c14.7-0.5,29.4-1.5,43.9-3.3c11.7-1.3,23.2-3.6,34.9-5.9c6.7-1.3,13.2-3.8,19.7-5.9c2.5-0.8,4-2,5-4.8
		c2.2-5.3,4.7-10.4,7.2-15.5c0.5-1,0.5-2,0.7-3.3c-0.2,0-0.5-0.3-0.7-0.3c-3.7,3.3-7.2,6.9-11,10.2c-0.2-0.3-0.7-0.8-1-1
		c1.2-2.5,2.5-4.8,3.5-7.4c0.5-1.3,1.2-3.1-1.2-2.8c-3.7,0.5-7.2,1.5-8.5,6.1c-1.2,4.3-3.2,8.1-5.2,12.2c-0.5,1-2,1.5-3,2.3
		c-0.5-1.3-1.5-2.3-1.5-3.6c0-2.5,0.5-4.8,0.5-7.4c0.5-6.1,0.2-6.1-5.5-5.3c-0.7,0-1.5,0.3-2.5,0.3c-15.2,2.3-30.4,5.1-45.6,6.4
		c-22.2,1.8-44.6,2.8-67.1,0.8c-15.5-1.3-30.9-2.8-46.4-4.8c-10.7-1.5-21.5-3.6-32.2-6.1c-12.5-2.8-24.9-6.4-37.2-9.9
		C192.8,738.9,187.3,736.8,181.8,735z M252.2,48c0,0.3,0,0.8,0,1c-0.7,0.3-1.5,0.8-2.2,0.8c-11.7,2.3-23.4,4.3-34.9,7.1
		c-10.5,2.5-20.5,6.6-29.2,13c-5.5,4.1-9.7,8.9-11.2,15.8c-0.7,2.8,0,4.6,2.7,5.1c6.7,1.5,13.2,3.6,20,5.1c14,3.3,27.9,6.9,41.9,9.7
		c15,3.1,30.2,6.1,45.4,8.1c12.5,1.8,24.9,2.3,37.4,3.1c1.2,0,2.7-0.5,4.7-0.8c-1-1.8-1.5-2.8-2.2-3.8c-7.5-9.9-17.2-16.3-28.4-20.9
		c-11.2-4.6-22.9-5.3-34.7-6.6c-10.5-1.3-21-2.3-31.4-4.1c-8.7-1.3-11.5-7.1-7.5-14.5c1.2-2,3-3.8,5-5.3c7.7-5.3,16.5-5.9,25.4-5.3
		c9.5,0.5,19,1.3,28.4,1.5c1.2,0,2.5-0.5,4.5-1c-4.5-5.3-8.2-9.9-12-14.5c-1.7-2.3-3.7-3.3-6.5-3.1c-12,1.3-23.9,1.8-35.9,3.3
		c-20.5,2.5-40.7,7.1-59.6,16.3c-8.5,4.1-16,9.2-22.2,16c-0.7,0.8-1.5,2.3-1.2,3.3c0.7,2.5,6.5,3.8,9,2.5c9-5.3,17.5-11.4,26.9-15.5
		c12-5.1,24.4-9.2,37.2-12.7c9-2.5,18.2-3.1,27.4-4.6C249.4,47.4,250.9,48,252.2,48z M353.7,117.7c0.2-0.3,0.2-0.8,0.5-1
		c-2-1.3-3.7-2.3-5.7-3.6c-5-3.6-10.5-7.1-11.7-14c-0.5-3.6,0.5-4.1,3.7-3.3c5.5,1.3,11.2,2.8,16.7,3.6c17.5,2,31.7-3.6,36.4-22.1
		c0.5-2.3,2.2-2,3.7-2c8.7,0.8,17.5,1.8,25.7,4.8c11.5,4.3,20.2,11.2,21.9,24.4c0.2,2.3,1.5,2.8,3.5,2c3.5-1.5,7-2.5,10-4.6
		c6.7-4.3,7-9.4,1.2-15c-1.2-1.3-2.7-2.5-4.2-3.6c-15.5-9.7-32.7-14.8-49.9-19.8c-7.5-2.3-15-4.1-22.4-6.1c-1.2-0.3-2.5-1.3-3.7-2
		c0.2-0.3,0.2-0.8,0.5-1c0.7,0,1.7-0.3,2.5-0.3c5.2,1,10.7,1.8,16,2.8c15.5,3.6,30.9,7.4,45.6,14c12,5.3,23.4,11.2,30.7,23.1
		c1,1.8,2.2,1.5,3.2,0.3c2.2-2,3.2-5.9,1.2-8.1c-3-3.6-6-7.6-10-9.9c-10-5.6-20-10.7-30.4-15.3c-21-9.2-42.7-15.5-65.3-18.1
		c-3.7-0.5-7.7,0-12.5,0c1.5,1.8,2,2.8,3,3.8c7.2,7.6,14.2,15.3,21.5,22.9c3.7,4.1,4.2,7.1,0.5,11.2c-1.7,2.3-4.5,4.3-7,5.3
		c-15.5,5.1-30.9,3.6-45.9-1c-14.5-4.3-26.4-13-38.4-22.1c-1.2-1-3-2-4.5-2c-15.7-0.5-31.7-1-47.4-1c-4.2,0-8.5,1.8-12.5,3.6
		c-3.2,1.5-5.2,4.6-4.7,8.6c0.2,3.6,3.5,3.8,6,5.1c0.5,0.3,1.2,0.5,2,0.5c8,1,16.2,2.5,24.2,2.8c17.2,0.8,33.9,3.8,49.6,11.2
		c9,4.3,17.7,9.7,22.9,18.3c3,5.3,6.5,7.1,12,6.9c2-0.3,4,0.5,6.2,0.5C349.7,117.9,351.7,117.7,353.7,117.7z M486.9,96.3
		c-1.7,0.5-2.7,0.8-3.2,1.3c-10.7,7.1-22.7,10.7-34.7,13.7c-11.5,3.1-23.2,5.6-34.9,7.9c-11.5,2.3-23.2,4.6-34.9,5.6
		c-21.7,1.8-43.4,1.3-65.1-0.5c-20.2-1.5-40.2-3.8-59.9-8.1c-19-4.3-37.9-8.9-56.9-13.7c-18.2-4.6-35.9-10.2-52.6-18.8
		c-1.7-1-3.2-0.8-3.7,1.5c-0.7,4.1-1.7,7.9-2.2,12c0,1.3,1.2,2.8,2.2,3.6c1,0.8,2.5,1.3,3.7,1.5c21.2,7.1,42.4,13.2,64.1,18.3
		c24.2,5.6,48.9,8.9,73.3,11.4c27.9,3.1,56.1,3.3,84.3,1.8c22.4-1,44.9-3.3,66.8-8.4c16.2-3.8,32.4-8.4,48.6-12.7
		c1.5-0.5,3.5-1.5,3.7-2.5C486.4,106,486.4,101.4,486.9,96.3z M361.2,85.6c2-0.3,4.5,0,6.7-0.8c3.7-1.3,7.5-2.5,10.5-4.6
		c4.2-3.1,4.5-5.9,1.5-10.2c-1.2-1.8-2.5-3.3-4-4.8c-10.2-9.7-20.2-19.3-28.4-30.8c-4.2-5.6-8-11.4-12.5-16.5
		c-5.5-6.6-12-12.5-20.5-14c-12.5-2.3-24.2,1.3-34.9,7.6c-3.5,2-4.7,6.4-3.5,10.4c0.7,2,1.2,4.3,2.2,6.4
		c8.7,19.3,22.2,34.1,40.4,44.8C331.5,80.3,345.5,85.1,361.2,85.6z M482.9,123c-3.2,1.3-5.7,2-8.2,3.1c-2.2,0.8-2.7,2.3-1.5,4.3
		c5.7,8.1,11.2,16.3,17.2,24.4c1.2,1.8,9.2,0,10-2.3c0.2-0.5-0.2-1.3-0.5-1.8c-4.7-8.6-9.5-17-14.2-25.4
		C484.6,124.3,483.6,123.5,482.9,123z M191.8,766.1c0.5-0.3,0.7-0.3,1.2-0.5c-1.5-3.8-2.7-8.1-4.7-11.7c-3-4.8-7-9.2-10-14
		c-3.5-5.6-8-9.2-14.2-11.2c-1.2-0.5-2.5-0.3-3.7-0.5c0.2,1.3,0,2.8,0.5,4.1c3.5,8.6,9.5,15.3,15.7,21.9
		C181.1,758.9,185.1,764.3,191.8,766.1z M486.4,158.1c-3.7-5.3-7.2-10.2-10.5-15c-2.7-4.1-5-8.1-7.7-12.2c-1.2-1.8-6.7-2-8.2,0
		c-0.7,0.8,0,3.6,0.7,4.8c5,7.9,10.5,15.5,15.7,22.9c0.5,0.8,2.2,1.5,3.2,1.3C481.9,159.6,483.9,158.9,486.4,158.1z M172.9,763
		c0.5-1.8,1.2-2.8,1.2-3.8c0-0.8-0.7-1.3-1.2-2c-6.2-9.7-13.7-18.6-17-29.8c-1.2-3.8-4-5.6-7.2-6.6c-0.7-0.3-2-0.5-2.2-0.3
		c-0.5,0.8-0.5,1.8-0.2,2.5c1,2.3,2,4.3,3.2,6.6c5.2,10.4,11.2,20.4,18.7,29.3C169.1,760.2,170.9,761.2,172.9,763z M461.2,768.4
		c0.2,0.3,0.5,0.5,0.7,0.8c3.5-2,7-3.3,9.2-7.1c2.5-4.6,5.2-8.9,8-13.5c1-1.8,2-3.3,0-4.8c-2.2-1.5-3.2,0.3-4.2,1.8
		c-4.2,6.9-8.5,13.7-12.7,20.6C461.4,766.8,461.4,767.6,461.2,768.4z"/>
	<path d="M142.2,687.7c1.5,1.5,3,3.3,4.5,4.8c7.5,6.1,16.2,9.4,25.2,12.2c6.2,1.8,12.2,3.8,18.5,5.6c2.7,0.8,4.5,2.8,4,6.9
		c-3.2-0.8-6.5-1.3-9.5-2.5c-14.2-5.6-28.7-11.2-42.7-17.3c-5.7-2.5-10.7-6.1-16.2-9.4c-2.5-1.5-2.2-4.1-2.2-6.6
		c-0.7-13.2-1.7-26.7-2.2-39.9c-1.2-39.9-2.5-79.9-3-120.1c-0.5-55.5,0-110.7,0.2-166.1c0.2-56.5,1-112.7,1.7-169.2
		c0-8.9,0.7-18.1,1.5-27c0.2-4.3,1.2-4.6,5.2-2.8c11.2,4.6,21.7,10.2,30.9,18.1c2.5,2,4.5,4.8,6.7,7.1c-0.2,0.3-0.5,0.8-0.5,1
		c-2-0.8-4-1.3-6-2c-2.2-0.8-4.7-1.8-7-2.8c-2.2-0.8-3.5-0.3-3.5,2.5c0,0.5,0,1.3,0,1.8c-1,81.9-2.2,163.8-3.2,245.7
		c-0.5,34.6-0.7,69.2-1.2,103.8c-0.5,44-1.2,88.3-1.7,132.3c0,2.3,0.7,3.6,2.7,4.3c3,1,5.7,2,8.7,3.1c1.2,0.5,2.5,0.8,3.5,1.5
		c0.7,0.5,0.7,1.8,1,2.8c-1,0.3-1.7,1-2.7,0.8c-3.7-0.8-7.2-2-11-2.8c-1-0.3-2.7-0.3-3.5,0.5c-0.7,0.8-0.5,2.3-0.2,3.6
		c1,5.3,5.7,6.1,9.7,7.9c6,2.5,12.2,5.1,18.5,7.6c0.7,0.3,1.2,1.5,1.7,2.3c-1,0.3-2.2,0.8-3,0.5c-6.7-2.5-13.2-5.3-20-7.9
		c-1.5-0.5-3-0.8-4.2-1C142.7,687,142.4,687.2,142.2,687.7z"/>
	<path d="M494.4,174.9c0.2,0.8,0.5,1.8,0.5,2.5c0.2,37.6,0.5,75,0.7,112.7c0.7,114.2,1.2,228.7,1.7,342.9c0,14.5-0.2,28.7-0.7,43.2
		c-0.2,7.9-1.2,15.8-2.2,23.7c-0.2,1.8-1,3.8-2.2,5.3c-5.2,6.9-10.5,13.7-15.7,20.4c-1,1-2.7,2.3-4,2.3c-11-0.5-21.7,1.3-32.9,3.8
		c2.7-3.8,6.7-4.3,10.2-5.6c5.2-1.5,10.5-2.8,15.7-4.1c1.5-0.3,3.2-0.3,2.7-2.5c-0.5-2.3-1.7-3.6-4.2-2.8
		c-5.2,1.3-10.5,2.8-15.7,4.1c-2.5,0.8-5.2,1.3-8,1.8c-0.2-0.3-0.5-0.8-0.7-1c1.2-0.8,2.2-2,3.5-2.5c7.7-2.5,15.7-4.8,23.7-7.4
		c1-0.3,2.2-0.5,2.7-1.3c0.7-0.8,1-2,1.5-3.3c-1-0.3-2-1-3-1c-1.2-0.3-2.7,0-4,0.3c-0.2-0.3-0.5-0.8-0.7-1c1-0.8,2-2.3,3-2.5
		c3.5-0.5,4.2-2.5,4.2-5.6c0-42,0.2-83.7,0.2-125.7c0.2-105.3,0.5-210.6,0.7-315.9c0-20.4,0.2-40.7,0.5-61.1c0-1.3,0.5-2.5,0.7-4.1
		c0.5,0,1.2,0,1.7,0.3c0,56-0.2,111.9-0.2,168.1s0,112.7,0,168.9s0,112.2,0,168.4c4.5-0.5,6-1.8,6-5.6c0.5-93.4,1-186.5,1.2-279.8
		c0.2-77.8,0-155.9,0-233.8c0-1.3,0.2-2.3,0.2-3.6c0.2,0,0.7,0,1,0c0.2,1,0.5,2,0.5,3.3c0,21.9,0.2,44,0.2,65.9
		c0,43.5,0,86.7,0.2,130.2c0.2,104.3,0.7,208.6,1.2,312.9c0,1.8-1.2,4.6,2,4.6c3.2,0,3-2.5,3-4.8c0-39.2,0-78.3,0.2-117.5
		c0.2-64.6,0.5-129,0.7-193.3c0.2-65.1,0.7-130.2,1-195.1c0-1.3,0.2-2.8,0.5-4.1C493.4,174.9,493.9,174.9,494.4,174.9z"/>
	<path d="M164.1,186.3c3.2,1.5,4.7,3.8,4.7,7.1c-0.2,110.9-0.2,221.8-0.7,333c0,46.6-0.5,93.1-0.7,139.7c0,0.5,0.2,1,0,1.3
		c-0.5,1-1,1.8-1.5,2.8c-0.5-1-1.7-1.8-1.7-2.8c-0.2-7.9-0.2-15.8-0.2-23.4c-0.2-142.2-0.2-284.1-0.5-426.3c0-9.7,0-19.3,0.2-29.3
		C163.6,187.9,163.9,187.1,164.1,186.3z"/>
	<path d="M174.1,193.2c5.2,0.8,5.7,1.3,5.7,6.1c-0.5,49.1-0.7,97.9-1.2,147c-0.7,80.4-1.5,161-2.2,241.4
		c-0.2,30.5-0.7,60.8-1.2,91.3c0,1-0.2,1.8-0.5,2.8c-0.5,0-0.7,0-1.2,0.3c-0.2-1.5-0.7-2.8-0.7-4.3c0-28.5,0.2-57,0.2-85.7
		c0.2-44,0.2-88,0.5-132c0.2-86.7,0.7-173.5,1-260.2C174.1,198,174.1,195.7,174.1,193.2z"/>
	<path d="M181.6,701.7c-2-0.3-4.2-0.5-6.2-0.8c-0.5,0-1-0.8-1-1c0-0.3,0.5-1,0.5-1c2.5,0.5,4.7,1,7.2,1.3
		C181.8,700.7,181.6,701.2,181.6,701.7z"/>
	<path d="M318,49.2c-13.2-0.8-21-6.4-25.4-16.8c-1.2-2.8-2-5.9-3-8.9c-1-3.1-0.2-5.1,2.7-6.4c8.2-3.3,16.7-5.9,25.7-3.1
		c6.5,2,10.5,6.9,13.2,13c1.5,3.8,2.5,8.1,3,12.2c0.2,1.5-1,4.1-2,4.6C327,46.2,321.5,48,318,49.2z M323.3,31.9
		c0.2-0.3,0.2-0.8,0.5-1c-3.7-4.1-7.2-8.1-11-12c-0.5-0.5-1.2-0.8-2-0.8c-4.2,0.5-8.5,0.5-12.5,1.5c-4.2,1.3-4.7,2.8-2.2,6.6
		c0.7,1,1.5,2,2,3.3c1.5,3.1,4,4.1,7,3.6c4.5-0.5,9-0.5,13.5-0.8C320.3,32.2,321.8,31.9,323.3,31.9z M316,37
		C316,36.8,316,36.8,316,37c-2.5,0-4.7,0.3-7.2,0.5c-1.5,0.3-3,0.8-4.5,1c1,1.5,1.7,3.6,3,4.8c1,1,2.7,1.3,4.2,1.3
		c4.5-0.3,9-1,13.5-1.5c2-0.3,3.7-1,3.5-3.6c-0.2-2.5-2-3.1-4.2-3.1C321.5,36.5,318.8,36.8,316,37z"/>
	<path d="M341.7,49.7c4.5-1,7.7,1.3,10.5,4.1c5.7,5.3,11,10.9,16.2,16.5c2,2,1.2,4.1-1,5.1c-7.5,3.6-15.2,4.3-22.9,1.5
		c-4.2-1.5-8.2-4.1-12.5-5.6c-6-2.3-9.7-6.6-13-12c-1.2-2.3-1-3.6,1.7-4.3c7-2,13.7-4.1,20.7-6.1C341.7,49.2,341.7,49.5,341.7,49.7z
		 M353.4,74.7c0-0.3,0.2-0.3,0.2-0.5c1.5-0.3,3.2-0.3,4.7-0.5c1-0.3,2.5-1,2.7-2c0.2-0.5-0.7-2-1.5-2.8c-4.5-3.6-9-6.9-13.5-10.4
		c-5.5-4.3-11.5-4.8-17.7-2.5c-1.7,0.5-3.2,1.5-4.7,2c1.2,1.8,2.2,4.1,4,5.1c4.7,3.1,9.7,5.6,14.7,8.1
		C346,72.9,349.9,73.6,353.4,74.7z"/>
	<path d="M329,354.5c-24.4,45.3-48.1,89.3-72.1,133.5c15,2.8,28.7,5.1,42.4,7.6c6.2-28.5,12.2-56.7,18.5-86c-4.5,0-8.7,0-12.7,0
		c-0.5-0.5-0.7-1.3-1.2-1.8c1.7-1.5,3.2-4.6,5-4.6c12-0.5,23.9-0.3,36.4-0.3c-1.2,5.6-2.7,12.2-4,18.6c-4.7,20.9-9.7,41.7-14.5,62.6
		c-0.2,1-1,2.3-0.7,3.3c0.2,2.5,0.7,4.8,1.2,7.4c2.2-1,5.5-1.5,6.5-3.6c4.7-7.1,9-15,14.5-24.2c0.5,3.1,1.5,5.1,1,6.6
		c-3.2,7.1-6.5,14.2-10.7,20.9c-4.2,6.6-10.5,10.4-19.2,9.2c-19.7-3.1-39.4-5.1-59.1-8.1c-5.2-0.8-8,0.3-9.7,5.1
		c-1.5,4.3-4.5,5.9-9.2,4.3c0-3.3,0-6.6,0-10.9c-9.2-0.5-18.2-1-27.2-1.3c-2,0-4,0.5-6,0.3c-7.2-1.5-11.2,2-13.7,8.4
		c-1.5,4.1-4.2,6.1-9.2,3.8c0-3.6,0-7.1,0-11.2c-7.2,0-14.2,0-21.2,0v-0.3c5.5-1,11.2-2.3,16.7-2.5c4.5-0.3,5.2-2.5,5.5-6.6
		c0.7-16.3,1.7-32.6,2.5-48.6c1.5-29,3-58.3,4.5-87.3c0-1.8,0-3.6,0-6.1c-4.5-0.3-8.7-0.5-13.5-1c0.7-2.5,1.2-4.6,1.7-6.6
		c17.2,0,33.9,0,51.4,0c-0.7,2.5-1.2,4.6-2,7.1c-8-1.8-8.5,3.1-9,9.2c-2.7,31.8-5.7,63.3-8.7,95.1c-0.2,2.3-0.2,4.8,0.7,7.6
		c4.7-8.6,9.5-17,14-25.7c1.5-3.1,3-6.1,5-8.9c13-17.6,16.5-37.4,16-58.8c-0.2-5.9,0.5-11.7,0.7-17.8c-2.7-0.5-5-1-9-1.8
		c2.2-2.8,3.7-6.1,5.2-6.1c13.7-0.5,27.4-0.3,40.9-0.3c1.7,8.4-4.2,7.1-9,7.9c-3.5,36.4-7,72.5-10.5,108.9c0.5,0.3,0.7,0.3,1.2,0.5
		c1.2-2,2.5-4.1,3.7-6.1c16.7-30.3,33.2-60.8,49.9-91.1c0.7-1.5,1.7-3.1,2.5-4.8c1.5-4.3,1.2-7.6-4.5-7.9c-1.2,0-2.5-0.3-4.2-0.5
		c0.5-2.5,1-4.6,1.5-6.9c8.7,0,17-0.3,25.4,0c8.2,0.3,13.5,6.6,13.5,15.5c0,9.2-6,18.6-13.2,18.6c-3.5,0-7.2-3.3-10.2-5.9
		C331,361.1,330.5,358,329,354.5z M245.9,409.4c-0.5-0.3-1-0.3-1.5-0.5c-14.2,26.2-28.7,52.4-43.2,78.9c14,0,26.7,0,40.2,0
		C242.9,461.1,244.4,435.1,245.9,409.4z"/>
	<path d="M425.3,411.2c-9.5,0-18.7-0.3-27.7,0.3c-1.2,0-3,2.3-3.5,3.8c-5.7,23.7-11.5,47.3-16.7,71c-0.5,2.5,1,5.3,1.5,7.9
		c2.5-1,6.2-1.3,7.5-3.1c5.2-7.1,9.5-15,14.5-22.9c0.2,0.5,1.5,2,1.5,3.3c-1.2,14-13.5,28.2-26.9,31c-15,3.1-24.7-6.6-21.5-21.6
		c4.7-21.9,10-43.5,14.7-65.4c0.2-1,0.2-2.3,0.5-4.1c-3.5-0.3-6.7-0.5-10-0.8c-1.2-4.1-0.5-6.9,4.2-6.1c7,1,9.2-2.3,10-8.6
		c0.5-5.1,2.7-9.9,3.5-15c0.7-4.1,2.5-5.1,6.2-5.1c6.2,0,12.2-0.5,19.2-1c-2,10.2-4,19.6-6,29.8c9.5,0,18.5,0.3,27.2-0.3
		c1.5,0,3.5-2.3,4-4.1c2-6.6,3.2-13.5,5.2-20.4c0.5-1.8,2.5-3.8,4-4.1c6.7-0.8,13.7-1,21.2-1.3c-2,10.2-4,19.6-6.2,29.8
		c4.7,0,8.7,0,13,0c-0.2,2.5-0.2,4.3-0.5,6.6c-4.5,0-8.7,0-14,0c-2.5,10.4-5,20.9-7.2,31c-3.5,14.2-7,28.5-10,42.7
		c-0.7,3.1,0.5,6.4,0.7,9.4c3.2-1.5,7.5-2,9.5-4.6c4.7-6.6,8.5-14,12.7-21.9c0.5,0.8,1.7,1.8,1.7,2.8c0,12.2-12.7,28.2-24.9,31.5
		c-17,4.6-27.2-5.3-23.2-22.9c4.5-19.8,9-39.4,13.5-59.3C424.3,417.3,424.8,414.8,425.3,411.2z"/>
	<path d="M508.6,471.5c0,1.5,0.5,3.3,0,4.3c-6,17.8-16.5,32.3-30.2,29.3c-8.7-2-14.7-13.2-15.7-28.5c-2.2-29.3,9.5-62.6,25.4-72.2
		c4-2.3,8.5-2.5,12.7-1.5c5.7,1.5,10,7.6,11,17.8c1.2,12-0.5,23.1-6.5,30.8c-5.7,7.4-12.5,10.9-19.5,9.7c-4.5-0.8-6.5,2-6.7,9.4
		c-0.2,5.3-1.2,10.7-1.5,16c-0.5,8.6,1.7,12.2,6.5,12c9.5-0.5,15.7-9.9,21.2-21.6c0.7-1.8,1.5-3.6,2.2-5.3
		C507.8,471.5,508.3,471.5,508.6,471.5z M481.1,453.4c6.5,2.5,11.2,0.3,15-7.9c3.7-8.6,5-18.8,4.2-29.3c-0.2-5.1-2.2-7.4-5-7.9
		c-3.5-0.3-6,2.5-7,7.9C485.6,428.5,483.4,440.7,481.1,453.4z"/>
	<path d="M205.3,567.7c7.5,0,13.5,0,21.5,0c-8.5,3.6-6.2,8.9-4.5,14.2c3,9.2,5.7,18.3,10.2,27.7c3.5-11.2,7.2-22.1,10-33.3
		c0.5-2.3-2.7-5.9-4.2-8.4c6-0.3,13.7-1,21.2-1c1.5,0,3.2,2,4,3.6c0.2,0.8-1.2,3.3-2,3.6c-1.5,0.3-3.5-0.5-5-1.3
		c-0.7-0.5-1-2.3-2-5.9c-3.2,4.3-6.2,7.4-7.7,10.9c-5.5,14-10.2,28.2-15.5,42.5c-0.5,1.8-1.2,3.3-2.5,6.1c-5-15.5-9.5-30-14.7-46.3
		c-5.7,16.3-11,30.5-16.7,46.6c-3.7-12.7-6.7-23.4-10-34.1c-1.2-4.6-2.2-9.2-4-13.5c-1.5-3.8-4-7.1-5.7-10.4c5.2,0,11.7,0,20.2,0
		c-10.2,2.8-7.5,8.4-5.7,14c2.5,8.6,5,17.3,8.2,28c1.7-4.3,3-6.6,4-9.2c2.2-5.9,4.2-11.7,6.5-17.8C214,574,213.8,573.3,205.3,567.7z
		"/>
	<path d="M322.5,568.2c9,0,18-0.5,26.9,0.3c6.2,0.5,11.5,3.6,12.2,10.9c0.7,7.4-3.7,10.4-9.5,12.7c-0.7,0.3-1.5,0.8-2.7,1.5
		c2.7,1,4.7,2,7,3.1c5.7,2.5,9.5,6.4,9,13.5c-0.5,7.1-5,11.2-10.7,12c-10.7,1.5-21.5,1.5-32.4,1.3c6.5-2,8-6.6,8-12.5
		c-0.2-10.2-0.2-20.4,0-30.5C330.2,574.3,329,569.7,322.5,568.2z M337.5,595.9c0,6.4-0.2,12.5,0,18.6c0.2,4.8,2.7,7.1,7.7,7.4
		c8.5,0,14-7.4,11.5-15.5C354.2,598.4,347.7,594.6,337.5,595.9z M337.7,593.3c11.5-0.3,16.5-4.1,16.2-12c-0.2-7.9-5.7-12-16.2-12
		C337.7,577.3,337.7,585.2,337.7,593.3z"/>
	<path d="M349.4,516.8c31.4,5.3,62.9,10.7,94.3,16C410.8,537.6,379.9,527.7,349.4,516.8z"/>
	<path d="M421.3,598.2c-7.2,0-14.5,0-21.9,0c-2.2,6.9-1,12.7,3.7,17.6c5,4.6,10.7,4.6,18.7,0c-4,7.4-11.5,10.4-19.2,7.6
		c-8.2-3.1-12.5-12-10.5-22.1c1.7-8.9,9.2-15,18-14.8C417,586.7,420.5,590.3,421.3,598.2z M413.6,595.9c0.2-0.8,0.7-1.5,1-2.3
		c-2.7-2-5.2-5.3-8.2-5.3c-4-0.3-7,3.1-7,8.6C404.6,596.7,409.1,596.4,413.6,595.9z"/>
	<path d="M296.8,591.1c-3.7,0.3-7.7,0.5-12.2,0.8c0,7.9-1,16,0.5,23.9c0.5,3.1,6.7,5.1,9.7,7.1c0,0-1.2,0.5-2.7,1
		c-11.2,2.5-14,0.3-14-11.2c0-5.1,0.2-10.4-0.2-15.5c-0.2-2.3-1.7-4.3-3.2-7.4c2-2,5.2-5.6,9-9.4c0.2,2.8,0.5,5.1,0.7,7.6
		c4.2,0.5,8.5,0.8,12.5,1.3C297.1,589.3,296.8,590.3,296.8,591.1z"/>
	<path d="M438.7,594.6c-0.5,7.6-1.5,15-1.7,22.6c0,2,3,4.1,4.5,6.1c-4.7,0-9.7,0-15.7,0c6.5-4.6,4.5-10.7,4.5-16.3
		c0-5.6-1-10.9-1.5-16.5c-0.7-0.3-1.2-0.5-2-0.8c3.2-1.3,6.2-2.3,9-3.3C437,589.5,438,592.1,438.7,594.6L438.7,594.6z"/>
	<path d="M372.1,589.5c3-1,5.7-2,9.2-3.3c3,12.2-2.2,25.4,4,36.9c-3.5,0-8,0-12.7,0C378.1,616.7,378.1,597.7,372.1,589.5z"/>
	<path d="M262.4,586.5c3.5,12.5-3.2,25.7,4.7,36.9c-4.2,0-9.2,0-14.2,0c6.5-5.9,6.7-25.4,0-33.6
		C256.2,588.5,259.2,587.5,262.4,586.5z"/>
	<path d="M439,594.9c2.7-2.8,5.2-5.9,8.2-8.1c0.7-0.5,3.5,0.5,4.2,1.8c0.7,0.8,0.5,3.3-0.5,4.1c-1,1-3,1-4.5,1.3
		C444,594.1,441.5,594.4,439,594.9C438.7,594.6,439,594.9,439,594.9z"/>
	<path d="M378.6,565.1c1.7,2.3,3.7,3.8,3.7,5.1c0,1.5-2,2.8-3,4.3c-1.5-1.3-3.5-2.5-4-4.1C374.9,569.4,377.1,567.7,378.6,565.1z"/>
</g>
</svg>
