<?xml version="1.0" encoding="utf-8"?>
<!-- Generator: Adobe Illustrator 18.1.1, SVG Export Plug-In . SVG Version: 6.00 Build 0)  -->
<svg version="1.1" id="Layer_1" xmlns="http://www.w3.org/2000/svg" xmlns:xlink="http://www.w3.org/1999/xlink" x="0px" y="0px"
	 viewBox="0 0 612 792" enable-background="new 0 0 612 792" xml:space="preserve">
<path d="M387.7,420.1c0,32.9,0,65.9,0,98.8c0,2,0.2,4.1-0.2,6.1c-0.5,2.8-1.3,5.6-2.2,8.4c-2.4,7.2-5.4,14-9.7,20.3
	c-3,4.3-7.2,6.8-12.3,8c-7.8,1.9-15.7,3.1-23.6,4c-13.6,1.5-27.2,2-40.8,1.3c-6.2-0.3-12.3-1.5-18.4-2.5c-8.5-1.5-16.8-4.1-24.9-7
	c-3.2-1.1-6.4-2.4-9.5-3.7c-0.8-0.3-1.7-1-2.2-1.8c-6.1-9.3-12.2-18.6-18.2-28c-0.5-0.7-0.8-1.7-0.8-2.6c-0.1-13.3-0.1-26.7-0.1-40
	c-0.1-29.6-0.1-59.3-0.2-88.9c-0.1-20.3-0.3-40.7-0.3-61c0-6.2,0.3-12.4,0.5-18.6c0.1-3,1.2-5.7,3-8c2.1-2.7,4.4-5.3,6.7-7.9
	c0.7-0.8,1.2-1.6,1.2-2.8c-0.1-6.3,1.9-11.6,7.3-15.2c2.5-1.6,5.1-3.1,7.8-4.3c7.4-3.2,15.2-4.9,23.1-6.3c4.6-0.8,9.3-1.2,13.9-1.8
	c1.3-0.1,1.6-0.6,1.3-1.9c-1-4.5,0.9-8,5.3-9.3c4.6-1.4,9.4-2,14.2-1.6c2.9,0.2,5.2,1.5,7,3.9c2.7,3.5,5.4,7,8,10.5
	c0.6,0.9,1.4,1.2,2.4,1.3c12,0.2,23.2,3.4,34.1,8.2c4.6,2,9,4.5,13.6,6.6c3.9,1.7,5.4,5,6,8.8c0.4,2.5,0.5,5.1,0.8,7.7
	c0.1,0.9,0.5,1.8,0.9,2.6c1.8,3.5,3.6,7,5.4,10.6c0.4,0.7,0.6,1.6,0.6,2.3c0.1,28.5,0.2,57,0.2,85.6
	C387.6,407.9,387.6,414,387.7,420.1C387.7,420.1,387.7,420.1,387.7,420.1z M384,421.6c0,0,0.1,0,0.1,0c-0.2-30.3-0.4-60.6-0.5-90.9
	c0-4,0-7.9-0.1-11.9c0-1.5-0.3-1.7-1.7-1.2c-0.9,0.3-1.7,0.7-2.6,0.9c-7.9,2-15.7,4.2-23.7,5.7c-7.5,1.4-15.1,2.4-22.7,3.1
	c-12.1,1-24.2,1-36.2-0.2c-7.9-0.8-15.9-1.7-23.8-3.1c-8.4-1.6-16.8-3.7-25-6c-6.3-1.8-12.5-4.2-18.7-6.4c-1.5-0.5-1.7-0.5-1.7,1.1
	c0,5-0.1,10-0.1,15c-0.1,54.8-0.3,109.7-0.4,164.5c0,9.3-0.8,18.7,0.4,28c0.4,3,1.2,5.7,3.4,7.9c3.7,3.8,7.9,6.8,12.8,8.8
	c4.7,1.9,9.4,3.6,14.3,5c5.6,1.6,11.3,2.7,17,3.9c5.6,1.1,11.3,2.1,16.9,3c4.4,0.7,8.7,1.4,13.1,1.8c14.3,1.1,28.5,0.7,42.7-1.1
	c7.3-1,14.6-2.3,21.6-4.9c5.2-2,9.4-5.3,12.4-10.1c2.5-4.1,3.1-8.5,3.1-13.2C384.3,487.9,384.2,454.7,384,421.6z M255.3,306.3
	c0.1,0.1,0.2,0.1,0.3,0.2c-0.2,0.5-0.3,1-0.5,1.4c-1.3,2.4-2.6,4.8-3.8,7.2c-0.2,0.3,0,0.9,0.1,1.3c0.5-0.2,1.2-0.3,1.4-0.7
	c1.6-2.7,3-5.5,4.5-8.2c0.7-1.3,1.8-1.5,3.3-1.2c-0.2,0.5-0.4,1-0.6,1.4c-1.6,2.8-3.3,5.6-4.9,8.5c-0.2,0.3,0,0.8,0,1.2
	c0.4-0.1,1-0.1,1.3-0.4c0.4-0.5,0.6-1.2,1-1.8c1.4-2.3,3-4.6,4.3-7c0.9-1.7,1.2-1.8,3-0.8c-0.8,1.4-1.7,2.7-2.5,4.1
	c-1.1,1.8-2.1,3.6-3.2,5.5c-0.5,1-0.4,1.6,0.9,1.8c7,1.2,14,2.7,21.1,3.5c10.6,1.1,21.2,2.1,31.8,2.5c15.4,0.6,30.7-0.3,45.9-3.3
	c4-0.8,8-2.1,12-3.2c1.1-0.3,1.3-0.8,0.6-1.8c-2.3-3-4.5-6.1-6.7-9.1c-0.9-1.1-1.9-1.3-3.8-0.6c1.8,3.1,3.7,6.3,5.5,9.4
	c-0.1,0.1-0.2,0.2-0.3,0.3c-0.4-0.4-0.8-0.7-1.1-1.1c-1-1.4-2-2.9-3-4.3c-0.9-1.3-1.9-2.5-2.9-3.6c-0.3-0.4-0.9-0.4-1.4-0.6
	c-0.1,0.1-0.2,0.2-0.2,0.4c1.6,2.6,3.6,5,4.6,8c-0.5-0.2-0.9-0.6-1.2-0.9c-1.6-1.9-3.2-3.8-4.9-5.6c-0.5-0.5-1.5-0.9-2.2-0.9
	c-1.6,0-3.2,0.4-4.8,0.5c-7.7,0.6-15.4,1.2-23.1,1.6c-14,0.7-28-0.3-41.8-2.5c-8.7-1.4-17.3-3.5-25.9-5.3c-3.2-0.7-3.2-0.7-4.8,2
	c-0.7,1.1-1.7,1.8-3,2.1c0.6-1.5,1.3-2.8,2-4.1c0.2-0.4,0.1-1,0.2-1.5c-0.5,0.2-1.3,0.3-1.5,0.7c-2,3.8-3.9,7.6-5.8,11.4
	c-0.2,0.4-0.1,1.3,0.2,1.4c0.8,0.5,1.7,0.8,2.6,1c0.3,0.1,0.9-0.4,1.1-0.8c0.5-1,0.9-2,1.5-3C251.4,309.2,253.1,307.5,255.3,306.3z
	 M254.8,543.2c-0.1,0.1-0.2,0.2-0.3,0.3c0.4,0.4,0.7,0.9,1.1,1.3c3.2,3.3,6.1,6.9,7,11.6c0.1,0.4,0.5,0.7,0.9,0.9
	c0.7,0.3,1.4,0.5,2.1,0.7c7.4,1.9,14.8,3.3,22.3,4.3c11.6,1.6,23.2,2.3,34.8,2c5.9-0.2,11.8-0.6,17.6-1.3c4.7-0.5,9.3-1.4,14-2.3
	c2.7-0.5,5.3-1.5,7.9-2.3c1-0.3,1.6-0.8,2-1.9c0.9-2.1,1.9-4.1,2.9-6.1c0.2-0.4,0.2-0.8,0.3-1.3c-0.1,0-0.2-0.1-0.3-0.1
	c-1.5,1.3-2.9,2.7-4.4,4c-0.1-0.1-0.3-0.3-0.4-0.4c0.5-1,1-1.9,1.4-2.9c0.2-0.5,0.5-1.2-0.5-1.1c-1.5,0.2-2.9,0.6-3.4,2.4
	c-0.5,1.7-1.3,3.2-2.1,4.8c-0.2,0.4-0.8,0.6-1.2,0.9c-0.2-0.5-0.6-0.9-0.6-1.4c0-1,0.2-1.9,0.2-2.9c0.2-2.4,0.1-2.4-2.2-2.1
	c-0.3,0-0.6,0.1-1,0.1c-6.1,0.9-12.2,2-18.3,2.5c-8.9,0.7-17.9,1.1-26.9,0.3c-6.2-0.5-12.4-1.1-18.6-1.9c-4.3-0.6-8.6-1.4-12.9-2.4
	c-5-1.1-10-2.5-14.9-3.9C259.2,544.7,257,543.9,254.8,543.2z M283,273.1c0,0.1,0,0.3,0,0.4c-0.3,0.1-0.6,0.3-0.9,0.3
	c-4.7,0.9-9.4,1.7-14,2.8c-4.2,1-8.2,2.6-11.7,5.1c-2.2,1.6-3.9,3.5-4.5,6.2c-0.3,1.1,0,1.8,1.1,2c2.7,0.6,5.3,1.4,8,2
	c5.6,1.3,11.2,2.7,16.8,3.8c6,1.2,12.1,2.4,18.2,3.2c5,0.7,10,0.9,15,1.2c0.5,0,1.1-0.2,1.9-0.3c-0.4-0.7-0.6-1.1-0.9-1.5
	c-3-3.9-6.9-6.4-11.4-8.2c-4.5-1.8-9.2-2.1-13.9-2.6c-4.2-0.5-8.4-0.9-12.6-1.6c-3.5-0.5-4.6-2.8-3-5.7c0.5-0.8,1.2-1.5,2-2.1
	c3.1-2.1,6.6-2.3,10.2-2.1c3.8,0.2,7.6,0.5,11.4,0.6c0.5,0,1-0.2,1.8-0.4c-1.8-2.1-3.3-3.9-4.8-5.7c-0.7-0.9-1.5-1.3-2.6-1.2
	c-4.8,0.5-9.6,0.7-14.4,1.3c-8.2,1-16.3,2.8-23.9,6.4c-3.4,1.6-6.4,3.6-8.9,6.3c-0.3,0.3-0.6,0.9-0.5,1.3c0.3,1,2.6,1.5,3.6,1
	c3.6-2.1,7-4.5,10.8-6.1c4.8-2,9.8-3.6,14.9-5c3.6-1,7.3-1.2,11-1.8C281.9,272.9,282.5,273.1,283,273.1z M323.7,300.5
	c0.1-0.1,0.1-0.3,0.2-0.4c-0.8-0.5-1.5-0.9-2.3-1.4c-2-1.4-4.2-2.8-4.7-5.5c-0.2-1.4,0.2-1.6,1.5-1.3c2.2,0.5,4.5,1.1,6.7,1.4
	c7,0.8,12.7-1.4,14.6-8.7c0.2-0.9,0.9-0.8,1.5-0.8c3.5,0.3,7,0.7,10.3,1.9c4.6,1.7,8.1,4.4,8.8,9.6c0.1,0.9,0.6,1.1,1.4,0.8
	c1.4-0.6,2.8-1,4-1.8c2.7-1.7,2.8-3.7,0.5-5.9c-0.5-0.5-1.1-1-1.7-1.4c-6.2-3.8-13.1-5.8-20-7.8c-3-0.9-6-1.6-9-2.4
	c-0.5-0.1-1-0.5-1.5-0.8c0.1-0.1,0.1-0.3,0.2-0.4c0.3,0,0.7-0.1,1-0.1c2.1,0.4,4.3,0.7,6.4,1.1c6.2,1.4,12.4,2.9,18.3,5.5
	c4.8,2.1,9.4,4.4,12.3,9.1c0.4,0.7,0.9,0.6,1.3,0.1c0.9-0.8,1.3-2.3,0.5-3.2c-1.2-1.4-2.4-3-4-3.9c-4-2.2-8-4.2-12.2-6
	c-8.4-3.6-17.1-6.1-26.2-7.1c-1.5-0.2-3.1,0-5,0c0.6,0.7,0.8,1.1,1.2,1.5c2.9,3,5.7,6,8.6,9c1.5,1.6,1.7,2.8,0.2,4.4
	c-0.7,0.9-1.8,1.7-2.8,2.1c-6.2,2-12.4,1.4-18.4-0.4c-5.8-1.7-10.6-5.1-15.4-8.7c-0.5-0.4-1.2-0.8-1.8-0.8c-6.3-0.2-12.7-0.4-19-0.4
	c-1.7,0-3.4,0.7-5,1.4c-1.3,0.6-2.1,1.8-1.9,3.4c0.1,1.4,1.4,1.5,2.4,2c0.2,0.1,0.5,0.2,0.8,0.2c3.2,0.4,6.5,1,9.7,1.1
	c6.9,0.3,13.6,1.5,19.9,4.4c3.6,1.7,7.1,3.8,9.2,7.2c1.2,2.1,2.6,2.8,4.8,2.7c0.8-0.1,1.6,0.2,2.5,0.2
	C322.1,300.6,322.9,300.5,323.7,300.5z M377.1,292.1c-0.7,0.2-1.1,0.3-1.3,0.5c-4.3,2.8-9.1,4.2-13.9,5.4c-4.6,1.2-9.3,2.2-14,3.1
	c-4.6,0.9-9.3,1.8-14,2.2c-8.7,0.7-17.4,0.5-26.1-0.2c-8.1-0.6-16.1-1.5-24-3.2c-7.6-1.7-15.2-3.5-22.8-5.4
	c-7.3-1.8-14.4-4-21.1-7.4c-0.7-0.4-1.3-0.3-1.5,0.6c-0.3,1.6-0.7,3.1-0.9,4.7c0,0.5,0.5,1.1,0.9,1.4c0.4,0.3,1,0.5,1.5,0.6
	c8.5,2.8,17,5.2,25.7,7.2c9.7,2.2,19.6,3.5,29.4,4.5c11.2,1.2,22.5,1.3,33.8,0.7c9-0.4,18-1.3,26.8-3.3c6.5-1.5,13-3.3,19.5-5
	c0.6-0.2,1.4-0.6,1.5-1C376.9,295.9,376.9,294.1,377.1,292.1z M326.7,287.9c0.8-0.1,1.8,0,2.7-0.3c1.5-0.5,3-1,4.2-1.8
	c1.7-1.2,1.8-2.3,0.6-4c-0.5-0.7-1-1.3-1.6-1.9c-4.1-3.8-8.1-7.6-11.4-12.1c-1.7-2.2-3.2-4.5-5-6.5c-2.2-2.6-4.8-4.9-8.2-5.5
	c-5-0.9-9.7,0.5-14,3c-1.4,0.8-1.9,2.5-1.4,4.1c0.3,0.8,0.5,1.7,0.9,2.5c3.5,7.6,8.9,13.4,16.2,17.6
	C314.8,285.8,320.4,287.7,326.7,287.9z M375.5,302.6c-1.3,0.5-2.3,0.8-3.3,1.2c-0.9,0.3-1.1,0.9-0.6,1.7c2.3,3.2,4.5,6.4,6.9,9.6
	c0.5,0.7,3.7,0,4-0.9c0.1-0.2-0.1-0.5-0.2-0.7c-1.9-3.4-3.8-6.7-5.7-10C376.2,303.1,375.8,302.8,375.5,302.6z M258.8,555.4
	c0.2-0.1,0.3-0.1,0.5-0.2c-0.6-1.5-1.1-3.2-1.9-4.6c-1.2-1.9-2.8-3.6-4-5.5c-1.4-2.2-3.2-3.6-5.7-4.4c-0.5-0.2-1-0.1-1.5-0.2
	c0.1,0.5,0,1.1,0.2,1.6c1.4,3.4,3.8,6,6.3,8.6C254.5,552.6,256.1,554.7,258.8,555.4z M376.9,316.4c-1.5-2.1-2.9-4-4.2-5.9
	c-1.1-1.6-2-3.2-3.1-4.8c-0.5-0.7-2.7-0.8-3.3,0c-0.3,0.3,0,1.4,0.3,1.9c2,3.1,4.2,6.1,6.3,9c0.2,0.3,0.9,0.6,1.3,0.5
	C375.1,317,375.9,316.7,376.9,316.4z M251.2,554.2c0.2-0.7,0.5-1.1,0.5-1.5c0-0.3-0.3-0.5-0.5-0.8c-2.5-3.8-5.5-7.3-6.8-11.7
	c-0.5-1.5-1.6-2.2-2.9-2.6c-0.3-0.1-0.8-0.2-0.9-0.1c-0.2,0.3-0.2,0.7-0.1,1c0.4,0.9,0.8,1.7,1.3,2.6c2.1,4.1,4.5,8,7.5,11.5
	C249.7,553.1,250.4,553.5,251.2,554.2z M366.8,556.3c0.1,0.1,0.2,0.2,0.3,0.3c1.4-0.8,2.8-1.3,3.7-2.8c1-1.8,2.1-3.5,3.2-5.3
	c0.4-0.7,0.8-1.3,0-1.9c-0.9-0.6-1.3,0.1-1.7,0.7c-1.7,2.7-3.4,5.4-5.1,8.1C366.9,555.7,366.9,556,366.8,556.3z"/>
<path d="M238.9,524.6c0.6,0.6,1.2,1.3,1.8,1.9c3,2.4,6.5,3.7,10.1,4.8c2.5,0.7,4.9,1.5,7.4,2.2c1.1,0.3,1.8,1.1,1.6,2.7
	c-1.3-0.3-2.6-0.5-3.8-1c-5.7-2.2-11.5-4.4-17.1-6.8c-2.3-1-4.3-2.4-6.5-3.7c-1-0.6-0.9-1.6-0.9-2.6c-0.3-5.2-0.7-10.5-0.9-15.7
	c-0.5-15.7-1-31.4-1.2-47.2c-0.2-21.8,0-43.5,0.1-65.3c0.1-22.2,0.4-44.3,0.7-66.5c0-3.5,0.3-7.1,0.6-10.6c0.1-1.7,0.5-1.8,2.1-1.1
	c4.5,1.8,8.7,4,12.4,7.1c1,0.8,1.8,1.9,2.7,2.8c-0.1,0.1-0.2,0.3-0.2,0.4c-0.8-0.3-1.6-0.5-2.4-0.8c-0.9-0.3-1.9-0.7-2.8-1.1
	c-0.9-0.3-1.4-0.1-1.4,1c0,0.2,0,0.5,0,0.7c-0.4,32.2-0.9,64.4-1.3,96.6c-0.2,13.6-0.3,27.2-0.5,40.8c-0.2,17.3-0.5,34.7-0.7,52
	c0,0.9,0.3,1.4,1.1,1.7c1.2,0.4,2.3,0.8,3.5,1.2c0.5,0.2,1,0.3,1.4,0.6c0.3,0.2,0.3,0.7,0.4,1.1c-0.4,0.1-0.7,0.4-1.1,0.3
	c-1.5-0.3-2.9-0.8-4.4-1.1c-0.4-0.1-1.1-0.1-1.4,0.2c-0.3,0.3-0.2,0.9-0.1,1.4c0.4,2.1,2.3,2.4,3.9,3.1c2.4,1,4.9,2,7.4,3
	c0.3,0.1,0.5,0.6,0.7,0.9c-0.4,0.1-0.9,0.3-1.2,0.2c-2.7-1-5.3-2.1-8-3.1c-0.6-0.2-1.2-0.3-1.7-0.4
	C239.1,524.3,239,524.4,238.9,524.6z"/>
<path d="M380.1,323c0.1,0.3,0.2,0.7,0.2,1c0.1,14.8,0.2,29.5,0.3,44.3c0.3,44.9,0.5,89.9,0.7,134.8c0,5.7-0.1,11.3-0.3,17
	c-0.1,3.1-0.5,6.2-0.9,9.3c-0.1,0.7-0.4,1.5-0.9,2.1c-2.1,2.7-4.2,5.4-6.3,8c-0.4,0.4-1.1,0.9-1.6,0.9c-4.4-0.2-8.7,0.5-13.2,1.5
	c1.1-1.5,2.7-1.7,4.1-2.2c2.1-0.6,4.2-1.1,6.3-1.6c0.6-0.1,1.3-0.1,1.1-1c-0.2-0.9-0.7-1.4-1.7-1.1c-2.1,0.5-4.2,1.1-6.3,1.6
	c-1,0.3-2.1,0.5-3.2,0.7c-0.1-0.1-0.2-0.3-0.3-0.4c0.5-0.3,0.9-0.8,1.4-1c3.1-1,6.3-1.9,9.5-2.9c0.4-0.1,0.9-0.2,1.1-0.5
	c0.3-0.3,0.4-0.8,0.6-1.3c-0.4-0.1-0.8-0.4-1.2-0.4c-0.5-0.1-1.1,0-1.6,0.1c-0.1-0.1-0.2-0.3-0.3-0.4c0.4-0.3,0.8-0.9,1.2-1
	c1.4-0.2,1.7-1,1.7-2.2c0-16.5,0.1-32.9,0.1-49.4c0.1-41.4,0.2-82.8,0.3-124.2c0-8,0.1-16,0.2-24c0-0.5,0.2-1,0.3-1.6
	c0.2,0,0.5,0,0.7,0.1c0,22-0.1,44-0.1,66.1c0,22.1,0,44.3,0,66.4c0,22.1,0,44.1,0,66.2c1.8-0.2,2.4-0.7,2.4-2.2
	c0.2-36.7,0.4-73.3,0.5-110c0.1-30.6,0-61.3,0-91.9c0-0.5,0.1-0.9,0.1-1.4c0.1,0,0.3,0,0.4,0c0.1,0.4,0.2,0.8,0.2,1.3
	c0,8.6,0.1,17.3,0.1,25.9c0,17.1,0,34.1,0.1,51.2c0.1,41,0.3,82,0.5,123c0,0.7-0.5,1.8,0.8,1.8c1.3,0,1.2-1,1.2-1.9
	c0-15.4,0-30.8,0.1-46.2c0.1-25.4,0.2-50.7,0.3-76c0.1-25.6,0.3-51.2,0.4-76.7c0-0.5,0.1-1.1,0.2-1.6C379.7,323,379.9,323,380.1,323
	z"/>
<path d="M247.7,327.5c1.3,0.6,1.9,1.5,1.9,2.8c-0.1,43.6-0.1,87.2-0.3,130.9c0,18.3-0.2,36.6-0.3,54.9c0,0.2,0.1,0.4,0,0.5
	c-0.2,0.4-0.4,0.7-0.6,1.1c-0.2-0.4-0.7-0.7-0.7-1.1c-0.1-3.1-0.1-6.2-0.1-9.2c-0.1-55.9-0.1-111.7-0.2-167.6c0-3.8,0-7.6,0.1-11.5
	C247.5,328.1,247.6,327.8,247.7,327.5z"/>
<path d="M251.7,330.2c2.1,0.3,2.3,0.5,2.3,2.4c-0.2,19.3-0.3,38.5-0.5,57.8c-0.3,31.6-0.6,63.3-0.9,94.9c-0.1,12-0.3,23.9-0.5,35.9
	c0,0.4-0.1,0.7-0.2,1.1c-0.2,0-0.3,0-0.5,0.1c-0.1-0.6-0.3-1.1-0.3-1.7c0-11.2,0.1-22.4,0.1-33.7c0.1-17.3,0.1-34.6,0.2-51.9
	c0.1-34.1,0.3-68.2,0.4-102.3C251.7,332.1,251.7,331.2,251.7,330.2z"/>
<path d="M254.7,530.1c-0.8-0.1-1.7-0.2-2.5-0.3c-0.2,0-0.4-0.3-0.4-0.4c0-0.1,0.2-0.4,0.2-0.4c1,0.2,1.9,0.4,2.9,0.5
	C254.8,529.7,254.7,529.9,254.7,530.1z"/>
<path d="M309.4,273.6c-5.3-0.3-8.4-2.5-10.2-6.6c-0.5-1.1-0.8-2.3-1.2-3.5c-0.4-1.2-0.1-2,1.1-2.5c3.3-1.3,6.7-2.3,10.3-1.2
	c2.6,0.8,4.2,2.7,5.3,5.1c0.6,1.5,1,3.2,1.2,4.8c0.1,0.6-0.4,1.6-0.8,1.8C313,272.4,310.8,273.1,309.4,273.6z M311.5,266.8
	c0.1-0.1,0.1-0.3,0.2-0.4c-1.5-1.6-2.9-3.2-4.4-4.7c-0.2-0.2-0.5-0.3-0.8-0.3c-1.7,0.2-3.4,0.2-5,0.6c-1.7,0.5-1.9,1.1-0.9,2.6
	c0.3,0.4,0.6,0.8,0.8,1.3c0.6,1.2,1.6,1.6,2.8,1.4c1.8-0.2,3.6-0.2,5.4-0.3C310.3,266.9,310.9,266.8,311.5,266.8z M308.6,268.8
	C308.6,268.7,308.6,268.7,308.6,268.8c-1,0-1.9,0.1-2.9,0.2c-0.6,0.1-1.2,0.3-1.8,0.4c0.4,0.6,0.7,1.4,1.2,1.9
	c0.4,0.4,1.1,0.5,1.7,0.5c1.8-0.1,3.6-0.4,5.4-0.6c0.8-0.1,1.5-0.4,1.4-1.4c-0.1-1-0.8-1.2-1.7-1.2
	C310.8,268.6,309.7,268.7,308.6,268.8z"/>
<path d="M318.9,273.8c1.8-0.4,3.1,0.5,4.2,1.6c2.3,2.1,4.4,4.3,6.5,6.5c0.8,0.8,0.5,1.6-0.4,2c-3,1.4-6.1,1.7-9.2,0.6
	c-1.7-0.6-3.3-1.6-5-2.2c-2.4-0.9-3.9-2.6-5.2-4.7c-0.5-0.9-0.4-1.4,0.7-1.7c2.8-0.8,5.5-1.6,8.3-2.4
	C318.9,273.6,318.9,273.7,318.9,273.8z M323.6,283.6c0-0.1,0.1-0.1,0.1-0.2c0.6-0.1,1.3-0.1,1.9-0.2c0.4-0.1,1-0.4,1.1-0.8
	c0.1-0.2-0.3-0.8-0.6-1.1c-1.8-1.4-3.6-2.7-5.4-4.1c-2.2-1.7-4.6-1.9-7.1-1c-0.7,0.2-1.3,0.6-1.9,0.8c0.5,0.7,0.9,1.6,1.6,2
	c1.9,1.2,3.9,2.2,5.9,3.2C320.6,282.9,322.2,283.2,323.6,283.6z"/>
<path d="M313.8,393.6c-9.8,17.8-19.3,35.1-28.9,52.5c6,1.1,11.5,2,17,3c2.5-11.2,4.9-22.3,7.4-33.8c-1.8,0-3.5,0-5.1,0
	c-0.2-0.2-0.3-0.5-0.5-0.7c0.7-0.6,1.3-1.8,2-1.8c4.8-0.2,9.6-0.1,14.6-0.1c-0.5,2.2-1.1,4.8-1.6,7.3c-1.9,8.2-3.9,16.4-5.8,24.6
	c-0.1,0.4-0.4,0.9-0.3,1.3c0.1,1,0.3,1.9,0.5,2.9c0.9-0.4,2.2-0.6,2.6-1.4c1.9-2.8,3.6-5.9,5.8-9.5c0.2,1.2,0.6,2,0.4,2.6
	c-1.3,2.8-2.6,5.6-4.3,8.2c-1.7,2.6-4.2,4.1-7.7,3.6c-7.9-1.2-15.8-2-23.7-3.2c-2.1-0.3-3.2,0.1-3.9,2c-0.6,1.7-1.8,2.3-3.7,1.7
	c0-1.3,0-2.6,0-4.3c-3.7-0.2-7.3-0.4-10.9-0.5c-0.8,0-1.6,0.2-2.4,0.1c-2.9-0.6-4.5,0.8-5.5,3.3c-0.6,1.6-1.7,2.4-3.7,1.5
	c0-1.4,0-2.8,0-4.4c-2.9,0-5.7,0-8.5,0c0,0,0-0.1,0-0.1c2.2-0.4,4.5-0.9,6.7-1c1.8-0.1,2.1-1,2.2-2.6c0.3-6.4,0.7-12.8,1-19.1
	c0.6-11.4,1.2-22.9,1.8-34.3c0-0.7,0-1.4,0-2.4c-1.8-0.1-3.5-0.2-5.4-0.4c0.3-1,0.5-1.8,0.7-2.6c6.9,0,13.6,0,20.6,0
	c-0.3,1-0.5,1.8-0.8,2.8c-3.2-0.7-3.4,1.2-3.6,3.6c-1.1,12.5-2.3,24.9-3.5,37.4c-0.1,0.9-0.1,1.9,0.3,3c1.9-3.4,3.8-6.7,5.6-10.1
	c0.6-1.2,1.2-2.4,2-3.5c5.2-6.9,6.6-14.7,6.4-23.1c-0.1-2.3,0.2-4.6,0.3-7c-1.1-0.2-2-0.4-3.6-0.7c0.9-1.1,1.5-2.4,2.1-2.4
	c5.5-0.2,11-0.1,16.4-0.1c0.7,3.3-1.7,2.8-3.6,3.1c-1.4,14.3-2.8,28.5-4.2,42.8c0.2,0.1,0.3,0.1,0.5,0.2c0.5-0.8,1-1.6,1.5-2.4
	c6.7-11.9,13.3-23.9,20-35.8c0.3-0.6,0.7-1.2,1-1.9c0.6-1.7,0.5-3-1.8-3.1c-0.5,0-1-0.1-1.7-0.2c0.2-1,0.4-1.8,0.6-2.7
	c3.5,0,6.8-0.1,10.2,0c3.3,0.1,5.4,2.6,5.4,6.1c0,3.6-2.4,7.3-5.3,7.3c-1.4,0-2.9-1.3-4.1-2.3C314.6,396.2,314.4,395,313.8,393.6z
	 M280.5,415.2c-0.2-0.1-0.4-0.1-0.6-0.2c-5.7,10.3-11.5,20.6-17.3,31c5.6,0,10.7,0,16.1,0C279.3,435.5,279.9,425.3,280.5,415.2z"/>
<path d="M352.4,415.9c-3.8,0-7.5-0.1-11.1,0.1c-0.5,0-1.2,0.9-1.4,1.5c-2.3,9.3-4.6,18.6-6.7,27.9c-0.2,1,0.4,2.1,0.6,3.1
	c1-0.4,2.5-0.5,3-1.2c2.1-2.8,3.8-5.9,5.8-9c0.1,0.2,0.6,0.8,0.6,1.3c-0.5,5.5-5.4,11.1-10.8,12.2c-6,1.2-9.9-2.6-8.6-8.5
	c1.9-8.6,4-17.1,5.9-25.7c0.1-0.4,0.1-0.9,0.2-1.6c-1.4-0.1-2.7-0.2-4-0.3c-0.5-1.6-0.2-2.7,1.7-2.4c2.8,0.4,3.7-0.9,4-3.4
	c0.2-2,1.1-3.9,1.4-5.9c0.3-1.6,1-2,2.5-2c2.5,0,4.9-0.2,7.7-0.4c-0.8,4-1.6,7.7-2.4,11.7c3.8,0,7.4,0.1,10.9-0.1
	c0.6,0,1.4-0.9,1.6-1.6c0.8-2.6,1.3-5.3,2.1-8c0.2-0.7,1-1.5,1.6-1.6c2.7-0.3,5.5-0.4,8.5-0.5c-0.8,4-1.6,7.7-2.5,11.7
	c1.9,0,3.5,0,5.2,0c-0.1,1-0.1,1.7-0.2,2.6c-1.8,0-3.5,0-5.6,0c-1,4.1-2,8.2-2.9,12.2c-1.4,5.6-2.8,11.2-4,16.8
	c-0.3,1.2,0.2,2.5,0.3,3.7c1.3-0.6,3-0.8,3.8-1.8c1.9-2.6,3.4-5.5,5.1-8.6c0.2,0.3,0.7,0.7,0.7,1.1c0,4.8-5.1,11.1-10,12.4
	c-6.8,1.8-10.9-2.1-9.3-9c1.8-7.8,3.6-15.5,5.4-23.3C352,418.3,352.2,417.3,352.4,415.9z"/>
<path d="M385.8,439.6c0,0.6,0.2,1.3,0,1.7c-2.4,7-6.6,12.7-12.1,11.5c-3.5-0.8-5.9-5.2-6.3-11.2c-0.9-11.5,3.8-24.6,10.2-28.4
	c1.6-0.9,3.4-1,5.1-0.6c2.3,0.6,4,3,4.4,7c0.5,4.7-0.2,9.1-2.6,12.1c-2.3,2.9-5,4.3-7.8,3.8c-1.8-0.3-2.6,0.8-2.7,3.7
	c-0.1,2.1-0.5,4.2-0.6,6.3c-0.2,3.4,0.7,4.8,2.6,4.7c3.8-0.2,6.3-3.9,8.5-8.5c0.3-0.7,0.6-1.4,0.9-2.1
	C385.5,439.6,385.7,439.6,385.8,439.6z M374.8,432.5c2.6,1,4.5,0.1,6-3.1c1.5-3.4,2-7.4,1.7-11.5c-0.1-2-0.9-2.9-2-3.1
	c-1.4-0.1-2.4,1-2.8,3.1C376.6,422.7,375.7,427.5,374.8,432.5z"/>
<path d="M264.2,477.4c3,0,5.4,0,8.6,0c-3.4,1.4-2.5,3.5-1.8,5.6c1.2,3.6,2.3,7.2,4.1,10.9c1.4-4.4,2.9-8.7,4-13.1
	c0.2-0.9-1.1-2.3-1.7-3.3c2.4-0.1,5.5-0.4,8.5-0.4c0.6,0,1.3,0.8,1.6,1.4c0.1,0.3-0.5,1.3-0.8,1.4c-0.6,0.1-1.4-0.2-2-0.5
	c-0.3-0.2-0.4-0.9-0.8-2.3c-1.3,1.7-2.5,2.9-3.1,4.3c-2.2,5.5-4.1,11.1-6.2,16.7c-0.2,0.7-0.5,1.3-1,2.4c-2-6.1-3.8-11.8-5.9-18.2
	c-2.3,6.4-4.4,12-6.7,18.3c-1.5-5-2.7-9.2-4-13.4c-0.5-1.8-0.9-3.6-1.6-5.3c-0.6-1.5-1.6-2.8-2.3-4.1c2.1,0,4.7,0,8.1,0
	c-4.1,1.1-3,3.3-2.3,5.5c1,3.4,2,6.8,3.3,11c0.7-1.7,1.2-2.6,1.6-3.6c0.9-2.3,1.7-4.6,2.6-7C267.7,479.9,267.6,479.6,264.2,477.4z"
	/>
<path d="M311.2,477.6c3.6,0,7.2-0.2,10.8,0.1c2.5,0.2,4.6,1.4,4.9,4.3c0.3,2.9-1.5,4.1-3.8,5c-0.3,0.1-0.6,0.3-1.1,0.6
	c1.1,0.4,1.9,0.8,2.8,1.2c2.3,1,3.8,2.5,3.6,5.3c-0.2,2.8-2,4.4-4.3,4.7c-4.3,0.6-8.6,0.6-13,0.5c2.6-0.8,3.2-2.6,3.2-4.9
	c-0.1-4-0.1-8,0-12C314.3,480,313.8,478.2,311.2,477.6z M317.2,488.5c0,2.5-0.1,4.9,0,7.3c0.1,1.9,1.1,2.8,3.1,2.9
	c3.4,0,5.6-2.9,4.6-6.1C323.9,489.5,321.3,488,317.2,488.5z M317.3,487.5c4.6-0.1,6.6-1.6,6.5-4.7c-0.1-3.1-2.3-4.7-6.5-4.7
	C317.3,481.2,317.3,484.3,317.3,487.5z"/>
<path d="M322,457.4c12.6,2.1,25.2,4.2,37.8,6.3C346.6,465.6,334.2,461.7,322,457.4z"/>
<path d="M350.8,489.4c-2.9,0-5.8,0-8.8,0c-0.9,2.7-0.4,5,1.5,6.9c2,1.8,4.3,1.8,7.5,0c-1.6,2.9-4.6,4.1-7.7,3
	c-3.3-1.2-5-4.7-4.2-8.7c0.7-3.5,3.7-5.9,7.2-5.8C349.1,484.9,350.5,486.3,350.8,489.4z M347.7,488.5c0.1-0.3,0.3-0.6,0.4-0.9
	c-1.1-0.8-2.1-2.1-3.3-2.1c-1.6-0.1-2.8,1.2-2.8,3.4C344.1,488.8,345.9,488.7,347.7,488.5z"/>
<path d="M300.9,486.6c-1.5,0.1-3.1,0.2-4.9,0.3c0,3.1-0.4,6.3,0.2,9.4c0.2,1.2,2.7,2,3.9,2.8c0,0-0.5,0.2-1.1,0.4
	c-4.5,1-5.6,0.1-5.6-4.4c0-2,0.1-4.1-0.1-6.1c-0.1-0.9-0.7-1.7-1.3-2.9c0.8-0.8,2.1-2.2,3.6-3.7c0.1,1.1,0.2,2,0.3,3
	c1.7,0.2,3.4,0.3,5,0.5C301,485.9,300.9,486.3,300.9,486.6z"/>
<path d="M357.8,488c-0.2,3-0.6,5.9-0.7,8.9c0,0.8,1.2,1.6,1.8,2.4c-1.9,0-3.9,0-6.3,0c2.6-1.8,1.8-4.2,1.8-6.4
	c0-2.2-0.4-4.3-0.6-6.5c-0.3-0.1-0.5-0.2-0.8-0.3c1.3-0.5,2.5-0.9,3.6-1.3C357.1,486,357.5,487,357.8,488L357.8,488z"/>
<path d="M331.1,486c1.2-0.4,2.3-0.8,3.7-1.3c1.2,4.8-0.9,10,1.6,14.5c-1.4,0-3.2,0-5.1,0C333.5,496.7,333.5,489.2,331.1,486z"/>
<path d="M287.1,484.8c1.4,4.9-1.3,10.1,1.9,14.5c-1.7,0-3.7,0-5.7,0c2.6-2.3,2.7-10,0-13.2C284.6,485.6,285.8,485.2,287.1,484.8z"/>
<path d="M357.9,488.1c1.1-1.1,2.1-2.3,3.3-3.2c0.3-0.2,1.4,0.2,1.7,0.7c0.3,0.3,0.2,1.3-0.2,1.6c-0.4,0.4-1.2,0.4-1.8,0.5
	C359.9,487.8,358.9,487.9,357.9,488.1C357.8,488,357.9,488.1,357.9,488.1z"/>
<path d="M333.7,476.4c0.7,0.9,1.5,1.5,1.5,2c0,0.6-0.8,1.1-1.2,1.7c-0.6-0.5-1.4-1-1.6-1.6C332.2,478.1,333.1,477.4,333.7,476.4z"/>
</svg>
